<svg width="348" height="482" viewBox="0 0 348 482" fill="none" xmlns="http://www.w3.org/2000/svg">
<path d="M284.317 222.691C312.586 207.97 324.998 183.176 321.552 148.308L284.317 222.691ZM284.317 222.691C284.129 222.645 283.942 222.6 283.754 222.555L283.637 223.041L283.865 223.486C284.037 223.398 284.209 223.31 284.38 223.221C306.583 228.667 323.219 238.552 334.287 252.876C345.478 267.359 349.819 288.022 347.311 314.864L284.317 222.691ZM321.054 148.353L321.055 148.357C322.784 165.86 320.498 180.773 314.232 193.124C307.968 205.471 297.706 215.298 283.41 222.596L282.203 223.212L283.521 223.527C306.016 228.915 322.787 238.811 333.891 253.182C344.975 267.526 349.315 288.043 346.813 314.817C345.467 328.481 342.344 340.492 337.453 350.859C332.557 361.235 326.372 369.772 318.903 376.48C311.428 383.194 302.122 388.814 290.975 393.334C279.817 397.858 268.13 401.18 255.912 403.298C243.684 405.418 229.668 406.865 213.861 407.636L213.386 407.66V408.136V481.5H169.814V409.294V408.794H169.314C153.879 408.794 142.114 408.698 134.016 408.505L133.504 408.493V409.005V481.5H89.9326V408.136V407.636H89.4326C85.9631 407.636 80.7562 407.588 73.8105 407.491C66.8637 407.394 61.5548 407.346 57.8852 407.346H0.59174L9.39468 355.338H41.0985C46.0072 355.338 49.9478 354.084 52.8611 351.52C55.7723 348.958 57.5954 345.143 58.3792 340.142L58.3852 340.104V340.065V224.12H62.516L62.5983 223.127C61.5061 222.945 60.099 222.848 58.3852 222.833V140.197V140.15L58.3763 140.103C57.1048 133.447 54.2804 128.401 49.8679 125.027C45.4611 121.657 39.5294 120 32.1263 120H0.5V73.4976L61.3559 73.7848H61.3583C73.7084 73.7848 83.0726 73.6883 89.4478 73.495L89.9326 73.4802V72.9952V0.5H133.504V71.5469V72.0592L134.016 72.0467C149.838 71.6605 161.603 71.4675 169.314 71.4675H169.814V70.9675V0.5H213.386V72.9952V73.4528L213.842 73.4932C229.064 74.8432 242.544 77.012 254.282 79.9972C266.011 82.98 276.871 87.3087 286.864 92.9823C296.828 98.64 304.726 106.115 310.565 115.407C316.402 124.697 319.903 135.674 321.054 148.353ZM134.872 256.721H134.372V257.221V355.127V355.627H134.872C136.411 355.627 139.976 355.676 145.573 355.772C151.17 355.869 155.804 355.917 159.474 355.917C163.151 355.917 168.272 355.772 174.835 355.482C181.402 355.192 187.056 354.805 191.795 354.321C196.54 353.837 202.053 353.014 208.333 351.853C214.62 350.692 220.001 349.334 224.469 347.779C228.934 346.224 233.54 344.186 238.287 341.665C243.056 339.133 246.918 336.201 249.86 332.864C252.794 329.536 255.186 325.625 257.038 321.138C258.899 316.629 259.826 311.639 259.826 306.174C259.826 299.151 258.363 292.889 255.425 287.4C252.503 281.942 248.894 277.447 244.592 273.924C240.291 270.402 234.687 267.432 227.8 265.005C220.933 262.585 214.59 260.792 208.774 259.628C202.958 258.463 195.795 257.592 187.293 257.012C178.799 256.432 172.129 256.142 167.288 256.142C162.458 256.142 156.231 256.238 148.608 256.432C140.983 256.625 136.408 256.721 134.872 256.721ZM134.872 123.186H134.372V123.686V212.613V213.113H134.872C135.832 213.113 139.155 213.161 144.849 213.258C150.544 213.354 155.039 213.354 158.331 213.258C161.615 213.161 166.442 212.968 172.81 212.678C179.19 212.388 184.52 211.855 188.795 211.077C193.051 210.303 198.029 209.239 203.727 207.885C209.452 206.526 214.184 204.723 217.907 202.468C221.599 200.232 225.191 197.608 228.683 194.598C232.221 191.549 234.872 187.764 236.637 183.249C238.399 178.743 239.276 173.756 239.276 168.294C239.276 161.858 238.058 156.132 235.608 151.129C233.173 146.158 230.195 142.05 226.669 138.815C223.138 135.575 218.447 132.842 212.618 130.606C206.809 128.378 201.476 126.775 196.618 125.803C191.77 124.832 185.816 124.058 178.761 123.478C171.712 122.898 166.096 122.655 161.922 122.752C157.775 122.848 152.567 122.945 146.297 123.042C140.024 123.138 136.218 123.186 134.872 123.186Z" stroke="url(#paint0_linear_117_320)"/>
<defs>
<linearGradient id="paint0_linear_117_320" x1="174" y1="0" x2="174" y2="482" gradientUnits="userSpaceOnUse">
<stop offset="0.119792" stop-color="#103781"/>
<stop offset="1" stop-color="#121936"/>
</linearGradient>
</defs>
</svg>
