<svg width="1634" height="325" viewBox="0 0 1634 325" fill="none" xmlns="http://www.w3.org/2000/svg">
<mask id="path-1-outside-1_260_10" maskUnits="userSpaceOnUse" x="20" y="53" width="1611" height="228" fill="black">
<rect fill="white" x="20" y="53" width="1611" height="228"/>
<path d="M60.16 280V240.96H113.28C123.093 240.96 130.773 238.08 136.32 232.32C141.867 226.56 144.64 219.52 144.64 211.2C144.64 205.44 143.36 200.32 140.8 195.84C138.24 191.36 134.613 187.84 129.92 185.28C125.44 182.72 119.893 181.44 113.28 181.44H60.16V143.36H109.12C117.44 143.36 124.16 141.333 129.28 137.28C134.4 133.013 136.96 126.613 136.96 118.08C136.96 109.76 134.4 103.573 129.28 99.52C124.16 95.2533 117.44 93.12 109.12 93.12H60.16V54.08H118.72C133.227 54.08 145.493 56.7467 155.52 62.08C165.76 67.4133 173.547 74.56 178.88 83.52C184.213 92.48 186.88 102.4 186.88 113.28C186.88 127.147 182.4 138.88 173.44 148.48C164.48 158.08 151.253 164.693 133.76 168.32L135.04 151.36C154.027 154.987 168.64 162.347 178.88 173.44C189.333 184.533 194.56 198.187 194.56 214.4C194.56 226.773 191.467 237.973 185.28 248C179.307 257.813 170.56 265.6 159.04 271.36C147.733 277.12 134.08 280 118.08 280H60.16ZM21.76 280V54.08H71.36V280H21.76ZM290.76 280V54.08H341V280H290.76ZM503.87 280V57.28H554.11V280H503.87ZM433.15 97.92V54.08H624.83V97.92H433.15ZM779.16 280L692.12 54.08H745.88L812.12 236.8H790.04L857.24 54.08H910.36L822.36 280H779.16ZM1000.89 280V54.08H1051.13V280H1000.89ZM1229.04 280L1142 54.08H1195.76L1262 236.8H1239.92L1307.12 54.08H1360.24L1272.24 280H1229.04ZM1405.05 280L1494.65 54.08H1540.09L1628.73 280H1575.61L1507.77 92.48H1526.01L1457.21 280H1405.05ZM1455.93 239.04V198.08H1579.13V239.04H1455.93Z"/>
</mask>
<path d="M60.16 280H59.16V281H60.16V280ZM60.16 240.96V239.96H59.16V240.96H60.16ZM136.32 232.32L137.04 233.014L136.32 232.32ZM129.92 185.28L129.424 186.148L129.432 186.153L129.441 186.158L129.92 185.28ZM60.16 181.44H59.16V182.44H60.16V181.44ZM60.16 143.36V142.36H59.16V143.36H60.16ZM129.28 137.28L129.901 138.064L129.911 138.056L129.92 138.048L129.28 137.28ZM129.28 99.52L128.64 100.288L128.649 100.296L128.659 100.304L129.28 99.52ZM60.16 93.12H59.16V94.12H60.16V93.12ZM60.16 54.08V53.08H59.16V54.08H60.16ZM155.52 62.08L155.05 62.9629L155.058 62.9669L155.52 62.08ZM178.88 83.52L178.021 84.0315L178.88 83.52ZM173.44 148.48L174.171 149.162L173.44 148.48ZM133.76 168.32L132.763 168.245L132.663 169.569L133.963 169.299L133.76 168.32ZM135.04 151.36L135.228 150.378L134.127 150.168L134.043 151.285L135.04 151.36ZM178.88 173.44L178.145 174.118L178.152 174.126L178.88 173.44ZM185.28 248L184.429 247.475L184.426 247.48L185.28 248ZM159.04 271.36L158.593 270.466L158.586 270.469L159.04 271.36ZM21.76 280H20.76V281H21.76V280ZM21.76 54.08V53.08H20.76V54.08H21.76ZM71.36 54.08H72.36V53.08H71.36V54.08ZM71.36 280V281H72.36V280H71.36ZM61.16 280V240.96H59.16V280H61.16ZM60.16 241.96H113.28V239.96H60.16V241.96ZM113.28 241.96C123.299 241.96 131.264 239.012 137.04 233.014L135.6 231.626C130.283 237.148 122.888 239.96 113.28 239.96V241.96ZM137.04 233.014C142.774 227.059 145.64 219.767 145.64 211.2H143.64C143.64 219.273 140.959 226.061 135.6 231.626L137.04 233.014ZM145.64 211.2C145.64 205.287 144.324 199.992 141.668 195.344L139.932 196.336C142.396 200.648 143.64 205.593 143.64 211.2H145.64ZM141.668 195.344C139.013 190.697 135.249 187.047 130.399 184.402L129.441 186.158C133.978 188.633 137.467 192.023 139.932 196.336L141.668 195.344ZM130.416 184.412C125.748 181.744 120.019 180.44 113.28 180.44V182.44C119.767 182.44 125.132 183.696 129.424 186.148L130.416 184.412ZM113.28 180.44H60.16V182.44H113.28V180.44ZM61.16 181.44V143.36H59.16V181.44H61.16ZM60.16 144.36H109.12V142.36H60.16V144.36ZM109.12 144.36C117.603 144.36 124.56 142.292 129.901 138.064L128.659 136.496C123.76 140.375 117.277 142.36 109.12 142.36V144.36ZM129.92 138.048C135.329 133.541 137.96 126.82 137.96 118.08H135.96C135.96 126.406 133.471 132.486 128.64 136.512L129.92 138.048ZM137.96 118.08C137.96 109.546 135.324 103.029 129.901 98.736L128.659 100.304C133.476 104.117 135.96 109.974 135.96 118.08H137.96ZM129.92 98.7518C124.579 94.3011 117.614 92.12 109.12 92.12V94.12C117.266 94.12 123.741 96.2056 128.64 100.288L129.92 98.7518ZM109.12 92.12H60.16V94.12H109.12V92.12ZM61.16 93.12V54.08H59.16V93.12H61.16ZM60.16 55.08H118.72V53.08H60.16V55.08ZM118.72 55.08C133.107 55.08 145.203 57.7248 155.05 62.9629L155.99 61.1971C145.784 55.7685 133.346 53.08 118.72 53.08V55.08ZM155.058 62.9669C165.152 68.2239 172.792 75.2479 178.021 84.0315L179.739 83.0085C174.301 73.8721 166.368 66.6027 155.982 61.1931L155.058 62.9669ZM178.021 84.0315C183.258 92.8299 185.88 102.572 185.88 113.28H187.88C187.88 102.228 185.169 92.1301 179.739 83.0085L178.021 84.0315ZM185.88 113.28C185.88 126.909 181.486 138.394 172.709 147.798L174.171 149.162C183.314 139.366 187.88 127.384 187.88 113.28H185.88ZM172.709 147.798C163.933 157.201 150.919 163.741 133.557 167.341L133.963 169.299C151.587 165.645 165.027 158.959 174.171 149.162L172.709 147.798ZM134.757 168.395L136.037 151.435L134.043 151.285L132.763 168.245L134.757 168.395ZM134.852 152.342C153.688 155.94 168.087 163.221 178.145 174.118L179.615 172.762C169.193 161.472 154.365 154.033 135.228 150.378L134.852 152.342ZM178.152 174.126C188.419 185.021 193.56 198.424 193.56 214.4H195.56C195.56 197.95 190.248 184.046 179.608 172.754L178.152 174.126ZM193.56 214.4C193.56 226.598 190.513 237.614 184.429 247.475L186.131 248.525C192.42 238.333 195.56 226.949 195.56 214.4H193.56ZM184.426 247.48C178.562 257.114 169.966 264.779 158.593 270.466L159.487 272.254C171.154 266.421 180.052 258.513 186.134 248.52L184.426 247.48ZM158.586 270.469C147.452 276.141 133.962 279 118.08 279V281C134.198 281 148.015 278.099 159.494 272.251L158.586 270.469ZM118.08 279H60.16V281H118.08V279ZM22.76 280V54.08H20.76V280H22.76ZM21.76 55.08H71.36V53.08H21.76V55.08ZM70.36 54.08V280H72.36V54.08H70.36ZM71.36 279H21.76V281H71.36V279ZM290.76 280H289.76V281H290.76V280ZM290.76 54.08V53.08H289.76V54.08H290.76ZM341 54.08H342V53.08H341V54.08ZM341 280V281H342V280H341ZM291.76 280V54.08H289.76V280H291.76ZM290.76 55.08H341V53.08H290.76V55.08ZM340 54.08V280H342V54.08H340ZM341 279H290.76V281H341V279ZM503.87 280H502.87V281H503.87V280ZM503.87 57.28V56.28H502.87V57.28H503.87ZM554.11 57.28H555.11V56.28H554.11V57.28ZM554.11 280V281H555.11V280H554.11ZM433.15 97.92H432.15V98.92H433.15V97.92ZM433.15 54.08V53.08H432.15V54.08H433.15ZM624.83 54.08H625.83V53.08H624.83V54.08ZM624.83 97.92V98.92H625.83V97.92H624.83ZM504.87 280V57.28H502.87V280H504.87ZM503.87 58.28H554.11V56.28H503.87V58.28ZM553.11 57.28V280H555.11V57.28H553.11ZM554.11 279H503.87V281H554.11V279ZM434.15 97.92V54.08H432.15V97.92H434.15ZM433.15 55.08H624.83V53.08H433.15V55.08ZM623.83 54.08V97.92H625.83V54.08H623.83ZM624.83 96.92H433.15V98.92H624.83V96.92ZM779.16 280L778.227 280.359L778.474 281H779.16V280ZM692.12 54.08V53.08H690.663L691.187 54.4395L692.12 54.08ZM745.88 54.08L746.82 53.7392L746.581 53.08H745.88V54.08ZM812.12 236.8V237.8H813.546L813.06 236.459L812.12 236.8ZM790.04 236.8L789.101 236.455L788.607 237.8H790.04V236.8ZM857.24 54.08V53.08H856.542L856.301 53.7348L857.24 54.08ZM910.36 54.08L911.292 54.4429L911.823 53.08H910.36V54.08ZM822.36 280V281H823.044L823.292 280.363L822.36 280ZM780.093 279.641L693.053 53.7205L691.187 54.4395L778.227 280.359L780.093 279.641ZM692.12 55.08H745.88V53.08H692.12V55.08ZM744.94 54.4208L811.18 237.141L813.06 236.459L746.82 53.7392L744.94 54.4208ZM812.12 235.8H790.04V237.8H812.12V235.8ZM790.979 237.145L858.179 54.4252L856.301 53.7348L789.101 236.455L790.979 237.145ZM857.24 55.08H910.36V53.08H857.24V55.08ZM909.428 53.717L821.428 279.637L823.292 280.363L911.292 54.4429L909.428 53.717ZM822.36 279H779.16V281H822.36V279ZM1000.89 280H999.885V281H1000.89V280ZM1000.89 54.08V53.08H999.885V54.08H1000.89ZM1051.12 54.08H1052.12V53.08H1051.12V54.08ZM1051.12 280V281H1052.12V280H1051.12ZM1001.89 280V54.08H999.885V280H1001.89ZM1000.89 55.08H1051.12V53.08H1000.89V55.08ZM1050.12 54.08V280H1052.12V54.08H1050.12ZM1051.12 279H1000.89V281H1051.12V279ZM1229.04 280L1228.1 280.359L1228.35 281H1229.04V280ZM1141.99 54.08V53.08H1140.54L1141.06 54.4395L1141.99 54.08ZM1195.76 54.08L1196.7 53.7392L1196.46 53.08H1195.76V54.08ZM1261.99 236.8V237.8H1263.42L1262.94 236.459L1261.99 236.8ZM1239.92 236.8L1238.98 236.455L1238.48 237.8H1239.92V236.8ZM1307.11 54.08V53.08H1306.42L1306.18 53.7348L1307.11 54.08ZM1360.23 54.08L1361.17 54.4429L1361.7 53.08H1360.23V54.08ZM1272.23 280V281H1272.92L1273.17 280.363L1272.23 280ZM1229.97 279.641L1142.93 53.7205L1141.06 54.4395L1228.1 280.359L1229.97 279.641ZM1141.99 55.08H1195.76V53.08H1141.99V55.08ZM1194.81 54.4208L1261.05 237.141L1262.94 236.459L1196.7 53.7392L1194.81 54.4208ZM1261.99 235.8H1239.92V237.8H1261.99V235.8ZM1240.85 237.145L1308.05 54.4252L1306.18 53.7348L1238.98 236.455L1240.85 237.145ZM1307.11 55.08H1360.23V53.08H1307.11V55.08ZM1359.3 53.717L1271.3 279.637L1273.17 280.363L1361.17 54.4429L1359.3 53.717ZM1272.23 279H1229.04V281H1272.23V279ZM1405.05 280L1404.12 279.631L1403.58 281H1405.05V280ZM1494.65 54.08V53.08H1493.97L1493.72 53.7113L1494.65 54.08ZM1540.09 54.08L1541.02 53.7147L1540.77 53.08H1540.09V54.08ZM1628.73 280V281H1630.2L1629.66 279.635L1628.73 280ZM1575.61 280L1574.67 280.34L1574.91 281H1575.61V280ZM1507.77 92.48V91.48H1506.34L1506.83 92.8202L1507.77 92.48ZM1526.01 92.48L1526.95 92.8244L1527.44 91.48H1526.01V92.48ZM1457.21 280V281H1457.91L1458.15 280.344L1457.21 280ZM1455.93 239.04H1454.93V240.04H1455.93V239.04ZM1455.93 198.08V197.08H1454.93V198.08H1455.93ZM1579.13 198.08H1580.13V197.08H1579.13V198.08ZM1579.13 239.04V240.04H1580.13V239.04H1579.13ZM1405.98 280.369L1495.58 54.4487L1493.72 53.7113L1404.12 279.631L1405.98 280.369ZM1494.65 55.08H1540.09V53.08H1494.65V55.08ZM1539.16 54.4452L1627.8 280.365L1629.66 279.635L1541.02 53.7147L1539.16 54.4452ZM1628.73 279H1575.61V281H1628.73V279ZM1576.55 279.66L1508.71 92.1398L1506.83 92.8202L1574.67 280.34L1576.55 279.66ZM1507.77 93.48H1526.01V91.48H1507.77V93.48ZM1525.07 92.1356L1456.27 279.656L1458.15 280.344L1526.95 92.8244L1525.07 92.1356ZM1457.21 279H1405.05V281H1457.21V279ZM1456.93 239.04V198.08H1454.93V239.04H1456.93ZM1455.93 199.08H1579.13V197.08H1455.93V199.08ZM1578.13 198.08V239.04H1580.13V198.08H1578.13ZM1579.13 238.04H1455.93V240.04H1579.13V238.04Z" fill="#0057FF" fill-opacity="0.44" mask="url(#path-1-outside-1_260_10)"/>
<circle cx="216" cy="163" r="59" fill="url(#paint0_radial_260_10)"/>
<circle cx="514" cy="163" r="59" fill="url(#paint1_radial_260_10)"/>
<circle cx="817" cy="163" r="59" fill="url(#paint2_radial_260_10)"/>
<circle cx="1105" cy="163" r="59" fill="url(#paint3_radial_260_10)"/>
<circle cx="1402" cy="163" r="59" fill="url(#paint4_radial_260_10)"/>
<path d="M21 163H193V186H216.5V90H239V161.5H335" stroke="white" stroke-opacity="0.6" stroke-width="8"/>
<path d="M631 163H785V186H808.5V90H831V161.5H927" stroke="white" stroke-opacity="0.6" stroke-width="8"/>
<path d="M1377 163H1381V159H1377V163ZM1377 186H1373V190H1377V186ZM1400.5 186V190H1404.5V186H1400.5ZM1400.5 90V86H1396.5V90H1400.5ZM1423 90H1427V86H1423V90ZM1423 161.5H1419V165.5H1423V161.5ZM1583 161.5L1543 138.406V184.594L1583 161.5ZM1223 167H1377V159H1223V167ZM1373 163V186H1381V163H1373ZM1377 190H1400.5V182H1377V190ZM1404.5 186V90H1396.5V186H1404.5ZM1400.5 94H1423V86H1400.5V94ZM1419 90V161.5H1427V90H1419ZM1423 165.5H1547V157.5H1423V165.5Z" fill="white" fill-opacity="0.6"/>
<path d="M335 161.5H489V138.5H512.5V234.5H535V163H631" stroke="white" stroke-opacity="0.6" stroke-width="8"/>
<path d="M927 161.5H1081V138.5H1104.5V234.5H1127V163H1223" stroke="white" stroke-opacity="0.6" stroke-width="8"/>
<path d="M182.847 24V7.824H185.103V24H182.847ZM177.183 9.408V7.344H190.743V9.408H177.183ZM197.563 24.24C196.427 24.24 195.403 23.984 194.491 23.472C193.579 22.944 192.859 22.232 192.331 21.336C191.803 20.44 191.539 19.424 191.539 18.288C191.539 17.168 191.795 16.16 192.307 15.264C192.835 14.368 193.539 13.664 194.419 13.152C195.315 12.624 196.315 12.36 197.419 12.36C198.475 12.36 199.403 12.6 200.203 13.08C201.019 13.56 201.651 14.224 202.099 15.072C202.563 15.92 202.795 16.88 202.795 17.952C202.795 18.112 202.787 18.288 202.771 18.48C202.755 18.656 202.723 18.864 202.675 19.104H193.051V17.304H201.523L200.731 18C200.731 17.232 200.595 16.584 200.323 16.056C200.051 15.512 199.667 15.096 199.171 14.808C198.675 14.504 198.075 14.352 197.371 14.352C196.635 14.352 195.987 14.512 195.427 14.832C194.867 15.152 194.435 15.6 194.131 16.176C193.827 16.752 193.675 17.432 193.675 18.216C193.675 19.016 193.835 19.72 194.155 20.328C194.475 20.92 194.931 21.384 195.523 21.72C196.115 22.04 196.795 22.2 197.563 22.2C198.203 22.2 198.787 22.088 199.315 21.864C199.859 21.64 200.323 21.304 200.707 20.856L202.099 22.272C201.555 22.912 200.883 23.4 200.083 23.736C199.299 24.072 198.459 24.24 197.563 24.24ZM211.174 24.24C210.534 24.24 209.926 24.16 209.35 24C208.79 23.824 208.27 23.584 207.79 23.28C207.31 22.96 206.894 22.584 206.542 22.152L207.934 20.76C208.35 21.272 208.83 21.656 209.374 21.912C209.918 22.152 210.526 22.272 211.198 22.272C211.87 22.272 212.39 22.16 212.758 21.936C213.126 21.696 213.31 21.368 213.31 20.952C213.31 20.536 213.158 20.216 212.854 19.992C212.566 19.752 212.19 19.56 211.726 19.416C211.262 19.256 210.766 19.104 210.238 18.96C209.726 18.8 209.238 18.6 208.774 18.36C208.31 18.12 207.926 17.792 207.622 17.376C207.334 16.96 207.19 16.408 207.19 15.72C207.19 15.032 207.358 14.44 207.694 13.944C208.03 13.432 208.494 13.04 209.086 12.768C209.694 12.496 210.422 12.36 211.27 12.36C212.166 12.36 212.958 12.52 213.646 12.84C214.35 13.144 214.926 13.608 215.374 14.232L213.982 15.624C213.662 15.208 213.262 14.888 212.782 14.664C212.318 14.44 211.79 14.328 211.198 14.328C210.574 14.328 210.094 14.44 209.758 14.664C209.438 14.872 209.278 15.168 209.278 15.552C209.278 15.936 209.422 16.232 209.71 16.44C209.998 16.648 210.374 16.824 210.838 16.968C211.318 17.112 211.814 17.264 212.326 17.424C212.838 17.568 213.326 17.768 213.79 18.024C214.254 18.28 214.63 18.624 214.918 19.056C215.222 19.488 215.374 20.056 215.374 20.76C215.374 21.832 214.99 22.68 214.222 23.304C213.47 23.928 212.454 24.24 211.174 24.24ZM221.945 24V7.824H224.105V24H221.945ZM219.137 14.568V12.6H226.913V14.568H219.137ZM239.493 24V17.352C239.493 16.488 239.221 15.776 238.677 15.216C238.133 14.656 237.429 14.376 236.565 14.376C235.989 14.376 235.477 14.504 235.029 14.76C234.581 15.016 234.229 15.368 233.973 15.816C233.717 16.264 233.589 16.776 233.589 17.352L232.701 16.848C232.701 15.984 232.893 15.216 233.277 14.544C233.661 13.872 234.197 13.344 234.885 12.96C235.573 12.56 236.349 12.36 237.213 12.36C238.077 12.36 238.837 12.576 239.493 13.008C240.165 13.44 240.693 14.008 241.077 14.712C241.461 15.4 241.653 16.136 241.653 16.92V24H239.493ZM231.429 24V12.6H233.589V24H231.429ZM252.257 24.24C251.121 24.24 250.097 23.984 249.185 23.472C248.273 22.944 247.553 22.232 247.025 21.336C246.497 20.44 246.233 19.424 246.233 18.288C246.233 17.168 246.489 16.16 247.001 15.264C247.529 14.368 248.233 13.664 249.113 13.152C250.009 12.624 251.009 12.36 252.113 12.36C253.169 12.36 254.097 12.6 254.897 13.08C255.713 13.56 256.345 14.224 256.793 15.072C257.257 15.92 257.489 16.88 257.489 17.952C257.489 18.112 257.481 18.288 257.465 18.48C257.449 18.656 257.417 18.864 257.369 19.104H247.745V17.304H256.217L255.425 18C255.425 17.232 255.289 16.584 255.017 16.056C254.745 15.512 254.361 15.096 253.865 14.808C253.369 14.504 252.769 14.352 252.065 14.352C251.329 14.352 250.681 14.512 250.121 14.832C249.561 15.152 249.129 15.6 248.825 16.176C248.521 16.752 248.369 17.432 248.369 18.216C248.369 19.016 248.529 19.72 248.849 20.328C249.169 20.92 249.625 21.384 250.217 21.72C250.809 22.04 251.489 22.2 252.257 22.2C252.897 22.2 253.481 22.088 254.009 21.864C254.553 21.64 255.017 21.304 255.401 20.856L256.793 22.272C256.249 22.912 255.577 23.4 254.777 23.736C253.993 24.072 253.153 24.24 252.257 24.24ZM263.645 24V7.824H265.805V24H263.645ZM260.837 14.568V12.6H268.613V14.568H260.837ZM183.902 54V37.344H186.158V54H183.902ZM185.438 54V51.936H194.366V54H185.438ZM203.516 54.24C202.476 54.24 201.532 53.984 200.684 53.472C199.836 52.944 199.164 52.232 198.668 51.336C198.188 50.44 197.948 49.432 197.948 48.312C197.948 47.192 198.188 46.184 198.668 45.288C199.164 44.392 199.828 43.68 200.66 43.152C201.508 42.624 202.46 42.36 203.516 42.36C204.38 42.36 205.148 42.544 205.82 42.912C206.508 43.264 207.06 43.76 207.476 44.4C207.892 45.024 208.124 45.752 208.172 46.584V50.016C208.124 50.832 207.892 51.56 207.476 52.2C207.076 52.84 206.532 53.344 205.844 53.712C205.172 54.064 204.396 54.24 203.516 54.24ZM203.876 52.2C204.948 52.2 205.812 51.84 206.468 51.12C207.124 50.384 207.452 49.448 207.452 48.312C207.452 47.528 207.3 46.848 206.996 46.272C206.708 45.68 206.292 45.224 205.748 44.904C205.204 44.568 204.572 44.4 203.852 44.4C203.132 44.4 202.492 44.568 201.932 44.904C201.388 45.24 200.956 45.704 200.636 46.296C200.332 46.872 200.18 47.536 200.18 48.288C200.18 49.056 200.332 49.736 200.636 50.328C200.956 50.904 201.396 51.36 201.956 51.696C202.516 52.032 203.156 52.2 203.876 52.2ZM207.308 54V50.928L207.716 48.144L207.308 45.384V42.6H209.492V54H207.308ZM219.62 54.24C218.692 54.24 217.852 54.032 217.1 53.616C216.364 53.184 215.788 52.592 215.372 51.84C214.956 51.088 214.748 50.216 214.748 49.224V42.6H216.908V49.128C216.908 49.752 217.012 50.296 217.22 50.76C217.444 51.208 217.764 51.552 218.18 51.792C218.596 52.032 219.084 52.152 219.644 52.152C220.492 52.152 221.156 51.888 221.636 51.36C222.116 50.816 222.356 50.072 222.356 49.128V42.6H224.516V49.224C224.516 50.216 224.308 51.088 223.892 51.84C223.476 52.592 222.9 53.184 222.164 53.616C221.444 54.032 220.596 54.24 219.62 54.24ZM237.875 54V47.352C237.875 46.488 237.603 45.776 237.059 45.216C236.515 44.656 235.811 44.376 234.947 44.376C234.371 44.376 233.859 44.504 233.411 44.76C232.963 45.016 232.611 45.368 232.355 45.816C232.099 46.264 231.971 46.776 231.971 47.352L231.083 46.848C231.083 45.984 231.275 45.216 231.659 44.544C232.043 43.872 232.579 43.344 233.267 42.96C233.955 42.56 234.731 42.36 235.595 42.36C236.459 42.36 237.219 42.576 237.875 43.008C238.547 43.44 239.075 44.008 239.459 44.712C239.843 45.4 240.035 46.136 240.035 46.92V54H237.875ZM229.811 54V42.6H231.971V54H229.811ZM250.568 54.24C249.448 54.24 248.432 53.976 247.52 53.448C246.624 52.92 245.912 52.208 245.384 51.312C244.872 50.4 244.616 49.392 244.616 48.288C244.616 47.168 244.872 46.16 245.384 45.264C245.912 44.368 246.624 43.664 247.52 43.152C248.432 42.624 249.448 42.36 250.568 42.36C251.448 42.36 252.264 42.528 253.016 42.864C253.768 43.184 254.416 43.656 254.96 44.28L253.52 45.72C253.168 45.304 252.736 44.992 252.224 44.784C251.728 44.56 251.176 44.448 250.568 44.448C249.848 44.448 249.208 44.616 248.648 44.952C248.088 45.272 247.648 45.72 247.328 46.296C247.008 46.872 246.848 47.536 246.848 48.288C246.848 49.04 247.008 49.704 247.328 50.28C247.648 50.856 248.088 51.312 248.648 51.648C249.208 51.984 249.848 52.152 250.568 52.152C251.176 52.152 251.728 52.048 252.224 51.84C252.736 51.616 253.176 51.296 253.544 50.88L254.96 52.32C254.432 52.928 253.784 53.4 253.016 53.736C252.264 54.072 251.448 54.24 250.568 54.24ZM267.566 54V47.352C267.566 46.488 267.294 45.776 266.75 45.216C266.206 44.656 265.502 44.376 264.638 44.376C264.062 44.376 263.55 44.504 263.102 44.76C262.654 45.016 262.302 45.368 262.046 45.816C261.79 46.264 261.662 46.776 261.662 47.352L260.774 46.848C260.774 45.984 260.966 45.216 261.35 44.544C261.734 43.872 262.27 43.344 262.958 42.96C263.646 42.56 264.422 42.36 265.286 42.36C266.15 42.36 266.91 42.552 267.566 42.936C268.238 43.32 268.766 43.856 269.15 44.544C269.534 45.232 269.726 46.024 269.726 46.92V54H267.566ZM259.502 54V36.864H261.662V54H259.502Z" fill="white"/>
<path d="M439.726 289V287.032H444.766C445.726 287.032 446.478 286.752 447.022 286.192C447.566 285.616 447.838 284.928 447.838 284.128C447.838 283.584 447.718 283.096 447.478 282.664C447.238 282.216 446.886 281.864 446.422 281.608C445.974 281.352 445.446 281.224 444.838 281.224H439.726V279.256H444.502C445.302 279.256 445.934 279.048 446.398 278.632C446.878 278.2 447.118 277.584 447.118 276.784C447.118 275.984 446.87 275.376 446.374 274.96C445.878 274.528 445.222 274.312 444.406 274.312H439.726V272.344H444.454C445.542 272.344 446.446 272.544 447.166 272.944C447.902 273.328 448.454 273.84 448.822 274.48C449.206 275.12 449.398 275.824 449.398 276.592C449.398 277.488 449.15 278.272 448.654 278.944C448.174 279.616 447.462 280.144 446.518 280.528L446.71 279.808C447.782 280.192 448.614 280.776 449.206 281.56C449.814 282.328 450.118 283.24 450.118 284.296C450.118 285.176 449.902 285.968 449.47 286.672C449.038 287.376 448.414 287.944 447.598 288.376C446.798 288.792 445.814 289 444.646 289H439.726ZM438.214 289V272.344H440.47V289H438.214ZM459.468 289V272.824H461.724V289H459.468ZM453.804 274.408V272.344H467.364V274.408H453.804ZM478.793 289.24C477.593 289.24 476.481 289.024 475.457 288.592C474.433 288.144 473.537 287.528 472.769 286.744C472.017 285.96 471.433 285.048 471.017 284.008C470.601 282.968 470.393 281.856 470.393 280.672C470.393 279.472 470.601 278.352 471.017 277.312C471.433 276.272 472.017 275.368 472.769 274.6C473.537 273.816 474.425 273.208 475.433 272.776C476.457 272.328 477.569 272.104 478.769 272.104C480.081 272.104 481.233 272.328 482.225 272.776C483.217 273.224 484.097 273.832 484.865 274.6L483.305 276.16C482.777 275.568 482.129 275.104 481.361 274.768C480.609 274.432 479.745 274.264 478.769 274.264C477.889 274.264 477.081 274.424 476.345 274.744C475.609 275.048 474.969 275.488 474.425 276.064C473.881 276.64 473.457 277.32 473.153 278.104C472.865 278.888 472.721 279.744 472.721 280.672C472.721 281.6 472.865 282.456 473.153 283.24C473.457 284.024 473.881 284.704 474.425 285.28C474.969 285.856 475.609 286.304 476.345 286.624C477.081 286.928 477.889 287.08 478.769 287.08C479.809 287.08 480.713 286.912 481.481 286.576C482.249 286.224 482.897 285.752 483.425 285.16L484.985 286.696C484.217 287.496 483.313 288.12 482.273 288.568C481.249 289.016 480.089 289.24 478.793 289.24ZM501.076 289L493.108 280.456C492.484 279.784 492.02 279.144 491.716 278.536C491.412 277.928 491.26 277.256 491.26 276.52C491.26 275.672 491.46 274.92 491.86 274.264C492.26 273.592 492.812 273.064 493.516 272.68C494.22 272.28 495.028 272.08 495.94 272.08C496.612 272.08 497.22 272.192 497.764 272.416C498.324 272.624 498.812 272.904 499.228 273.256C499.66 273.608 500.02 274.008 500.308 274.456L498.748 275.872C498.38 275.36 497.972 274.952 497.524 274.648C497.092 274.328 496.564 274.168 495.94 274.168C495.22 274.168 494.62 274.384 494.14 274.816C493.66 275.248 493.42 275.808 493.42 276.496C493.42 277.072 493.54 277.56 493.78 277.96C494.02 278.36 494.38 278.824 494.86 279.352L503.716 289H501.076ZM495.1 289.24C493.996 289.24 493.028 289.024 492.196 288.592C491.364 288.16 490.716 287.568 490.252 286.816C489.804 286.048 489.58 285.176 489.58 284.2C489.58 283.192 489.852 282.28 490.396 281.464C490.94 280.648 491.732 280 492.772 279.52L493.804 280.864C493.164 281.184 492.66 281.624 492.292 282.184C491.924 282.728 491.74 283.384 491.74 284.152C491.74 284.776 491.884 285.312 492.172 285.76C492.46 286.208 492.86 286.56 493.372 286.816C493.9 287.056 494.5 287.176 495.172 287.176C496.02 287.176 496.74 287 497.332 286.648C497.924 286.296 498.372 285.848 498.676 285.304L500.092 286.96C499.772 287.392 499.348 287.784 498.82 288.136C498.308 288.472 497.732 288.744 497.092 288.952C496.468 289.144 495.804 289.24 495.1 289.24ZM509.209 289V287.032H514.249C515.209 287.032 515.961 286.752 516.505 286.192C517.049 285.616 517.321 284.928 517.321 284.128C517.321 283.584 517.201 283.096 516.961 282.664C516.721 282.216 516.369 281.864 515.905 281.608C515.457 281.352 514.929 281.224 514.321 281.224H509.209V279.256H513.985C514.785 279.256 515.417 279.048 515.881 278.632C516.361 278.2 516.601 277.584 516.601 276.784C516.601 275.984 516.353 275.376 515.857 274.96C515.361 274.528 514.705 274.312 513.889 274.312H509.209V272.344H513.937C515.025 272.344 515.929 272.544 516.649 272.944C517.385 273.328 517.937 273.84 518.305 274.48C518.689 275.12 518.881 275.824 518.881 276.592C518.881 277.488 518.633 278.272 518.137 278.944C517.657 279.616 516.945 280.144 516.001 280.528L516.193 279.808C517.265 280.192 518.097 280.776 518.689 281.56C519.297 282.328 519.601 283.24 519.601 284.296C519.601 285.176 519.385 285.968 518.953 286.672C518.521 287.376 517.897 287.944 517.081 288.376C516.281 288.792 515.297 289 514.129 289H509.209ZM507.697 289V272.344H509.953V289H507.697ZM526.562 281.752V279.856H531.074C532.05 279.856 532.802 279.608 533.33 279.112C533.858 278.616 534.122 277.944 534.122 277.096C534.122 276.296 533.858 275.632 533.33 275.104C532.818 274.576 532.074 274.312 531.098 274.312H526.562V272.344H531.17C532.226 272.344 533.146 272.552 533.93 272.968C534.714 273.368 535.314 273.92 535.73 274.624C536.162 275.328 536.378 276.136 536.378 277.048C536.378 277.992 536.162 278.816 535.73 279.52C535.314 280.224 534.714 280.776 533.93 281.176C533.146 281.56 532.226 281.752 531.17 281.752H526.562ZM525.05 289V272.344H527.306V289H525.05ZM534.65 289L528.602 281.536L530.738 280.792L537.506 289H534.65ZM549.541 289.24C548.341 289.24 547.229 289.024 546.205 288.592C545.181 288.144 544.285 287.528 543.517 286.744C542.765 285.96 542.181 285.048 541.765 284.008C541.349 282.968 541.141 281.856 541.141 280.672C541.141 279.472 541.349 278.352 541.765 277.312C542.181 276.272 542.765 275.368 543.517 274.6C544.285 273.816 545.173 273.208 546.181 272.776C547.205 272.328 548.317 272.104 549.517 272.104C550.829 272.104 551.981 272.328 552.973 272.776C553.965 273.224 554.845 273.832 555.613 274.6L554.053 276.16C553.525 275.568 552.877 275.104 552.109 274.768C551.357 274.432 550.493 274.264 549.517 274.264C548.637 274.264 547.829 274.424 547.093 274.744C546.357 275.048 545.717 275.488 545.173 276.064C544.629 276.64 544.205 277.32 543.901 278.104C543.613 278.888 543.469 279.744 543.469 280.672C543.469 281.6 543.613 282.456 543.901 283.24C544.205 284.024 544.629 284.704 545.173 285.28C545.717 285.856 546.357 286.304 547.093 286.624C547.829 286.928 548.637 287.08 549.517 287.08C550.557 287.08 551.461 286.912 552.229 286.576C552.997 286.224 553.645 285.752 554.173 285.16L555.733 286.696C554.965 287.496 554.061 288.12 553.021 288.568C551.997 289.016 550.837 289.24 549.541 289.24ZM560.029 283.912V281.872H567.925V283.912H560.029ZM572.019 287.632L578.163 281.152C578.787 280.512 579.275 279.96 579.627 279.496C579.979 279.016 580.227 278.576 580.371 278.176C580.531 277.776 580.611 277.36 580.611 276.928C580.611 276.08 580.339 275.416 579.795 274.936C579.251 274.456 578.547 274.216 577.683 274.216C576.835 274.216 576.091 274.424 575.451 274.84C574.811 275.24 574.243 275.864 573.747 276.712L572.163 275.392C572.819 274.304 573.611 273.488 574.539 272.944C575.467 272.384 576.539 272.104 577.755 272.104C578.779 272.104 579.667 272.304 580.419 272.704C581.187 273.104 581.779 273.664 582.195 274.384C582.611 275.104 582.819 275.944 582.819 276.904C582.819 277.592 582.731 278.208 582.555 278.752C582.395 279.296 582.099 279.856 581.667 280.432C581.251 280.992 580.667 281.664 579.915 282.448L574.947 287.56L572.019 287.632ZM572.019 289V287.632L573.939 286.984H583.203V289H572.019ZM594.532 289.24C593.284 289.24 592.14 288.888 591.1 288.184C590.076 287.48 589.26 286.488 588.652 285.208C588.044 283.912 587.74 282.392 587.74 280.648C587.74 278.904 588.036 277.392 588.628 276.112C589.236 274.832 590.052 273.848 591.076 273.16C592.1 272.456 593.228 272.104 594.46 272.104C595.724 272.104 596.868 272.456 597.892 273.16C598.916 273.848 599.724 274.832 600.316 276.112C600.924 277.392 601.228 278.912 601.228 280.672C601.228 282.416 600.924 283.936 600.316 285.232C599.724 286.512 598.916 287.504 597.892 288.208C596.884 288.896 595.764 289.24 594.532 289.24ZM594.484 287.104C595.364 287.104 596.132 286.864 596.788 286.384C597.46 285.888 597.988 285.16 598.372 284.2C598.756 283.24 598.948 282.056 598.948 280.648C598.948 279.24 598.756 278.064 598.372 277.12C597.988 276.16 597.46 275.44 596.788 274.96C596.116 274.464 595.34 274.216 594.46 274.216C593.596 274.216 592.828 274.464 592.156 274.96C591.484 275.44 590.956 276.16 590.572 277.12C590.204 278.064 590.02 279.24 590.02 280.648C590.02 282.056 590.204 283.24 590.572 284.2C590.956 285.16 591.484 285.888 592.156 286.384C592.828 286.864 593.604 287.104 594.484 287.104ZM437.227 319L444.043 302.344H445.675L452.467 319H450.019L444.427 304.912H445.267L439.627 319H437.227ZM440.467 315.232V313.264H449.227V315.232H440.467ZM460.802 319.24C460.162 319.24 459.554 319.16 458.978 319C458.418 318.824 457.898 318.584 457.418 318.28C456.938 317.96 456.522 317.584 456.17 317.152L457.562 315.76C457.978 316.272 458.458 316.656 459.002 316.912C459.546 317.152 460.154 317.272 460.826 317.272C461.498 317.272 462.018 317.16 462.386 316.936C462.754 316.696 462.938 316.368 462.938 315.952C462.938 315.536 462.786 315.216 462.482 314.992C462.194 314.752 461.818 314.56 461.354 314.416C460.89 314.256 460.394 314.104 459.866 313.96C459.354 313.8 458.866 313.6 458.402 313.36C457.938 313.12 457.554 312.792 457.25 312.376C456.962 311.96 456.818 311.408 456.818 310.72C456.818 310.032 456.986 309.44 457.322 308.944C457.658 308.432 458.122 308.04 458.714 307.768C459.322 307.496 460.05 307.36 460.898 307.36C461.794 307.36 462.586 307.52 463.274 307.84C463.978 308.144 464.554 308.608 465.002 309.232L463.61 310.624C463.29 310.208 462.89 309.888 462.41 309.664C461.946 309.44 461.418 309.328 460.826 309.328C460.202 309.328 459.722 309.44 459.386 309.664C459.066 309.872 458.906 310.168 458.906 310.552C458.906 310.936 459.05 311.232 459.338 311.44C459.626 311.648 460.002 311.824 460.466 311.968C460.946 312.112 461.442 312.264 461.954 312.424C462.466 312.568 462.954 312.768 463.418 313.024C463.882 313.28 464.258 313.624 464.546 314.056C464.85 314.488 465.002 315.056 465.002 315.76C465.002 316.832 464.618 317.68 463.85 318.304C463.098 318.928 462.082 319.24 460.802 319.24ZM473.444 319.24C472.804 319.24 472.196 319.16 471.62 319C471.06 318.824 470.54 318.584 470.06 318.28C469.58 317.96 469.164 317.584 468.812 317.152L470.204 315.76C470.62 316.272 471.1 316.656 471.644 316.912C472.188 317.152 472.796 317.272 473.468 317.272C474.14 317.272 474.66 317.16 475.028 316.936C475.396 316.696 475.58 316.368 475.58 315.952C475.58 315.536 475.428 315.216 475.124 314.992C474.836 314.752 474.46 314.56 473.996 314.416C473.532 314.256 473.036 314.104 472.508 313.96C471.996 313.8 471.508 313.6 471.044 313.36C470.58 313.12 470.196 312.792 469.892 312.376C469.604 311.96 469.46 311.408 469.46 310.72C469.46 310.032 469.628 309.44 469.964 308.944C470.3 308.432 470.764 308.04 471.356 307.768C471.964 307.496 472.692 307.36 473.54 307.36C474.436 307.36 475.228 307.52 475.916 307.84C476.62 308.144 477.196 308.608 477.644 309.232L476.252 310.624C475.932 310.208 475.532 309.888 475.052 309.664C474.588 309.44 474.06 309.328 473.468 309.328C472.844 309.328 472.364 309.44 472.028 309.664C471.708 309.872 471.548 310.168 471.548 310.552C471.548 310.936 471.692 311.232 471.98 311.44C472.268 311.648 472.644 311.824 473.108 311.968C473.588 312.112 474.084 312.264 474.596 312.424C475.108 312.568 475.596 312.768 476.06 313.024C476.524 313.28 476.9 313.624 477.188 314.056C477.492 314.488 477.644 315.056 477.644 315.76C477.644 316.832 477.26 317.68 476.492 318.304C475.74 318.928 474.724 319.24 473.444 319.24ZM487.742 319.24C486.606 319.24 485.582 318.984 484.67 318.472C483.758 317.944 483.038 317.232 482.51 316.336C481.982 315.44 481.718 314.424 481.718 313.288C481.718 312.168 481.974 311.16 482.486 310.264C483.014 309.368 483.718 308.664 484.598 308.152C485.494 307.624 486.494 307.36 487.598 307.36C488.654 307.36 489.582 307.6 490.382 308.08C491.198 308.56 491.83 309.224 492.278 310.072C492.742 310.92 492.974 311.88 492.974 312.952C492.974 313.112 492.966 313.288 492.95 313.48C492.934 313.656 492.902 313.864 492.854 314.104H483.23V312.304H491.702L490.91 313C490.91 312.232 490.774 311.584 490.502 311.056C490.23 310.512 489.846 310.096 489.35 309.808C488.854 309.504 488.254 309.352 487.55 309.352C486.814 309.352 486.166 309.512 485.606 309.832C485.046 310.152 484.614 310.6 484.31 311.176C484.006 311.752 483.854 312.432 483.854 313.216C483.854 314.016 484.014 314.72 484.334 315.328C484.654 315.92 485.11 316.384 485.702 316.72C486.294 317.04 486.974 317.2 487.742 317.2C488.382 317.2 488.966 317.088 489.494 316.864C490.038 316.64 490.502 316.304 490.886 315.856L492.278 317.272C491.734 317.912 491.062 318.4 490.262 318.736C489.478 319.072 488.638 319.24 487.742 319.24ZM499.13 319V302.824H501.29V319H499.13ZM496.322 309.568V307.6H504.098V309.568H496.322ZM512.003 319.24C511.363 319.24 510.755 319.16 510.179 319C509.619 318.824 509.099 318.584 508.619 318.28C508.139 317.96 507.723 317.584 507.371 317.152L508.763 315.76C509.179 316.272 509.659 316.656 510.203 316.912C510.747 317.152 511.355 317.272 512.027 317.272C512.699 317.272 513.219 317.16 513.587 316.936C513.955 316.696 514.139 316.368 514.139 315.952C514.139 315.536 513.987 315.216 513.683 314.992C513.395 314.752 513.019 314.56 512.555 314.416C512.091 314.256 511.595 314.104 511.067 313.96C510.555 313.8 510.067 313.6 509.603 313.36C509.139 313.12 508.755 312.792 508.451 312.376C508.163 311.96 508.019 311.408 508.019 310.72C508.019 310.032 508.187 309.44 508.523 308.944C508.859 308.432 509.323 308.04 509.915 307.768C510.523 307.496 511.251 307.36 512.099 307.36C512.995 307.36 513.787 307.52 514.475 307.84C515.179 308.144 515.755 308.608 516.203 309.232L514.811 310.624C514.491 310.208 514.091 309.888 513.611 309.664C513.147 309.44 512.619 309.328 512.027 309.328C511.403 309.328 510.923 309.44 510.587 309.664C510.267 309.872 510.107 310.168 510.107 310.552C510.107 310.936 510.251 311.232 510.539 311.44C510.827 311.648 511.203 311.824 511.667 311.968C512.147 312.112 512.643 312.264 513.155 312.424C513.667 312.568 514.155 312.768 514.619 313.024C515.083 313.28 515.459 313.624 515.747 314.056C516.051 314.488 516.203 315.056 516.203 315.76C516.203 316.832 515.819 317.68 515.051 318.304C514.299 318.928 513.283 319.24 512.003 319.24ZM530.31 319V317.032H535.35C536.31 317.032 537.062 316.752 537.606 316.192C538.15 315.616 538.422 314.928 538.422 314.128C538.422 313.584 538.302 313.096 538.062 312.664C537.822 312.216 537.47 311.864 537.006 311.608C536.558 311.352 536.03 311.224 535.422 311.224H530.31V309.256H535.086C535.886 309.256 536.518 309.048 536.982 308.632C537.462 308.2 537.702 307.584 537.702 306.784C537.702 305.984 537.454 305.376 536.958 304.96C536.462 304.528 535.806 304.312 534.99 304.312H530.31V302.344H535.038C536.126 302.344 537.03 302.544 537.75 302.944C538.486 303.328 539.038 303.84 539.406 304.48C539.79 305.12 539.982 305.824 539.982 306.592C539.982 307.488 539.734 308.272 539.238 308.944C538.758 309.616 538.046 310.144 537.102 310.528L537.294 309.808C538.366 310.192 539.198 310.776 539.79 311.56C540.398 312.328 540.702 313.24 540.702 314.296C540.702 315.176 540.486 315.968 540.054 316.672C539.622 317.376 538.998 317.944 538.182 318.376C537.382 318.792 536.398 319 535.23 319H530.31ZM528.798 319V302.344H531.054V319H528.798ZM545.767 319V307.6H547.927V319H545.767ZM547.927 312.496L547.111 312.136C547.111 310.68 547.447 309.52 548.119 308.656C548.791 307.792 549.759 307.36 551.023 307.36C551.599 307.36 552.119 307.464 552.583 307.672C553.047 307.864 553.479 308.192 553.879 308.656L552.463 310.12C552.223 309.864 551.959 309.68 551.671 309.568C551.383 309.456 551.047 309.4 550.663 309.4C549.863 309.4 549.207 309.656 548.695 310.168C548.183 310.68 547.927 311.456 547.927 312.496ZM557.824 319V307.6H559.984V319H557.824ZM558.904 305.32C558.504 305.32 558.176 305.192 557.92 304.936C557.664 304.664 557.536 304.328 557.536 303.928C557.536 303.544 557.664 303.224 557.92 302.968C558.176 302.696 558.504 302.56 558.904 302.56C559.304 302.56 559.632 302.696 559.888 302.968C560.144 303.224 560.272 303.544 560.272 303.928C560.272 304.328 560.144 304.664 559.888 304.936C559.632 305.192 559.304 305.32 558.904 305.32ZM570.391 319.24C569.335 319.24 568.391 318.984 567.559 318.472C566.727 317.944 566.063 317.232 565.567 316.336C565.087 315.44 564.847 314.432 564.847 313.312C564.847 312.192 565.087 311.184 565.567 310.288C566.063 309.392 566.727 308.68 567.559 308.152C568.391 307.624 569.335 307.36 570.391 307.36C571.239 307.36 572.007 307.544 572.695 307.912C573.383 308.264 573.935 308.76 574.351 309.4C574.783 310.024 575.023 310.752 575.071 311.584V315.016C575.023 315.832 574.791 316.56 574.375 317.2C573.959 317.84 573.407 318.344 572.719 318.712C572.031 319.064 571.255 319.24 570.391 319.24ZM570.751 317.2C571.471 317.2 572.095 317.032 572.623 316.696C573.167 316.36 573.591 315.904 573.895 315.328C574.199 314.736 574.351 314.064 574.351 313.312C574.351 312.528 574.191 311.848 573.871 311.272C573.567 310.696 573.143 310.24 572.599 309.904C572.071 309.568 571.447 309.4 570.727 309.4C570.007 309.4 569.375 309.568 568.831 309.904C568.287 310.24 567.855 310.704 567.535 311.296C567.231 311.872 567.079 312.536 567.079 313.288C567.079 314.056 567.231 314.736 567.535 315.328C567.855 315.904 568.287 316.36 568.831 316.696C569.391 317.032 570.031 317.2 570.751 317.2ZM576.391 319H574.207V315.928L574.615 313.144L574.207 310.384V301.864H576.391V319ZM586.664 324.016C585.496 324.016 584.456 323.8 583.544 323.368C582.648 322.936 581.928 322.328 581.384 321.544L582.776 320.128C583.24 320.72 583.792 321.168 584.432 321.472C585.072 321.792 585.832 321.952 586.712 321.952C587.88 321.952 588.8 321.64 589.472 321.016C590.16 320.408 590.504 319.584 590.504 318.544V315.712L590.888 313.144L590.504 310.6V307.6H592.664V318.544C592.664 319.632 592.408 320.584 591.896 321.4C591.4 322.216 590.696 322.856 589.784 323.32C588.888 323.784 587.848 324.016 586.664 324.016ZM586.664 318.808C585.624 318.808 584.688 318.56 583.856 318.064C583.04 317.568 582.392 316.888 581.912 316.024C581.432 315.144 581.192 314.16 581.192 313.072C581.192 311.984 581.432 311.016 581.912 310.168C582.392 309.304 583.04 308.624 583.856 308.128C584.688 307.616 585.624 307.36 586.664 307.36C587.56 307.36 588.352 307.536 589.04 307.888C589.728 308.24 590.272 308.736 590.672 309.376C591.088 310 591.312 310.736 591.344 311.584V314.608C591.296 315.44 591.064 316.176 590.648 316.816C590.248 317.44 589.704 317.928 589.016 318.28C588.328 318.632 587.544 318.808 586.664 318.808ZM587.096 316.768C587.8 316.768 588.416 316.616 588.944 316.312C589.488 316.008 589.904 315.584 590.192 315.04C590.48 314.48 590.624 313.832 590.624 313.096C590.624 312.36 590.472 311.72 590.168 311.176C589.88 310.616 589.472 310.184 588.944 309.88C588.416 309.56 587.792 309.4 587.072 309.4C586.352 309.4 585.72 309.56 585.176 309.88C584.632 310.184 584.2 310.616 583.88 311.176C583.576 311.72 583.424 312.352 583.424 313.072C583.424 313.792 583.576 314.432 583.88 314.992C584.2 315.552 584.632 315.992 585.176 316.312C585.736 316.616 586.376 316.768 587.096 316.768ZM603.514 319.24C602.378 319.24 601.354 318.984 600.442 318.472C599.53 317.944 598.81 317.232 598.282 316.336C597.754 315.44 597.49 314.424 597.49 313.288C597.49 312.168 597.746 311.16 598.258 310.264C598.786 309.368 599.49 308.664 600.37 308.152C601.266 307.624 602.266 307.36 603.37 307.36C604.426 307.36 605.354 307.6 606.154 308.08C606.97 308.56 607.602 309.224 608.05 310.072C608.514 310.92 608.746 311.88 608.746 312.952C608.746 313.112 608.738 313.288 608.722 313.48C608.706 313.656 608.674 313.864 608.626 314.104H599.002V312.304H607.474L606.682 313C606.682 312.232 606.546 311.584 606.274 311.056C606.002 310.512 605.618 310.096 605.122 309.808C604.626 309.504 604.026 309.352 603.322 309.352C602.586 309.352 601.938 309.512 601.378 309.832C600.818 310.152 600.386 310.6 600.082 311.176C599.778 311.752 599.626 312.432 599.626 313.216C599.626 314.016 599.786 314.72 600.106 315.328C600.426 315.92 600.882 316.384 601.474 316.72C602.066 317.04 602.746 317.2 603.514 317.2C604.154 317.2 604.738 317.088 605.266 316.864C605.81 316.64 606.274 316.304 606.658 315.856L608.05 317.272C607.506 317.912 606.834 318.4 606.034 318.736C605.25 319.072 604.41 319.24 603.514 319.24Z" fill="white"/>
<path d="M753.208 24V7.344H755.464V24H753.208ZM754.744 24V21.936H764.296V24H754.744ZM754.744 16.464V14.496H763.504V16.464H754.744ZM754.744 9.408V7.344H764.176V9.408H754.744ZM774.377 24.24C773.257 24.24 772.241 23.976 771.329 23.448C770.433 22.92 769.721 22.208 769.193 21.312C768.681 20.4 768.425 19.392 768.425 18.288C768.425 17.168 768.681 16.16 769.193 15.264C769.721 14.368 770.433 13.664 771.329 13.152C772.241 12.624 773.257 12.36 774.377 12.36C775.257 12.36 776.073 12.528 776.825 12.864C777.577 13.184 778.225 13.656 778.769 14.28L777.329 15.72C776.977 15.304 776.545 14.992 776.033 14.784C775.537 14.56 774.985 14.448 774.377 14.448C773.657 14.448 773.017 14.616 772.457 14.952C771.897 15.272 771.457 15.72 771.137 16.296C770.817 16.872 770.657 17.536 770.657 18.288C770.657 19.04 770.817 19.704 771.137 20.28C771.457 20.856 771.897 21.312 772.457 21.648C773.017 21.984 773.657 22.152 774.377 22.152C774.985 22.152 775.537 22.048 776.033 21.84C776.545 21.616 776.985 21.296 777.353 20.88L778.769 22.32C778.241 22.928 777.593 23.4 776.825 23.736C776.073 24.072 775.257 24.24 774.377 24.24ZM788.285 24.24C787.165 24.24 786.157 23.976 785.261 23.448C784.365 22.92 783.653 22.208 783.125 21.312C782.597 20.4 782.333 19.384 782.333 18.264C782.333 17.16 782.597 16.168 783.125 15.288C783.653 14.392 784.365 13.68 785.261 13.152C786.157 12.624 787.165 12.36 788.285 12.36C789.389 12.36 790.389 12.624 791.285 13.152C792.197 13.664 792.917 14.368 793.445 15.264C793.973 16.16 794.237 17.16 794.237 18.264C794.237 19.384 793.973 20.4 793.445 21.312C792.917 22.208 792.197 22.92 791.285 23.448C790.389 23.976 789.389 24.24 788.285 24.24ZM788.285 22.152C789.005 22.152 789.645 21.984 790.205 21.648C790.765 21.312 791.205 20.856 791.525 20.28C791.845 19.688 792.005 19.016 792.005 18.264C792.005 17.528 791.837 16.872 791.501 16.296C791.181 15.72 790.741 15.272 790.181 14.952C789.637 14.616 789.005 14.448 788.285 14.448C787.565 14.448 786.925 14.616 786.365 14.952C785.805 15.272 785.365 15.72 785.045 16.296C784.725 16.872 784.565 17.528 784.565 18.264C784.565 19.016 784.725 19.688 785.045 20.28C785.365 20.856 785.805 21.312 786.365 21.648C786.925 21.984 787.565 22.152 788.285 22.152ZM802.695 24.24C802.055 24.24 801.447 24.16 800.871 24C800.311 23.824 799.791 23.584 799.311 23.28C798.831 22.96 798.415 22.584 798.063 22.152L799.455 20.76C799.871 21.272 800.351 21.656 800.895 21.912C801.439 22.152 802.047 22.272 802.719 22.272C803.391 22.272 803.911 22.16 804.279 21.936C804.647 21.696 804.831 21.368 804.831 20.952C804.831 20.536 804.679 20.216 804.375 19.992C804.087 19.752 803.711 19.56 803.247 19.416C802.783 19.256 802.287 19.104 801.759 18.96C801.247 18.8 800.759 18.6 800.295 18.36C799.831 18.12 799.447 17.792 799.143 17.376C798.855 16.96 798.711 16.408 798.711 15.72C798.711 15.032 798.879 14.44 799.215 13.944C799.551 13.432 800.015 13.04 800.607 12.768C801.215 12.496 801.943 12.36 802.791 12.36C803.687 12.36 804.479 12.52 805.167 12.84C805.871 13.144 806.447 13.608 806.895 14.232L805.503 15.624C805.183 15.208 804.783 14.888 804.303 14.664C803.839 14.44 803.311 14.328 802.719 14.328C802.095 14.328 801.615 14.44 801.279 14.664C800.959 14.872 800.799 15.168 800.799 15.552C800.799 15.936 800.943 16.232 801.231 16.44C801.519 16.648 801.895 16.824 802.359 16.968C802.839 17.112 803.335 17.264 803.847 17.424C804.359 17.568 804.847 17.768 805.311 18.024C805.775 18.28 806.151 18.624 806.439 19.056C806.743 19.488 806.895 20.056 806.895 20.76C806.895 21.832 806.511 22.68 805.743 23.304C804.991 23.928 803.975 24.24 802.695 24.24ZM815.457 24.096L810.513 12.6H812.913L816.585 21.6H815.817L819.681 12.6H822.081L816.753 24.096H815.457ZM812.193 28.776L815.553 21.888L816.753 24.096L814.593 28.776H812.193ZM829.643 24.24C829.003 24.24 828.395 24.16 827.819 24C827.259 23.824 826.739 23.584 826.259 23.28C825.779 22.96 825.363 22.584 825.011 22.152L826.403 20.76C826.819 21.272 827.299 21.656 827.843 21.912C828.387 22.152 828.995 22.272 829.667 22.272C830.339 22.272 830.859 22.16 831.227 21.936C831.595 21.696 831.779 21.368 831.779 20.952C831.779 20.536 831.627 20.216 831.323 19.992C831.035 19.752 830.659 19.56 830.195 19.416C829.731 19.256 829.235 19.104 828.707 18.96C828.195 18.8 827.707 18.6 827.243 18.36C826.779 18.12 826.395 17.792 826.091 17.376C825.803 16.96 825.659 16.408 825.659 15.72C825.659 15.032 825.827 14.44 826.163 13.944C826.499 13.432 826.963 13.04 827.555 12.768C828.163 12.496 828.891 12.36 829.739 12.36C830.635 12.36 831.427 12.52 832.115 12.84C832.819 13.144 833.395 13.608 833.843 14.232L832.451 15.624C832.131 15.208 831.731 14.888 831.251 14.664C830.787 14.44 830.259 14.328 829.667 14.328C829.043 14.328 828.563 14.44 828.227 14.664C827.907 14.872 827.747 15.168 827.747 15.552C827.747 15.936 827.891 16.232 828.179 16.44C828.467 16.648 828.843 16.824 829.307 16.968C829.787 17.112 830.283 17.264 830.795 17.424C831.307 17.568 831.795 17.768 832.259 18.024C832.723 18.28 833.099 18.624 833.387 19.056C833.691 19.488 833.843 20.056 833.843 20.76C833.843 21.832 833.459 22.68 832.691 23.304C831.939 23.928 830.923 24.24 829.643 24.24ZM840.413 24V7.824H842.573V24H840.413ZM837.605 14.568V12.6H845.381V14.568H837.605ZM854.826 24.24C853.69 24.24 852.666 23.984 851.754 23.472C850.842 22.944 850.122 22.232 849.594 21.336C849.066 20.44 848.802 19.424 848.802 18.288C848.802 17.168 849.058 16.16 849.57 15.264C850.098 14.368 850.802 13.664 851.682 13.152C852.578 12.624 853.578 12.36 854.682 12.36C855.738 12.36 856.666 12.6 857.466 13.08C858.282 13.56 858.914 14.224 859.362 15.072C859.826 15.92 860.058 16.88 860.058 17.952C860.058 18.112 860.05 18.288 860.034 18.48C860.018 18.656 859.986 18.864 859.938 19.104H850.314V17.304H858.786L857.994 18C857.994 17.232 857.858 16.584 857.586 16.056C857.314 15.512 856.93 15.096 856.434 14.808C855.938 14.504 855.338 14.352 854.634 14.352C853.898 14.352 853.25 14.512 852.69 14.832C852.13 15.152 851.698 15.6 851.394 16.176C851.09 16.752 850.938 17.432 850.938 18.216C850.938 19.016 851.098 19.72 851.418 20.328C851.738 20.92 852.194 21.384 852.786 21.72C853.378 22.04 854.058 22.2 854.826 22.2C855.466 22.2 856.05 22.088 856.578 21.864C857.122 21.64 857.586 21.304 857.97 20.856L859.362 22.272C858.818 22.912 858.146 23.4 857.346 23.736C856.562 24.072 855.722 24.24 854.826 24.24ZM864.813 24V12.6H866.973V24H864.813ZM872.517 24V17.112C872.517 16.264 872.253 15.6 871.725 15.12C871.213 14.624 870.565 14.376 869.781 14.376C869.253 14.376 868.781 14.488 868.365 14.712C867.949 14.936 867.613 15.248 867.357 15.648C867.101 16.048 866.973 16.528 866.973 17.088L866.085 16.656C866.085 15.792 866.269 15.04 866.637 14.4C867.021 13.76 867.541 13.264 868.197 12.912C868.853 12.544 869.589 12.36 870.405 12.36C871.205 12.36 871.925 12.536 872.565 12.888C873.221 13.24 873.733 13.736 874.101 14.376C874.485 15.016 874.677 15.776 874.677 16.656V24H872.517ZM880.221 24V17.112C880.221 16.264 879.957 15.6 879.429 15.12C878.917 14.624 878.277 14.376 877.509 14.376C876.981 14.376 876.501 14.488 876.069 14.712C875.653 14.936 875.317 15.248 875.061 15.648C874.805 16.048 874.677 16.528 874.677 17.088L873.453 16.656C873.501 15.776 873.733 15.024 874.149 14.4C874.581 13.76 875.133 13.264 875.805 12.912C876.477 12.544 877.213 12.36 878.013 12.36C878.845 12.36 879.589 12.536 880.245 12.888C880.901 13.24 881.421 13.736 881.805 14.376C882.205 15.016 882.405 15.784 882.405 16.68V24H880.221ZM766.249 47.52V45.552H770.785C771.409 45.552 771.961 45.424 772.441 45.168C772.937 44.912 773.321 44.552 773.593 44.088C773.881 43.624 774.025 43.072 774.025 42.432C774.025 41.792 773.881 41.24 773.593 40.776C773.321 40.312 772.937 39.952 772.441 39.696C771.961 39.44 771.409 39.312 770.785 39.312H766.249V37.344H770.929C771.953 37.344 772.865 37.552 773.665 37.968C774.481 38.384 775.121 38.976 775.585 39.744C776.065 40.496 776.305 41.392 776.305 42.432C776.305 43.456 776.065 44.352 775.585 45.12C775.121 45.872 774.481 46.464 773.665 46.896C772.865 47.312 771.953 47.52 770.929 47.52H766.249ZM764.737 54V37.344H766.993V54H764.737ZM781.307 54V42.6H783.467V54H781.307ZM783.467 47.496L782.651 47.136C782.651 45.68 782.987 44.52 783.659 43.656C784.331 42.792 785.299 42.36 786.563 42.36C787.139 42.36 787.659 42.464 788.123 42.672C788.587 42.864 789.019 43.192 789.419 43.656L788.003 45.12C787.763 44.864 787.499 44.68 787.211 44.568C786.923 44.456 786.587 44.4 786.203 44.4C785.403 44.4 784.747 44.656 784.235 45.168C783.723 45.68 783.467 46.456 783.467 47.496ZM798.173 54.24C797.053 54.24 796.045 53.976 795.149 53.448C794.253 52.92 793.541 52.208 793.013 51.312C792.485 50.4 792.221 49.384 792.221 48.264C792.221 47.16 792.485 46.168 793.013 45.288C793.541 44.392 794.253 43.68 795.149 43.152C796.045 42.624 797.053 42.36 798.173 42.36C799.277 42.36 800.277 42.624 801.173 43.152C802.085 43.664 802.805 44.368 803.333 45.264C803.861 46.16 804.125 47.16 804.125 48.264C804.125 49.384 803.861 50.4 803.333 51.312C802.805 52.208 802.085 52.92 801.173 53.448C800.277 53.976 799.277 54.24 798.173 54.24ZM798.173 52.152C798.893 52.152 799.533 51.984 800.093 51.648C800.653 51.312 801.093 50.856 801.413 50.28C801.733 49.688 801.893 49.016 801.893 48.264C801.893 47.528 801.725 46.872 801.389 46.296C801.069 45.72 800.629 45.272 800.069 44.952C799.525 44.616 798.893 44.448 798.173 44.448C797.453 44.448 796.813 44.616 796.253 44.952C795.693 45.272 795.253 45.72 794.933 46.296C794.613 46.872 794.453 47.528 794.453 48.264C794.453 49.016 794.613 49.688 794.933 50.28C795.253 50.856 795.693 51.312 796.253 51.648C796.813 51.984 797.453 52.152 798.173 52.152ZM813.687 59.016C812.519 59.016 811.479 58.8 810.567 58.368C809.671 57.936 808.951 57.328 808.407 56.544L809.799 55.128C810.263 55.72 810.815 56.168 811.455 56.472C812.095 56.792 812.855 56.952 813.735 56.952C814.903 56.952 815.823 56.64 816.495 56.016C817.183 55.408 817.527 54.584 817.527 53.544V50.712L817.911 48.144L817.527 45.6V42.6H819.687V53.544C819.687 54.632 819.431 55.584 818.919 56.4C818.423 57.216 817.719 57.856 816.807 58.32C815.911 58.784 814.871 59.016 813.687 59.016ZM813.687 53.808C812.647 53.808 811.711 53.56 810.879 53.064C810.063 52.568 809.415 51.888 808.935 51.024C808.455 50.144 808.215 49.16 808.215 48.072C808.215 46.984 808.455 46.016 808.935 45.168C809.415 44.304 810.063 43.624 810.879 43.128C811.711 42.616 812.647 42.36 813.687 42.36C814.583 42.36 815.375 42.536 816.063 42.888C816.751 43.24 817.295 43.736 817.695 44.376C818.111 45 818.335 45.736 818.367 46.584V49.608C818.319 50.44 818.087 51.176 817.671 51.816C817.271 52.44 816.727 52.928 816.039 53.28C815.351 53.632 814.567 53.808 813.687 53.808ZM814.119 51.768C814.823 51.768 815.439 51.616 815.967 51.312C816.511 51.008 816.927 50.584 817.215 50.04C817.503 49.48 817.647 48.832 817.647 48.096C817.647 47.36 817.495 46.72 817.191 46.176C816.903 45.616 816.495 45.184 815.967 44.88C815.439 44.56 814.815 44.4 814.095 44.4C813.375 44.4 812.743 44.56 812.199 44.88C811.655 45.184 811.223 45.616 810.903 46.176C810.599 46.72 810.447 47.352 810.447 48.072C810.447 48.792 810.599 49.432 810.903 49.992C811.223 50.552 811.655 50.992 812.199 51.312C812.759 51.616 813.399 51.768 814.119 51.768ZM825.257 54V42.6H827.417V54H825.257ZM827.417 47.496L826.601 47.136C826.601 45.68 826.937 44.52 827.609 43.656C828.281 42.792 829.249 42.36 830.513 42.36C831.089 42.36 831.609 42.464 832.073 42.672C832.537 42.864 832.969 43.192 833.369 43.656L831.953 45.12C831.713 44.864 831.449 44.68 831.161 44.568C830.873 44.456 830.537 44.4 830.153 44.4C829.353 44.4 828.697 44.656 828.185 45.168C827.673 45.68 827.417 46.456 827.417 47.496ZM841.763 54.24C840.723 54.24 839.779 53.984 838.931 53.472C838.083 52.944 837.411 52.232 836.915 51.336C836.435 50.44 836.195 49.432 836.195 48.312C836.195 47.192 836.435 46.184 836.915 45.288C837.411 44.392 838.075 43.68 838.907 43.152C839.755 42.624 840.707 42.36 841.763 42.36C842.627 42.36 843.395 42.544 844.067 42.912C844.755 43.264 845.307 43.76 845.723 44.4C846.139 45.024 846.371 45.752 846.419 46.584V50.016C846.371 50.832 846.139 51.56 845.723 52.2C845.323 52.84 844.779 53.344 844.091 53.712C843.419 54.064 842.643 54.24 841.763 54.24ZM842.123 52.2C843.195 52.2 844.059 51.84 844.715 51.12C845.371 50.384 845.699 49.448 845.699 48.312C845.699 47.528 845.547 46.848 845.243 46.272C844.955 45.68 844.539 45.224 843.995 44.904C843.451 44.568 842.819 44.4 842.099 44.4C841.379 44.4 840.739 44.568 840.179 44.904C839.635 45.24 839.203 45.704 838.883 46.296C838.579 46.872 838.427 47.536 838.427 48.288C838.427 49.056 838.579 49.736 838.883 50.328C839.203 50.904 839.643 51.36 840.203 51.696C840.763 52.032 841.403 52.2 842.123 52.2ZM845.555 54V50.928L845.963 48.144L845.555 45.384V42.6H847.739V54H845.555ZM853.284 54V42.6H855.444V54H853.284ZM860.988 54V47.112C860.988 46.264 860.724 45.6 860.196 45.12C859.684 44.624 859.036 44.376 858.252 44.376C857.724 44.376 857.252 44.488 856.836 44.712C856.42 44.936 856.084 45.248 855.828 45.648C855.572 46.048 855.444 46.528 855.444 47.088L854.556 46.656C854.556 45.792 854.74 45.04 855.108 44.4C855.492 43.76 856.012 43.264 856.668 42.912C857.324 42.544 858.06 42.36 858.876 42.36C859.676 42.36 860.396 42.536 861.036 42.888C861.692 43.24 862.204 43.736 862.572 44.376C862.956 45.016 863.148 45.776 863.148 46.656V54H860.988ZM868.692 54V47.112C868.692 46.264 868.428 45.6 867.9 45.12C867.388 44.624 866.748 44.376 865.98 44.376C865.452 44.376 864.972 44.488 864.54 44.712C864.124 44.936 863.788 45.248 863.532 45.648C863.276 46.048 863.148 46.528 863.148 47.088L861.924 46.656C861.972 45.776 862.204 45.024 862.62 44.4C863.052 43.76 863.604 43.264 864.276 42.912C864.948 42.544 865.684 42.36 866.484 42.36C867.316 42.36 868.06 42.536 868.716 42.888C869.372 43.24 869.892 43.736 870.276 44.376C870.676 45.016 870.876 45.784 870.876 46.68V54H868.692Z" fill="white"/>
<path d="M1080.17 289V272.344H1082.43V289H1080.17ZM1096.44 289V282.352C1096.44 281.488 1096.17 280.776 1095.62 280.216C1095.08 279.656 1094.37 279.376 1093.51 279.376C1092.93 279.376 1092.42 279.504 1091.97 279.76C1091.53 280.016 1091.17 280.368 1090.92 280.816C1090.66 281.264 1090.53 281.776 1090.53 282.352L1089.65 281.848C1089.65 280.984 1089.84 280.216 1090.22 279.544C1090.61 278.872 1091.14 278.344 1091.83 277.96C1092.52 277.56 1093.29 277.36 1094.16 277.36C1095.02 277.36 1095.78 277.576 1096.44 278.008C1097.11 278.44 1097.64 279.008 1098.02 279.712C1098.41 280.4 1098.6 281.136 1098.6 281.92V289H1096.44ZM1088.37 289V277.6H1090.53V289H1088.37ZM1103.95 289V277.6H1106.11V289H1103.95ZM1105.03 275.32C1104.63 275.32 1104.3 275.192 1104.04 274.936C1103.79 274.664 1103.66 274.328 1103.66 273.928C1103.66 273.544 1103.79 273.224 1104.04 272.968C1104.3 272.696 1104.63 272.56 1105.03 272.56C1105.43 272.56 1105.75 272.696 1106.01 272.968C1106.27 273.224 1106.39 273.544 1106.39 273.928C1106.39 274.328 1106.27 274.664 1106.01 274.936C1105.75 275.192 1105.43 275.32 1105.03 275.32ZM1113.44 289V272.824H1115.6V289H1113.44ZM1110.63 279.568V277.6H1118.41V279.568H1110.63ZM1122.95 289V277.6H1125.11V289H1122.95ZM1124.03 275.32C1123.63 275.32 1123.3 275.192 1123.05 274.936C1122.79 274.664 1122.66 274.328 1122.66 273.928C1122.66 273.544 1122.79 273.224 1123.05 272.968C1123.3 272.696 1123.63 272.56 1124.03 272.56C1124.43 272.56 1124.76 272.696 1125.01 272.968C1125.27 273.224 1125.4 273.544 1125.4 273.928C1125.4 274.328 1125.27 274.664 1125.01 274.936C1124.76 275.192 1124.43 275.32 1124.03 275.32ZM1135.54 289.24C1134.5 289.24 1133.56 288.984 1132.71 288.472C1131.86 287.944 1131.19 287.232 1130.69 286.336C1130.21 285.44 1129.97 284.432 1129.97 283.312C1129.97 282.192 1130.21 281.184 1130.69 280.288C1131.19 279.392 1131.85 278.68 1132.68 278.152C1133.53 277.624 1134.48 277.36 1135.54 277.36C1136.4 277.36 1137.17 277.544 1137.84 277.912C1138.53 278.264 1139.08 278.76 1139.5 279.4C1139.92 280.024 1140.15 280.752 1140.2 281.584V285.016C1140.15 285.832 1139.92 286.56 1139.5 287.2C1139.1 287.84 1138.56 288.344 1137.87 288.712C1137.2 289.064 1136.42 289.24 1135.54 289.24ZM1135.9 287.2C1136.97 287.2 1137.84 286.84 1138.49 286.12C1139.15 285.384 1139.48 284.448 1139.48 283.312C1139.48 282.528 1139.32 281.848 1139.02 281.272C1138.73 280.68 1138.32 280.224 1137.77 279.904C1137.23 279.568 1136.6 279.4 1135.88 279.4C1135.16 279.4 1134.52 279.568 1133.96 279.904C1133.41 280.24 1132.98 280.704 1132.66 281.296C1132.36 281.872 1132.2 282.536 1132.2 283.288C1132.2 284.056 1132.36 284.736 1132.66 285.328C1132.98 285.904 1133.42 286.36 1133.98 286.696C1134.54 287.032 1135.18 287.2 1135.9 287.2ZM1139.33 289V285.928L1139.74 283.144L1139.33 280.384V277.6H1141.52V289H1139.33ZM1147.06 289V271.864H1149.22V289H1147.06ZM1066.98 319L1073.8 302.344H1075.43L1082.22 319H1079.77L1074.18 304.912H1075.02L1069.38 319H1066.98ZM1070.22 315.232V313.264H1078.98V315.232H1070.22ZM1086.96 319V307.6H1089.12V319H1086.96ZM1088.04 305.32C1087.64 305.32 1087.31 305.192 1087.05 304.936C1086.8 304.664 1086.67 304.328 1086.67 303.928C1086.67 303.544 1086.8 303.224 1087.05 302.968C1087.31 302.696 1087.64 302.56 1088.04 302.56C1088.44 302.56 1088.76 302.696 1089.02 302.968C1089.28 303.224 1089.4 303.544 1089.4 303.928C1089.4 304.328 1089.28 304.664 1089.02 304.936C1088.76 305.192 1088.44 305.32 1088.04 305.32ZM1094.7 319V307.6H1096.86V319H1094.7ZM1096.86 312.496L1096.04 312.136C1096.04 310.68 1096.38 309.52 1097.05 308.656C1097.72 307.792 1098.69 307.36 1099.96 307.36C1100.53 307.36 1101.05 307.464 1101.52 307.672C1101.98 307.864 1102.41 308.192 1102.81 308.656L1101.4 310.12C1101.16 309.864 1100.89 309.68 1100.6 309.568C1100.32 309.456 1099.98 309.4 1099.6 309.4C1098.8 309.4 1098.14 309.656 1097.63 310.168C1097.12 310.68 1096.86 311.456 1096.86 312.496ZM1111.18 319.24C1110.13 319.24 1109.18 318.984 1108.35 318.472C1107.52 317.944 1106.85 317.232 1106.36 316.336C1105.88 315.44 1105.64 314.432 1105.64 313.312C1105.64 312.192 1105.88 311.184 1106.36 310.288C1106.85 309.392 1107.52 308.68 1108.35 308.152C1109.18 307.624 1110.13 307.36 1111.18 307.36C1112.03 307.36 1112.8 307.544 1113.49 307.912C1114.17 308.264 1114.73 308.76 1115.14 309.4C1115.57 310.024 1115.81 310.752 1115.86 311.584V315.016C1115.81 315.832 1115.58 316.56 1115.17 317.2C1114.75 317.84 1114.2 318.344 1113.51 318.712C1112.82 319.064 1112.05 319.24 1111.18 319.24ZM1111.54 317.2C1112.26 317.2 1112.89 317.032 1113.41 316.696C1113.96 316.36 1114.38 315.904 1114.69 315.328C1114.99 314.736 1115.14 314.064 1115.14 313.312C1115.14 312.528 1114.98 311.848 1114.66 311.272C1114.36 310.696 1113.93 310.24 1113.39 309.904C1112.86 309.568 1112.24 309.4 1111.52 309.4C1110.8 309.4 1110.17 309.568 1109.62 309.904C1109.08 310.24 1108.65 310.704 1108.33 311.296C1108.02 311.872 1107.87 312.536 1107.87 313.288C1107.87 314.056 1108.02 314.736 1108.33 315.328C1108.65 315.904 1109.08 316.36 1109.62 316.696C1110.18 317.032 1110.82 317.2 1111.54 317.2ZM1117.18 319H1115V315.928L1115.41 313.144L1115 310.384V301.864H1117.18V319ZM1122.73 319V307.6H1124.89V319H1122.73ZM1124.89 312.496L1124.07 312.136C1124.07 310.68 1124.41 309.52 1125.08 308.656C1125.75 307.792 1126.72 307.36 1127.98 307.36C1128.56 307.36 1129.08 307.464 1129.54 307.672C1130.01 307.864 1130.44 308.192 1130.84 308.656L1129.42 310.12C1129.18 309.864 1128.92 309.68 1128.63 309.568C1128.34 309.456 1128.01 309.4 1127.62 309.4C1126.82 309.4 1126.17 309.656 1125.65 310.168C1125.14 310.68 1124.89 311.456 1124.89 312.496ZM1139.59 319.24C1138.47 319.24 1137.46 318.976 1136.57 318.448C1135.67 317.92 1134.96 317.208 1134.43 316.312C1133.9 315.4 1133.64 314.384 1133.64 313.264C1133.64 312.16 1133.9 311.168 1134.43 310.288C1134.96 309.392 1135.67 308.68 1136.57 308.152C1137.46 307.624 1138.47 307.36 1139.59 307.36C1140.7 307.36 1141.7 307.624 1142.59 308.152C1143.5 308.664 1144.22 309.368 1144.75 310.264C1145.28 311.16 1145.54 312.16 1145.54 313.264C1145.54 314.384 1145.28 315.4 1144.75 316.312C1144.22 317.208 1143.5 317.92 1142.59 318.448C1141.7 318.976 1140.7 319.24 1139.59 319.24ZM1139.59 317.152C1140.31 317.152 1140.95 316.984 1141.51 316.648C1142.07 316.312 1142.51 315.856 1142.83 315.28C1143.15 314.688 1143.31 314.016 1143.31 313.264C1143.31 312.528 1143.14 311.872 1142.81 311.296C1142.49 310.72 1142.05 310.272 1141.49 309.952C1140.94 309.616 1140.31 309.448 1139.59 309.448C1138.87 309.448 1138.23 309.616 1137.67 309.952C1137.11 310.272 1136.67 310.72 1136.35 311.296C1136.03 311.872 1135.87 312.528 1135.87 313.264C1135.87 314.016 1136.03 314.688 1136.35 315.28C1136.67 315.856 1137.11 316.312 1137.67 316.648C1138.23 316.984 1138.87 317.152 1139.59 317.152ZM1156.38 319.24C1155.51 319.24 1154.73 319.064 1154.03 318.712C1153.34 318.344 1152.79 317.84 1152.37 317.2C1151.95 316.56 1151.72 315.832 1151.67 315.016V311.584C1151.72 310.752 1151.95 310.024 1152.37 309.4C1152.8 308.76 1153.36 308.264 1154.05 307.912C1154.75 307.544 1155.53 307.36 1156.38 307.36C1157.42 307.36 1158.35 307.624 1159.19 308.152C1160.03 308.68 1160.7 309.392 1161.18 310.288C1161.66 311.184 1161.9 312.192 1161.9 313.312C1161.9 314.432 1161.66 315.44 1161.18 316.336C1160.7 317.232 1160.03 317.944 1159.19 318.472C1158.35 318.984 1157.42 319.24 1156.38 319.24ZM1156.02 317.2C1156.74 317.2 1157.37 317.032 1157.91 316.696C1158.46 316.36 1158.89 315.904 1159.21 315.328C1159.53 314.736 1159.69 314.056 1159.69 313.288C1159.69 312.536 1159.53 311.864 1159.21 311.272C1158.89 310.68 1158.46 310.224 1157.91 309.904C1157.37 309.568 1156.75 309.4 1156.04 309.4C1155.32 309.4 1154.69 309.568 1154.15 309.904C1153.6 310.224 1153.18 310.68 1152.87 311.272C1152.57 311.864 1152.42 312.544 1152.42 313.312C1152.42 314.064 1152.56 314.736 1152.85 315.328C1153.15 315.904 1153.58 316.36 1154.12 316.696C1154.68 317.032 1155.31 317.2 1156.02 317.2ZM1150.38 323.776V307.6H1152.54V310.6L1152.13 313.36L1152.54 316.144V323.776H1150.38Z" fill="white"/>
<path d="M1363.21 24V7.344H1364.79L1371.85 18.936H1370.77L1377.83 7.344H1379.41V24H1377.15V11.304L1377.68 11.448L1372.11 20.592H1370.53L1364.96 11.448L1365.47 11.304V24H1363.21ZM1390.21 24.24C1389.17 24.24 1388.22 23.984 1387.37 23.472C1386.53 22.944 1385.85 22.232 1385.36 21.336C1384.88 20.44 1384.64 19.432 1384.64 18.312C1384.64 17.192 1384.88 16.184 1385.36 15.288C1385.85 14.392 1386.52 13.68 1387.35 13.152C1388.2 12.624 1389.15 12.36 1390.21 12.36C1391.07 12.36 1391.84 12.544 1392.51 12.912C1393.2 13.264 1393.75 13.76 1394.17 14.4C1394.58 15.024 1394.81 15.752 1394.86 16.584V20.016C1394.81 20.832 1394.58 21.56 1394.17 22.2C1393.77 22.84 1393.22 23.344 1392.53 23.712C1391.86 24.064 1391.09 24.24 1390.21 24.24ZM1390.57 22.2C1391.64 22.2 1392.5 21.84 1393.16 21.12C1393.81 20.384 1394.14 19.448 1394.14 18.312C1394.14 17.528 1393.99 16.848 1393.69 16.272C1393.4 15.68 1392.98 15.224 1392.44 14.904C1391.89 14.568 1391.26 14.4 1390.54 14.4C1389.82 14.4 1389.18 14.568 1388.62 14.904C1388.08 15.24 1387.65 15.704 1387.33 16.296C1387.02 16.872 1386.87 17.536 1386.87 18.288C1386.87 19.056 1387.02 19.736 1387.33 20.328C1387.65 20.904 1388.09 21.36 1388.65 21.696C1389.21 22.032 1389.85 22.2 1390.57 22.2ZM1394 24V20.928L1394.41 18.144L1394 15.384V12.6H1396.18V24H1394ZM1401.75 24V12.6H1403.91V24H1401.75ZM1402.83 10.32C1402.43 10.32 1402.1 10.192 1401.85 9.936C1401.59 9.664 1401.46 9.328 1401.46 8.928C1401.46 8.544 1401.59 8.224 1401.85 7.968C1402.1 7.696 1402.43 7.56 1402.83 7.56C1403.23 7.56 1403.56 7.696 1403.81 7.968C1404.07 8.224 1404.2 8.544 1404.2 8.928C1404.2 9.328 1404.07 9.664 1403.81 9.936C1403.56 10.192 1403.23 10.32 1402.83 10.32ZM1417.56 24V17.352C1417.56 16.488 1417.29 15.776 1416.74 15.216C1416.2 14.656 1415.49 14.376 1414.63 14.376C1414.05 14.376 1413.54 14.504 1413.09 14.76C1412.65 15.016 1412.29 15.368 1412.04 15.816C1411.78 16.264 1411.65 16.776 1411.65 17.352L1410.77 16.848C1410.77 15.984 1410.96 15.216 1411.34 14.544C1411.73 13.872 1412.26 13.344 1412.95 12.96C1413.64 12.56 1414.41 12.36 1415.28 12.36C1416.14 12.36 1416.9 12.576 1417.56 13.008C1418.23 13.44 1418.76 14.008 1419.14 14.712C1419.53 15.4 1419.72 16.136 1419.72 16.92V24H1417.56ZM1409.49 24V12.6H1411.65V24H1409.49ZM1433.11 24V17.352C1433.11 16.488 1432.83 15.776 1432.29 15.216C1431.75 14.656 1431.04 14.376 1430.18 14.376C1429.6 14.376 1429.09 14.504 1428.64 14.76C1428.19 15.016 1427.84 15.368 1427.59 15.816C1427.33 16.264 1427.2 16.776 1427.2 17.352L1426.31 16.848C1426.31 15.984 1426.51 15.216 1426.89 14.544C1427.27 13.872 1427.81 13.344 1428.5 12.96C1429.19 12.56 1429.96 12.36 1430.83 12.36C1431.69 12.36 1432.45 12.576 1433.11 13.008C1433.78 13.44 1434.31 14.008 1434.69 14.712C1435.07 15.4 1435.27 16.136 1435.27 16.92V24H1433.11ZM1425.04 24V12.6H1427.2V24H1425.04ZM1445.87 24.24C1444.74 24.24 1443.71 23.984 1442.8 23.472C1441.89 22.944 1441.17 22.232 1440.64 21.336C1440.11 20.44 1439.85 19.424 1439.85 18.288C1439.85 17.168 1440.1 16.16 1440.62 15.264C1441.14 14.368 1441.85 13.664 1442.73 13.152C1443.62 12.624 1444.62 12.36 1445.73 12.36C1446.78 12.36 1447.71 12.6 1448.51 13.08C1449.33 13.56 1449.96 14.224 1450.41 15.072C1450.87 15.92 1451.1 16.88 1451.1 17.952C1451.1 18.112 1451.1 18.288 1451.08 18.48C1451.06 18.656 1451.03 18.864 1450.98 19.104H1441.36V17.304H1449.83L1449.04 18C1449.04 17.232 1448.9 16.584 1448.63 16.056C1448.36 15.512 1447.98 15.096 1447.48 14.808C1446.98 14.504 1446.38 14.352 1445.68 14.352C1444.94 14.352 1444.3 14.512 1443.74 14.832C1443.18 15.152 1442.74 15.6 1442.44 16.176C1442.14 16.752 1441.98 17.432 1441.98 18.216C1441.98 19.016 1442.14 19.72 1442.46 20.328C1442.78 20.92 1443.24 21.384 1443.83 21.72C1444.42 22.04 1445.1 22.2 1445.87 22.2C1446.51 22.2 1447.1 22.088 1447.62 21.864C1448.17 21.64 1448.63 21.304 1449.02 20.856L1450.41 22.272C1449.86 22.912 1449.19 23.4 1448.39 23.736C1447.61 24.072 1446.77 24.24 1445.87 24.24ZM1457.26 24V7.824H1459.42V24H1457.26ZM1454.45 14.568V12.6H1462.23V14.568H1454.45ZM1369.4 54V37.344H1371.66V54H1369.4ZM1370.94 54V51.936H1379.87V54H1370.94ZM1389.02 54.24C1387.98 54.24 1387.03 53.984 1386.18 53.472C1385.34 52.944 1384.66 52.232 1384.17 51.336C1383.69 50.44 1383.45 49.432 1383.45 48.312C1383.45 47.192 1383.69 46.184 1384.17 45.288C1384.66 44.392 1385.33 43.68 1386.16 43.152C1387.01 42.624 1387.96 42.36 1389.02 42.36C1389.88 42.36 1390.65 42.544 1391.32 42.912C1392.01 43.264 1392.56 43.76 1392.98 44.4C1393.39 45.024 1393.62 45.752 1393.67 46.584V50.016C1393.62 50.832 1393.39 51.56 1392.98 52.2C1392.58 52.84 1392.03 53.344 1391.34 53.712C1390.67 54.064 1389.9 54.24 1389.02 54.24ZM1389.38 52.2C1390.45 52.2 1391.31 51.84 1391.97 51.12C1392.62 50.384 1392.95 49.448 1392.95 48.312C1392.95 47.528 1392.8 46.848 1392.5 46.272C1392.21 45.68 1391.79 45.224 1391.25 44.904C1390.7 44.568 1390.07 44.4 1389.35 44.4C1388.63 44.4 1387.99 44.568 1387.43 44.904C1386.89 45.24 1386.46 45.704 1386.14 46.296C1385.83 46.872 1385.68 47.536 1385.68 48.288C1385.68 49.056 1385.83 49.736 1386.14 50.328C1386.46 50.904 1386.9 51.36 1387.46 51.696C1388.02 52.032 1388.66 52.2 1389.38 52.2ZM1392.81 54V50.928L1393.22 48.144L1392.81 45.384V42.6H1394.99V54H1392.81ZM1405.12 54.24C1404.19 54.24 1403.35 54.032 1402.6 53.616C1401.86 53.184 1401.29 52.592 1400.87 51.84C1400.46 51.088 1400.25 50.216 1400.25 49.224V42.6H1402.41V49.128C1402.41 49.752 1402.51 50.296 1402.72 50.76C1402.94 51.208 1403.26 51.552 1403.68 51.792C1404.1 52.032 1404.58 52.152 1405.14 52.152C1405.99 52.152 1406.66 51.888 1407.14 51.36C1407.62 50.816 1407.86 50.072 1407.86 49.128V42.6H1410.02V49.224C1410.02 50.216 1409.81 51.088 1409.39 51.84C1408.98 52.592 1408.4 53.184 1407.66 53.616C1406.94 54.032 1406.1 54.24 1405.12 54.24ZM1423.38 54V47.352C1423.38 46.488 1423.1 45.776 1422.56 45.216C1422.02 44.656 1421.31 44.376 1420.45 44.376C1419.87 44.376 1419.36 44.504 1418.91 44.76C1418.46 45.016 1418.11 45.368 1417.86 45.816C1417.6 46.264 1417.47 46.776 1417.47 47.352L1416.58 46.848C1416.58 45.984 1416.78 45.216 1417.16 44.544C1417.54 43.872 1418.08 43.344 1418.77 42.96C1419.46 42.56 1420.23 42.36 1421.1 42.36C1421.96 42.36 1422.72 42.576 1423.38 43.008C1424.05 43.44 1424.58 44.008 1424.96 44.712C1425.34 45.4 1425.54 46.136 1425.54 46.92V54H1423.38ZM1415.31 54V42.6H1417.47V54H1415.31ZM1436.07 54.24C1434.95 54.24 1433.93 53.976 1433.02 53.448C1432.12 52.92 1431.41 52.208 1430.88 51.312C1430.37 50.4 1430.12 49.392 1430.12 48.288C1430.12 47.168 1430.37 46.16 1430.88 45.264C1431.41 44.368 1432.12 43.664 1433.02 43.152C1433.93 42.624 1434.95 42.36 1436.07 42.36C1436.95 42.36 1437.76 42.528 1438.52 42.864C1439.27 43.184 1439.92 43.656 1440.46 44.28L1439.02 45.72C1438.67 45.304 1438.24 44.992 1437.72 44.784C1437.23 44.56 1436.68 44.448 1436.07 44.448C1435.35 44.448 1434.71 44.616 1434.15 44.952C1433.59 45.272 1433.15 45.72 1432.83 46.296C1432.51 46.872 1432.35 47.536 1432.35 48.288C1432.35 49.04 1432.51 49.704 1432.83 50.28C1433.15 50.856 1433.59 51.312 1434.15 51.648C1434.71 51.984 1435.35 52.152 1436.07 52.152C1436.68 52.152 1437.23 52.048 1437.72 51.84C1438.24 51.616 1438.68 51.296 1439.04 50.88L1440.46 52.32C1439.93 52.928 1439.28 53.4 1438.52 53.736C1437.76 54.072 1436.95 54.24 1436.07 54.24ZM1453.07 54V47.352C1453.07 46.488 1452.79 45.776 1452.25 45.216C1451.71 44.656 1451 44.376 1450.14 44.376C1449.56 44.376 1449.05 44.504 1448.6 44.76C1448.15 45.016 1447.8 45.368 1447.55 45.816C1447.29 46.264 1447.16 46.776 1447.16 47.352L1446.27 46.848C1446.27 45.984 1446.47 45.216 1446.85 44.544C1447.23 43.872 1447.77 43.344 1448.46 42.96C1449.15 42.56 1449.92 42.36 1450.79 42.36C1451.65 42.36 1452.41 42.552 1453.07 42.936C1453.74 43.32 1454.27 43.856 1454.65 44.544C1455.03 45.232 1455.23 46.024 1455.23 46.92V54H1453.07ZM1445 54V36.864H1447.16V54H1445Z" fill="white"/>
<defs>
<radialGradient id="paint0_radial_260_10" cx="0" cy="0" r="1" gradientUnits="userSpaceOnUse" gradientTransform="translate(216 163) rotate(90) scale(59)">
<stop stop-color="#0057FF" stop-opacity="0.44"/>
<stop offset="1" stop-color="#0057FF" stop-opacity="0"/>
</radialGradient>
<radialGradient id="paint1_radial_260_10" cx="0" cy="0" r="1" gradientUnits="userSpaceOnUse" gradientTransform="translate(514 163) rotate(90) scale(59)">
<stop stop-color="#0057FF" stop-opacity="0.44"/>
<stop offset="1" stop-color="#0057FF" stop-opacity="0"/>
</radialGradient>
<radialGradient id="paint2_radial_260_10" cx="0" cy="0" r="1" gradientUnits="userSpaceOnUse" gradientTransform="translate(817 163) rotate(90) scale(59)">
<stop stop-color="#0057FF" stop-opacity="0.44"/>
<stop offset="1" stop-color="#0057FF" stop-opacity="0"/>
</radialGradient>
<radialGradient id="paint3_radial_260_10" cx="0" cy="0" r="1" gradientUnits="userSpaceOnUse" gradientTransform="translate(1105 163) rotate(90) scale(59)">
<stop stop-color="#0057FF" stop-opacity="0.44"/>
<stop offset="1" stop-color="#0057FF" stop-opacity="0"/>
</radialGradient>
<radialGradient id="paint4_radial_260_10" cx="0" cy="0" r="1" gradientUnits="userSpaceOnUse" gradientTransform="translate(1402 163) rotate(90) scale(59)">
<stop stop-color="#0057FF" stop-opacity="0.44"/>
<stop offset="1" stop-color="#0057FF" stop-opacity="0"/>
</radialGradient>
</defs>
</svg>
