<svg width="209" height="185" viewBox="0 0 209 185" fill="none" xmlns="http://www.w3.org/2000/svg">
<g filter="url(#filter0_b_153_1877)">
<rect width="209" height="184" fill="#7622FF" fill-opacity="0.2"/>
</g>
<path d="M4 27L12 37" stroke="#7622FF" stroke-width="2" stroke-linecap="round"/>
<path d="M29 27L36 37" stroke="#7622FF" stroke-width="2" stroke-linecap="round"/>
<path d="M54 27L60 37" stroke="#7622FF" stroke-width="2" stroke-linecap="round"/>
<path d="M78 27L83 37" stroke="#7622FF" stroke-width="2" stroke-linecap="round"/>
<path d="M103 27L106 37" stroke="#7622FF" stroke-width="2" stroke-linecap="round"/>
<path d="M127.808 26.0034L128.192 36.9967" stroke="#7622FF" stroke-width="2" stroke-linecap="round"/>
<path d="M154 26L152 37" stroke="#7622FF" stroke-width="2" stroke-linecap="round"/>
<path d="M178 26L175 37" stroke="#7622FF" stroke-width="2" stroke-linecap="round"/>
<path d="M203 26L198 37" stroke="#7622FF" stroke-width="2" stroke-linecap="round"/>
<path d="M3.41992 47.5244L12.579 56.4749" stroke="#7622FF" stroke-width="2" stroke-linecap="round"/>
<path d="M28.417 47.4639L36.5835 56.5362" stroke="#7622FF" stroke-width="2" stroke-linecap="round"/>
<path d="M53.4932 47.3413L60.5056 56.6594" stroke="#7622FF" stroke-width="2" stroke-linecap="round"/>
<path d="M78 47L83 57" stroke="#7622FF" stroke-width="2" stroke-linecap="round"/>
<path d="M103 47L106 57" stroke="#7622FF" stroke-width="2" stroke-linecap="round"/>
<path d="M127.521 46.0215L128.479 56.9796" stroke="#7622FF" stroke-width="2" stroke-linecap="round"/>
<path d="M154 46L152 57" stroke="#7622FF" stroke-width="2" stroke-linecap="round"/>
<path d="M178 46L175 57" stroke="#7622FF" stroke-width="2" stroke-linecap="round"/>
<path d="M203 46L198 57" stroke="#7622FF" stroke-width="2" stroke-linecap="round"/>
<path d="M4 5L12 15" stroke="#7622FF" stroke-width="2" stroke-linecap="round"/>
<path d="M29 5L36 15" stroke="#7622FF" stroke-width="2" stroke-linecap="round"/>
<path d="M54 5L60 15" stroke="#7622FF" stroke-width="2" stroke-linecap="round"/>
<path d="M78 5L83 15" stroke="#7622FF" stroke-width="2" stroke-linecap="round"/>
<path d="M103 5L106 15" stroke="#7622FF" stroke-width="2" stroke-linecap="round"/>
<path d="M129 4V15" stroke="#7622FF" stroke-width="2" stroke-linecap="round"/>
<path d="M154 4L152 15" stroke="#7622FF" stroke-width="2" stroke-linecap="round"/>
<path d="M178 4L175 15" stroke="#7622FF" stroke-width="2" stroke-linecap="round"/>
<path d="M203 4L198 15" stroke="#7622FF" stroke-width="2" stroke-linecap="round"/>
<path d="M3.04785 68.9404L12.9521 77.0586" stroke="#7622FF" stroke-width="2" stroke-linecap="round"/>
<path d="M28.2612 68.6094L36.7394 77.3912" stroke="#7622FF" stroke-width="2" stroke-linecap="round"/>
<path d="M53.1006 68.665L60.8984 77.3365" stroke="#7622FF" stroke-width="2" stroke-linecap="round"/>
<path d="M77.7417 68.1377L83.2582 77.8623" stroke="#7622FF" stroke-width="2" stroke-linecap="round"/>
<path d="M103 68L106 78" stroke="#7622FF" stroke-width="2" stroke-linecap="round"/>
<path d="M127.33 67.042L128.67 77.96" stroke="#7622FF" stroke-width="2" stroke-linecap="round"/>
<path d="M154 67L152 78" stroke="#7622FF" stroke-width="2" stroke-linecap="round"/>
<path d="M179.951 110.966L173.049 120.041" stroke="#7622FF" stroke-width="2" stroke-linecap="round"/>
<path d="M205.157 111.653L195.841 119.348" stroke="#7622FF" stroke-width="2" stroke-linecap="round"/>
<path d="M2.71289 90.3887L13.287 97.6127" stroke="#7622FF" stroke-width="2" stroke-linecap="round"/>
<path d="M27.6255 90.3257L37.3731 97.6731" stroke="#7622FF" stroke-width="2" stroke-linecap="round"/>
<path d="M52.6006 90.1719L61.3971 97.8283" stroke="#7622FF" stroke-width="2" stroke-linecap="round"/>
<path d="M77.248 89.4526L83.7508 98.5473" stroke="#7622FF" stroke-width="2" stroke-linecap="round"/>
<path d="M1.96973 181.152L14.0295 176.844" stroke="#7622FF" stroke-width="2" stroke-linecap="round"/>
<path d="M26.6631 180.783L38.3368 177.216" stroke="#7622FF" stroke-width="2" stroke-linecap="round"/>
<path d="M51.3169 180.309L62.6816 177.692" stroke="#7622FF" stroke-width="2" stroke-linecap="round"/>
<path d="M74.9077 178.959L86.0877 179.044" stroke="#7622FF" stroke-width="2" stroke-linecap="round"/>
<path d="M1.61572 157.513L14.3852 158.482" stroke="#7622FF" stroke-width="2" stroke-linecap="round"/>
<path d="M26.4424 157.256L38.5577 158.745" stroke="#7622FF" stroke-width="2" stroke-linecap="round"/>
<path d="M51.2759 156.884L62.7221 159.116" stroke="#7622FF" stroke-width="2" stroke-linecap="round"/>
<path d="M75.4087 155.689L85.5876 160.314" stroke="#7622FF" stroke-width="2" stroke-linecap="round"/>
<path d="M1.79639 134.412L14.2036 137.584" stroke="#7622FF" stroke-width="2" stroke-linecap="round"/>
<path d="M26.6636 134.214L38.3363 137.785" stroke="#7622FF" stroke-width="2" stroke-linecap="round"/>
<path d="M51.5566 133.907L62.4413 138.093" stroke="#7622FF" stroke-width="2" stroke-linecap="round"/>
<path d="M75.8877 132.84L85.1089 139.162" stroke="#7622FF" stroke-width="2" stroke-linecap="round"/>
<path d="M2.21289 113.258L13.787 118.739" stroke="#7622FF" stroke-width="2" stroke-linecap="round"/>
<path d="M27.1113 113.134L37.8883 118.866" stroke="#7622FF" stroke-width="2" stroke-linecap="round"/>
<path d="M52.0562 112.906L61.9421 119.092" stroke="#7622FF" stroke-width="2" stroke-linecap="round"/>
<path d="M76.5752 112.018L84.4206 119.983" stroke="#7622FF" stroke-width="2" stroke-linecap="round"/>
<path d="M102.237 89.2969L106.764 98.7045" stroke="#7622FF" stroke-width="2" stroke-linecap="round"/>
<path d="M101.681 110.608L107.321 119.394" stroke="#7622FF" stroke-width="2" stroke-linecap="round"/>
<path d="M101.028 132.103L107.973 139.898" stroke="#7622FF" stroke-width="2" stroke-linecap="round"/>
<path d="M99.5444 156.361L109.457 159.64" stroke="#7622FF" stroke-width="2" stroke-linecap="round"/>
<path d="M99.3887 179.06L109.612 176.943" stroke="#7622FF" stroke-width="2" stroke-linecap="round"/>
<path d="M127.331 88.043L128.671 98.961" stroke="#7622FF" stroke-width="2" stroke-linecap="round"/>
<path d="M127.521 111.021L128.479 121.98" stroke="#7622FF" stroke-width="2" stroke-linecap="round"/>
<path d="M127.33 132.042L128.67 142.96" stroke="#7622FF" stroke-width="2" stroke-linecap="round"/>
<path d="M127.331 153.043L128.671 163.961" stroke="#7622FF" stroke-width="2" stroke-linecap="round"/>
<path d="M154 88L152 99" stroke="#7622FF" stroke-width="2" stroke-linecap="round"/>
<path d="M153.848 110.226L150.152 120.778" stroke="#7622FF" stroke-width="2" stroke-linecap="round"/>
<path d="M153.848 131.226L150.152 141.778" stroke="#7622FF" stroke-width="2" stroke-linecap="round"/>
<path d="M153.848 152.226L150.152 162.778" stroke="#7622FF" stroke-width="2" stroke-linecap="round"/>
<path d="M180.548 132.488L172.45 140.515" stroke="#7622FF" stroke-width="2" stroke-linecap="round"/>
<path d="M205.536 133.161L195.466 139.84" stroke="#7622FF" stroke-width="2" stroke-linecap="round"/>
<path d="M182.171 178.931L170.827 180.072" stroke="#7622FF" stroke-width="2" stroke-linecap="round"/>
<path d="M206.516 180.074L194.487 178.928" stroke="#7622FF" stroke-width="2" stroke-linecap="round"/>
<path d="M181.347 154.501L171.651 160.5" stroke="#7622FF" stroke-width="2" stroke-linecap="round"/>
<path d="M206.158 155.38L194.844 159.623" stroke="#7622FF" stroke-width="2" stroke-linecap="round"/>
<path d="M178.474 67.156L174.527 77.8527" stroke="#7622FF" stroke-width="2" stroke-linecap="round"/>
<path d="M203.829 67.4599L197.169 77.5423" stroke="#7622FF" stroke-width="2" stroke-linecap="round"/>
<path d="M179.198 88.4815L173.8 98.5247" stroke="#7622FF" stroke-width="2" stroke-linecap="round"/>
<path d="M204.339 88.8371L196.663 98.1682" stroke="#7622FF" stroke-width="2" stroke-linecap="round"/>
<defs>
<filter id="filter0_b_153_1877" x="-10" y="-10" width="229" height="204" filterUnits="userSpaceOnUse" color-interpolation-filters="sRGB">
<feFlood flood-opacity="0" result="BackgroundImageFix"/>
<feGaussianBlur in="BackgroundImageFix" stdDeviation="5"/>
<feComposite in2="SourceAlpha" operator="in" result="effect1_backgroundBlur_153_1877"/>
<feBlend mode="normal" in="SourceGraphic" in2="effect1_backgroundBlur_153_1877" result="shape"/>
</filter>
</defs>
</svg>
