<svg width="308" height="625" viewBox="0 0 308 625" fill="none" xmlns="http://www.w3.org/2000/svg">
<mask id="path-1-outside-1_118_984" maskUnits="userSpaceOnUse" x="108" y="9.99999" width="115" height="614" fill="black">
<rect fill="white" x="108" y="9.99999" width="115" height="614"/>
<path d="M109 30.08L128.52 30.08L128.52 56.64C128.52 61.5467 129.96 65.3867 132.84 68.16C135.72 70.9333 139.24 72.32 143.4 72.32C146.28 72.32 148.84 71.68 151.08 70.4C153.32 69.12 155.08 67.3067 156.36 64.96C157.64 62.72 158.28 59.9467 158.28 56.64L158.28 30.08L177.32 30.08L177.32 54.56C177.32 58.72 178.333 62.08 180.36 64.64C182.493 67.2 185.693 68.48 189.96 68.48C194.12 68.48 197.213 67.2 199.24 64.64C201.373 62.08 202.44 58.72 202.44 54.56L202.44 30.08L221.96 30.08L221.96 59.36C221.96 66.6133 220.627 72.7467 217.96 77.76C215.293 82.88 211.72 86.7733 207.24 89.44C202.76 92.1067 197.8 93.44 192.36 93.44C185.427 93.44 179.56 91.2 174.76 86.72C169.96 82.24 166.653 75.6267 164.84 66.88L173.32 67.52C171.507 77.0133 167.827 84.32 162.28 89.44C156.733 94.6667 149.907 97.28 141.8 97.28C135.613 97.28 130.013 95.7333 125 92.64C120.093 89.6533 116.2 85.28 113.32 79.52C110.44 73.8667 109 67.04 109 59.04L109 30.08ZM109 10.88L221.96 10.88L221.96 35.68L109 35.68L109 10.88ZM109 113.38L221.96 113.38L221.96 138.5L109 138.5L109 113.38ZM109 187.935L220.36 187.935L220.36 213.055L109 213.055L109 187.935ZM200.04 152.575L221.96 152.575L221.96 248.415L200.04 248.415L200.04 152.575ZM109 293.58L221.96 250.06L221.96 276.94L130.6 310.06L130.6 299.02L221.96 332.62L221.96 359.18L109 315.18L109 293.58ZM109 372.442L221.96 372.442L221.96 397.563L109 397.562L109 372.442ZM109 454.517L221.96 410.997L221.96 437.878L130.6 470.998L130.6 459.957L221.96 493.557L221.96 520.118L109 476.117L109 454.517ZM109 510.525L221.96 555.325L221.96 578.045L109 622.365L109 595.805L202.76 561.885L202.76 571.005L109 536.605L109 510.525ZM129.48 535.965L149.96 535.965L149.96 597.565L129.48 597.565L129.48 535.965Z"/>
</mask>
<path d="M109 30.08L109 29.58L108.5 29.58L108.5 30.08L109 30.08ZM128.52 30.08L129.02 30.08L129.02 29.58L128.52 29.58L128.52 30.08ZM132.84 68.16L132.493 68.5202L132.84 68.16ZM156.36 64.96L155.926 64.7119L155.921 64.7206L156.36 64.96ZM158.28 30.08L158.28 29.58L157.78 29.58L157.78 30.08L158.28 30.08ZM177.32 30.08L177.82 30.08L177.82 29.58L177.32 29.58L177.32 30.08ZM180.36 64.64L179.968 64.9505L179.976 64.9601L180.36 64.64ZM199.24 64.64L198.856 64.3198L198.848 64.3296L199.24 64.64ZM202.44 30.08L202.44 29.58L201.94 29.58L201.94 30.08L202.44 30.08ZM221.96 30.08L222.46 30.08L222.46 29.58L221.96 29.58L221.96 30.08ZM217.96 77.76L217.519 77.5252L217.517 77.529L217.96 77.76ZM207.24 89.44L206.984 89.0104L207.24 89.44ZM174.76 86.72L174.419 87.0855L174.76 86.72ZM164.84 66.88L164.878 66.3814L164.216 66.3315L164.35 66.9815L164.84 66.88ZM173.32 67.52L173.811 67.6138L173.916 67.0636L173.358 67.0214L173.32 67.52ZM162.28 89.44L161.941 89.0726L161.937 89.0761L162.28 89.44ZM125 92.64L125.263 92.2145L125.26 92.2129L125 92.64ZM113.32 79.52L113.767 79.2964L113.766 79.293L113.32 79.52ZM109 10.88L109 10.38L108.5 10.38L108.5 10.88L109 10.88ZM221.96 10.88L222.46 10.88L222.46 10.38L221.96 10.38L221.96 10.88ZM221.96 35.68L221.96 36.18L222.46 36.18L222.46 35.68L221.96 35.68ZM109 35.68L108.5 35.68L108.5 36.18L109 36.18L109 35.68ZM109 30.58L128.52 30.58L128.52 29.58L109 29.58L109 30.58ZM128.02 30.08L128.02 56.64L129.02 56.64L129.02 30.08L128.02 30.08ZM128.02 56.64C128.02 61.6495 129.494 65.6319 132.493 68.5202L133.187 67.7998C130.426 65.1414 129.02 61.4438 129.02 56.64L128.02 56.64ZM132.493 68.5202C135.47 71.3872 139.116 72.82 143.4 72.82L143.4 71.82C139.364 71.82 135.97 70.4795 133.187 67.7998L132.493 68.5202ZM143.4 72.82C146.357 72.82 149.004 72.1622 151.328 70.8341L150.832 69.9659C148.676 71.1978 146.203 71.82 143.4 71.82L143.4 72.82ZM151.328 70.8341C153.652 69.5065 155.476 67.6243 156.799 65.1994L155.921 64.7206C154.684 66.989 152.988 68.7336 150.832 69.9659L151.328 70.8341ZM156.794 65.2081C158.128 62.8741 158.78 60.0097 158.78 56.64L157.78 56.64C157.78 59.8836 157.152 62.5659 155.926 64.7119L156.794 65.2081ZM158.78 56.64L158.78 30.08L157.78 30.08L157.78 56.64L158.78 56.64ZM158.28 30.58L177.32 30.58L177.32 29.58L158.28 29.58L158.28 30.58ZM176.82 30.08L176.82 54.56L177.82 54.56L177.82 30.08L176.82 30.08ZM176.82 54.56C176.82 58.8013 177.854 62.2802 179.968 64.9504L180.752 64.3296C178.813 61.8798 177.82 58.6387 177.82 54.56L176.82 54.56ZM179.976 64.9601C182.23 67.6646 185.59 68.98 189.96 68.98L189.96 67.98C185.797 67.98 182.757 66.7354 180.744 64.3199L179.976 64.9601ZM189.96 68.98C194.227 68.98 197.485 67.6619 199.632 64.9504L198.848 64.3296C196.941 66.7381 194.013 67.98 189.96 67.98L189.96 68.98ZM199.624 64.9601C201.849 62.2897 202.94 58.8071 202.94 54.56L201.94 54.56C201.94 58.6329 200.897 61.8703 198.856 64.3199L199.624 64.9601ZM202.94 54.56L202.94 30.08L201.94 30.08L201.94 54.56L202.94 54.56ZM202.44 30.58L221.96 30.58L221.96 29.58L202.44 29.58L202.44 30.58ZM221.46 30.08L221.46 59.36L222.46 59.36L222.46 30.08L221.46 30.08ZM221.46 59.36C221.46 66.5536 220.138 72.6014 217.519 77.5252L218.401 77.9948C221.116 72.8919 222.46 66.6731 222.46 59.36L221.46 59.36ZM217.517 77.529C214.888 82.5758 211.376 86.3962 206.984 89.0104L207.496 89.8697C212.064 87.1505 215.699 83.1842 218.403 77.991L217.517 77.529ZM206.984 89.0104C202.585 91.6289 197.714 92.94 192.36 92.94L192.36 93.94C197.886 93.94 202.935 92.5844 207.496 89.8697L206.984 89.0104ZM192.36 92.94C185.546 92.94 179.803 90.7429 175.101 86.3545L174.419 87.0855C179.317 91.6571 185.308 93.94 192.36 93.94L192.36 92.94ZM175.101 86.3545C170.4 81.9664 167.129 75.4597 165.33 66.7785L164.35 66.9815C166.177 75.7937 169.52 82.5136 174.419 87.0855L175.101 86.3545ZM164.802 67.3786L173.282 68.0186L173.358 67.0214L164.878 66.3814L164.802 67.3786ZM172.829 67.4262C171.03 76.844 167.389 84.0433 161.941 89.0726L162.619 89.8074C168.264 84.5967 171.983 77.1826 173.811 67.6138L172.829 67.4262ZM161.937 89.0761C156.489 94.2094 149.788 96.78 141.8 96.78L141.8 97.78C150.025 97.78 156.977 95.1239 162.623 89.8039L161.937 89.0761ZM141.8 96.78C135.701 96.78 130.193 95.2566 125.263 92.2145L124.737 93.0655C129.834 96.21 135.525 97.78 141.8 97.78L141.8 96.78ZM125.26 92.2129C120.443 89.2809 116.61 84.9828 113.767 79.2964L112.873 79.7436C115.79 85.5772 119.744 90.0258 124.74 93.0671L125.26 92.2129ZM113.766 79.293C110.929 73.7259 109.5 66.9812 109.5 59.04L108.5 59.04C108.5 67.0988 109.951 74.0074 112.874 79.747L113.766 79.293ZM109.5 59.04L109.5 30.08L108.5 30.08L108.5 59.04L109.5 59.04ZM109 11.38L221.96 11.38L221.96 10.38L109 10.38L109 11.38ZM221.46 10.88L221.46 35.68L222.46 35.68L222.46 10.88L221.46 10.88ZM221.96 35.18L109 35.18L109 36.18L221.96 36.18L221.96 35.18ZM109.5 35.68L109.5 10.88L108.5 10.88L108.5 35.68L109.5 35.68ZM109 113.38L109 112.88L108.5 112.88L108.5 113.38L109 113.38ZM221.96 113.38L222.46 113.38L222.46 112.88L221.96 112.88L221.96 113.38ZM221.96 138.5L221.96 139L222.46 139L222.46 138.5L221.96 138.5ZM109 138.5L108.5 138.5L108.5 139L109 139L109 138.5ZM109 113.88L221.96 113.88L221.96 112.88L109 112.88L109 113.88ZM221.46 113.38L221.46 138.5L222.46 138.5L222.46 113.38L221.46 113.38ZM221.96 138L109 138L109 139L221.96 139L221.96 138ZM109.5 138.5L109.5 113.38L108.5 113.38L108.5 138.5L109.5 138.5ZM109 187.935L109 187.435L108.5 187.435L108.5 187.935L109 187.935ZM220.36 187.935L220.86 187.935L220.86 187.435L220.36 187.435L220.36 187.935ZM220.36 213.055L220.36 213.555L220.86 213.555L220.86 213.055L220.36 213.055ZM109 213.055L108.5 213.055L108.5 213.555L109 213.555L109 213.055ZM200.04 152.575L200.04 152.075L199.54 152.075L199.54 152.575L200.04 152.575ZM221.96 152.575L222.46 152.575L222.46 152.075L221.96 152.075L221.96 152.575ZM221.96 248.415L221.96 248.915L222.46 248.915L222.46 248.415L221.96 248.415ZM200.04 248.415L199.54 248.415L199.54 248.915L200.04 248.915L200.04 248.415ZM109 188.435L220.36 188.435L220.36 187.435L109 187.435L109 188.435ZM219.86 187.935L219.86 213.055L220.86 213.055L220.86 187.935L219.86 187.935ZM220.36 212.555L109 212.555L109 213.555L220.36 213.555L220.36 212.555ZM109.5 213.055L109.5 187.935L108.5 187.935L108.5 213.055L109.5 213.055ZM200.04 153.075L221.96 153.075L221.96 152.075L200.04 152.075L200.04 153.075ZM221.46 152.575L221.46 248.415L222.46 248.415L222.46 152.575L221.46 152.575ZM221.96 247.915L200.04 247.915L200.04 248.915L221.96 248.915L221.96 247.915ZM200.54 248.415L200.54 152.575L199.54 152.575L199.54 248.415L200.54 248.415ZM109 293.58L108.82 293.113L108.5 293.237L108.5 293.58L109 293.58ZM221.96 250.06L222.46 250.06L222.46 249.332L221.78 249.593L221.96 250.06ZM221.96 276.94L222.13 277.41L222.46 277.291L222.46 276.94L221.96 276.94ZM130.6 310.06L130.1 310.06L130.1 310.773L130.77 310.53L130.6 310.06ZM130.6 299.02L130.773 298.551L130.1 298.303L130.1 299.02L130.6 299.02ZM221.96 332.62L222.46 332.62L222.46 332.271L222.133 332.151L221.96 332.62ZM221.96 359.18L221.779 359.646L222.46 359.911L222.46 359.18L221.96 359.18ZM109 315.18L108.5 315.18L108.5 315.522L108.819 315.646L109 315.18ZM109.18 294.047L222.14 250.527L221.78 249.593L108.82 293.113L109.18 294.047ZM221.46 250.06L221.46 276.94L222.46 276.94L222.46 250.06L221.46 250.06ZM221.79 276.47L130.43 309.59L130.77 310.53L222.13 277.41L221.79 276.47ZM131.1 310.06L131.1 299.02L130.1 299.02L130.1 310.06L131.1 310.06ZM130.427 299.489L221.787 333.089L222.133 332.151L130.773 298.551L130.427 299.489ZM221.46 332.62L221.46 359.18L222.46 359.18L222.46 332.62L221.46 332.62ZM222.141 358.714L109.181 314.714L108.819 315.646L221.779 359.646L222.141 358.714ZM109.5 315.18L109.5 293.58L108.5 293.58L108.5 315.18L109.5 315.18ZM109 372.442L109 371.942L108.5 371.942L108.5 372.442L109 372.442ZM221.96 372.443L222.46 372.443L222.46 371.943L221.96 371.943L221.96 372.443ZM221.96 397.562L221.96 398.062L222.46 398.062L222.46 397.562L221.96 397.562ZM109 397.562L108.5 397.562L108.5 398.062L109 398.062L109 397.562ZM109 372.942L221.96 372.943L221.96 371.943L109 371.942L109 372.942ZM221.46 372.443L221.46 397.562L222.46 397.562L222.46 372.443L221.46 372.443ZM221.96 397.062L109 397.062L109 398.062L221.96 398.062L221.96 397.062ZM109.5 397.562L109.5 372.442L108.5 372.442L108.5 397.562L109.5 397.562ZM109 454.518L108.82 454.051L108.5 454.174L108.5 454.518L109 454.518ZM221.96 410.997L222.46 410.997L222.46 410.269L221.78 410.531L221.96 410.997ZM221.96 437.878L222.13 438.348L222.46 438.228L222.46 437.878L221.96 437.878ZM130.6 470.997L130.1 470.997L130.1 471.711L130.77 471.468L130.6 470.997ZM130.6 459.958L130.773 459.488L130.1 459.241L130.1 459.958L130.6 459.958ZM221.96 493.557L222.46 493.557L222.46 493.209L222.133 493.088L221.96 493.557ZM221.96 520.117L221.779 520.583L222.46 520.849L222.46 520.117L221.96 520.117ZM109 476.117L108.5 476.117L108.5 476.459L108.819 476.583L109 476.117ZM109.18 454.984L222.14 411.464L221.78 410.531L108.82 454.051L109.18 454.984ZM221.46 410.997L221.46 437.878L222.46 437.878L222.46 410.997L221.46 410.997ZM221.79 437.407L130.43 470.527L130.77 471.468L222.13 438.348L221.79 437.407ZM131.1 470.997L131.1 459.958L130.1 459.958L130.1 470.997L131.1 470.997ZM130.427 460.427L221.787 494.027L222.133 493.088L130.773 459.488L130.427 460.427ZM221.46 493.557L221.46 520.117L222.46 520.117L222.46 493.557L221.46 493.557ZM222.141 519.652L109.181 475.652L108.819 476.583L221.779 520.583L222.141 519.652ZM109.5 476.117L109.5 454.518L108.5 454.518L108.5 476.117L109.5 476.117ZM109 510.525L109.184 510.06L108.5 509.789L108.5 510.525L109 510.525ZM221.96 555.325L222.46 555.325L222.46 554.985L222.144 554.86L221.96 555.325ZM221.96 578.045L222.143 578.51L222.46 578.386L222.46 578.045L221.96 578.045ZM109 622.365L108.5 622.365L108.5 623.098L109.183 622.83L109 622.365ZM109 595.805L108.83 595.335L108.5 595.454L108.5 595.805L109 595.805ZM202.76 561.885L203.26 561.885L203.26 561.172L202.59 561.415L202.76 561.885ZM202.76 571.005L202.588 571.474L203.26 571.721L203.26 571.005L202.76 571.005ZM109 536.605L108.5 536.605L108.5 536.954L108.828 537.074L109 536.605ZM129.48 535.965L129.48 535.465L128.98 535.465L128.98 535.965L129.48 535.965ZM149.96 535.965L150.46 535.965L150.46 535.465L149.96 535.465L149.96 535.965ZM149.96 597.565L149.96 598.065L150.46 598.065L150.46 597.565L149.96 597.565ZM129.48 597.565L128.98 597.565L128.98 598.065L129.48 598.065L129.48 597.565ZM108.816 510.99L221.776 555.79L222.144 554.86L109.184 510.06L108.816 510.99ZM221.46 555.325L221.46 578.045L222.46 578.045L222.46 555.325L221.46 555.325ZM221.777 577.58L108.817 621.9L109.183 622.83L222.143 578.51L221.777 577.58ZM109.5 622.365L109.5 595.805L108.5 595.805L108.5 622.365L109.5 622.365ZM109.17 596.275L202.93 562.355L202.59 561.415L108.83 595.335L109.17 596.275ZM202.26 561.885L202.26 571.005L203.26 571.005L203.26 561.885L202.26 561.885ZM202.932 570.536L109.172 536.136L108.828 537.074L202.588 571.474L202.932 570.536ZM109.5 536.605L109.5 510.525L108.5 510.525L108.5 536.605L109.5 536.605ZM129.48 536.465L149.96 536.465L149.96 535.465L129.48 535.465L129.48 536.465ZM149.46 535.965L149.46 597.565L150.46 597.565L150.46 535.965L149.46 535.965ZM149.96 597.065L129.48 597.065L129.48 598.065L149.96 598.065L149.96 597.065ZM129.98 597.565L129.98 535.965L128.98 535.965L128.98 597.565L129.98 597.565Z" fill="#0057FF" fill-opacity="0.44" mask="url(#path-1-outside-1_118_984)"/>
<circle cx="167.5" cy="74.5" r="29.5" transform="rotate(90 167.5 74.5)" fill="url(#paint0_radial_118_984)"/>
<circle cx="167.5" cy="185.5" r="29.5" transform="rotate(90 167.5 185.5)" fill="url(#paint1_radial_118_984)"/>
<circle cx="167.5" cy="289" r="29.5" transform="rotate(90 167.5 289)" fill="url(#paint2_radial_118_984)"/>
<circle cx="167.5" cy="402" r="29.5" transform="rotate(90 167.5 402)" fill="url(#paint3_radial_118_984)"/>
<circle cx="167.5" cy="509.5" r="29.5" transform="rotate(90 167.5 509.5)" fill="url(#paint4_radial_118_984)"/>
<path d="M167.5 11L167.5 67L156 67L156 78.75L204 78.75L204 90L168.25 90L168.25 118" stroke="white" stroke-opacity="0.6" stroke-width="4"/>
<path d="M167.5 225L167.5 281L156 281L156 292.75L204 292.75L204 304L168.25 304L168.25 332" stroke="white" stroke-opacity="0.6" stroke-width="4"/>
<path d="M167.5 495L167.5 497L169.5 497L169.5 495L167.5 495ZM156 495L156 493L154 493L154 495L156 495ZM156 506.75L154 506.75L154 508.75L156 508.75L156 506.75ZM204 506.75L206 506.75L206 504.75L204 504.75L204 506.75ZM204 518L204 520L206 520L206 518L204 518ZM168.25 518L168.25 516L166.25 516L166.25 518L168.25 518ZM168.25 598L179.797 578L156.703 578L168.25 598ZM165.5 439L165.5 495L169.5 495L169.5 439L165.5 439ZM167.5 493L156 493L156 497L167.5 497L167.5 493ZM154 495L154 506.75L158 506.75L158 495L154 495ZM156 508.75L204 508.75L204 504.75L156 504.75L156 508.75ZM202 506.75L202 518L206 518L206 506.75L202 506.75ZM204 516L168.25 516L168.25 520L204 520L204 516ZM166.25 518L166.25 580L170.25 580L170.25 518L166.25 518Z" fill="white" fill-opacity="0.6"/>
<path d="M168.25 118L168.25 174L179.75 174L179.75 185.75L131.75 185.75L131.75 197L167.5 197L167.5 225" stroke="white" stroke-opacity="0.6" stroke-width="4"/>
<path d="M168.25 332L168.25 388L179.75 388L179.75 399.75L131.75 399.75L131.75 411L167.5 411L167.5 439" stroke="white" stroke-opacity="0.6" stroke-width="4"/>
<path d="M224.256 77V66.216H225.76V77H224.256ZM220.48 67.272V65.896H229.52V67.272H220.48ZM234.067 77.16C233.309 77.16 232.627 76.9893 232.019 76.648C231.411 76.296 230.931 75.8213 230.579 75.224C230.227 74.6267 230.051 73.9493 230.051 73.192C230.051 72.4453 230.221 71.7733 230.563 71.176C230.915 70.5787 231.384 70.1093 231.971 69.768C232.568 69.416 233.235 69.24 233.971 69.24C234.675 69.24 235.293 69.4 235.827 69.72C236.371 70.04 236.792 70.4827 237.091 71.048C237.4 71.6133 237.555 72.2533 237.555 72.968C237.555 73.0747 237.549 73.192 237.539 73.32C237.528 73.4373 237.507 73.576 237.475 73.736H231.059V72.536H236.707L236.179 73C236.179 72.488 236.088 72.056 235.907 71.704C235.725 71.3413 235.469 71.064 235.139 70.872C234.808 70.6693 234.408 70.568 233.939 70.568C233.448 70.568 233.016 70.6747 232.643 70.888C232.269 71.1013 231.981 71.4 231.779 71.784C231.576 72.168 231.475 72.6213 231.475 73.144C231.475 73.6773 231.581 74.1467 231.795 74.552C232.008 74.9467 232.312 75.256 232.707 75.48C233.101 75.6933 233.555 75.8 234.067 75.8C234.493 75.8 234.883 75.7253 235.235 75.576C235.597 75.4267 235.907 75.2027 236.163 74.904L237.091 75.848C236.728 76.2747 236.28 76.6 235.747 76.824C235.224 77.048 234.664 77.16 234.067 77.16ZM243.141 77.16C242.714 77.16 242.309 77.1067 241.925 77C241.551 76.8827 241.205 76.7227 240.885 76.52C240.565 76.3067 240.287 76.056 240.053 75.768L240.981 74.84C241.258 75.1813 241.578 75.4373 241.941 75.608C242.303 75.768 242.709 75.848 243.157 75.848C243.605 75.848 243.951 75.7733 244.197 75.624C244.442 75.464 244.565 75.2453 244.565 74.968C244.565 74.6907 244.463 74.4773 244.261 74.328C244.069 74.168 243.818 74.04 243.509 73.944C243.199 73.8373 242.869 73.736 242.517 73.64C242.175 73.5333 241.85 73.4 241.541 73.24C241.231 73.08 240.975 72.8613 240.773 72.584C240.581 72.3067 240.485 71.9387 240.485 71.48C240.485 71.0213 240.597 70.6267 240.821 70.296C241.045 69.9547 241.354 69.6933 241.749 69.512C242.154 69.3307 242.639 69.24 243.205 69.24C243.802 69.24 244.33 69.3467 244.789 69.56C245.258 69.7627 245.642 70.072 245.941 70.488L245.013 71.416C244.799 71.1387 244.533 70.9253 244.213 70.776C243.903 70.6267 243.551 70.552 243.157 70.552C242.741 70.552 242.421 70.6267 242.197 70.776C241.983 70.9147 241.877 71.112 241.877 71.368C241.877 71.624 241.973 71.8213 242.165 71.96C242.357 72.0987 242.607 72.216 242.917 72.312C243.237 72.408 243.567 72.5093 243.909 72.616C244.25 72.712 244.575 72.8453 244.885 73.016C245.194 73.1867 245.445 73.416 245.637 73.704C245.839 73.992 245.941 74.3707 245.941 74.84C245.941 75.5547 245.685 76.12 245.173 76.536C244.671 76.952 243.994 77.16 243.141 77.16ZM250.321 77V66.216H251.761V77H250.321ZM248.449 70.712V69.4H253.633V70.712H248.449ZM262.02 77V72.568C262.02 71.992 261.838 71.5173 261.476 71.144C261.113 70.7707 260.644 70.584 260.068 70.584C259.684 70.584 259.342 70.6693 259.044 70.84C258.745 71.0107 258.51 71.2453 258.34 71.544C258.169 71.8427 258.084 72.184 258.084 72.568L257.492 72.232C257.492 71.656 257.62 71.144 257.876 70.696C258.132 70.248 258.489 69.896 258.948 69.64C259.406 69.3733 259.924 69.24 260.5 69.24C261.076 69.24 261.582 69.384 262.02 69.672C262.468 69.96 262.82 70.3387 263.076 70.808C263.332 71.2667 263.46 71.7573 263.46 72.28V77H262.02ZM256.644 77V69.4H258.084V77H256.644ZM270.529 77.16C269.772 77.16 269.089 76.9893 268.481 76.648C267.873 76.296 267.393 75.8213 267.041 75.224C266.689 74.6267 266.513 73.9493 266.513 73.192C266.513 72.4453 266.684 71.7733 267.025 71.176C267.377 70.5787 267.846 70.1093 268.433 69.768C269.03 69.416 269.697 69.24 270.433 69.24C271.137 69.24 271.756 69.4 272.289 69.72C272.833 70.04 273.254 70.4827 273.553 71.048C273.862 71.6133 274.017 72.2533 274.017 72.968C274.017 73.0747 274.012 73.192 274.001 73.32C273.99 73.4373 273.969 73.576 273.937 73.736H267.521V72.536H273.169L272.641 73C272.641 72.488 272.55 72.056 272.369 71.704C272.188 71.3413 271.932 71.064 271.601 70.872C271.27 70.6693 270.87 70.568 270.401 70.568C269.91 70.568 269.478 70.6747 269.105 70.888C268.732 71.1013 268.444 71.4 268.241 71.784C268.038 72.168 267.937 72.6213 267.937 73.144C267.937 73.6773 268.044 74.1467 268.257 74.552C268.47 74.9467 268.774 75.256 269.169 75.48C269.564 75.6933 270.017 75.8 270.529 75.8C270.956 75.8 271.345 75.7253 271.697 75.576C272.06 75.4267 272.369 75.2027 272.625 74.904L273.553 75.848C273.19 76.2747 272.742 76.6 272.209 76.824C271.686 77.048 271.126 77.16 270.529 77.16ZM278.121 77V66.216H279.561V77H278.121ZM276.249 70.712V69.4H281.433V70.712H276.249ZM221.312 97V85.896H222.816V97H221.312ZM222.336 97V95.624H228.288V97H222.336ZM234.388 97.16C233.695 97.16 233.065 96.9893 232.5 96.648C231.935 96.296 231.487 95.8213 231.156 95.224C230.836 94.6267 230.676 93.9547 230.676 93.208C230.676 92.4613 230.836 91.7893 231.156 91.192C231.487 90.5947 231.929 90.12 232.484 89.768C233.049 89.416 233.684 89.24 234.388 89.24C234.964 89.24 235.476 89.3627 235.924 89.608C236.383 89.8427 236.751 90.1733 237.028 90.6C237.305 91.016 237.46 91.5013 237.492 92.056V94.344C237.46 94.888 237.305 95.3733 237.028 95.8C236.761 96.2267 236.399 96.5627 235.94 96.808C235.492 97.0427 234.975 97.16 234.388 97.16ZM234.628 95.8C235.343 95.8 235.919 95.56 236.356 95.08C236.793 94.5893 237.012 93.9653 237.012 93.208C237.012 92.6853 236.911 92.232 236.708 91.848C236.516 91.4533 236.239 91.1493 235.876 90.936C235.513 90.712 235.092 90.6 234.612 90.6C234.132 90.6 233.705 90.712 233.332 90.936C232.969 91.16 232.681 91.4693 232.468 91.864C232.265 92.248 232.164 92.6907 232.164 93.192C232.164 93.704 232.265 94.1573 232.468 94.552C232.681 94.936 232.975 95.24 233.348 95.464C233.721 95.688 234.148 95.8 234.628 95.8ZM236.916 97V94.952L237.188 93.096L236.916 91.256V89.4H238.372V97H236.916ZM245.125 97.16C244.506 97.16 243.946 97.0213 243.445 96.744C242.954 96.456 242.57 96.0613 242.293 95.56C242.015 95.0587 241.877 94.4773 241.877 93.816V89.4H243.317V93.752C243.317 94.168 243.386 94.5307 243.525 94.84C243.674 95.1387 243.887 95.368 244.165 95.528C244.442 95.688 244.767 95.768 245.141 95.768C245.706 95.768 246.149 95.592 246.469 95.24C246.789 94.8773 246.949 94.3813 246.949 93.752V89.4H248.389V93.816C248.389 94.4773 248.25 95.0587 247.973 95.56C247.695 96.0613 247.311 96.456 246.821 96.744C246.341 97.0213 245.775 97.16 245.125 97.16ZM257.294 97V92.568C257.294 91.992 257.113 91.5173 256.75 91.144C256.388 90.7707 255.918 90.584 255.342 90.584C254.958 90.584 254.617 90.6693 254.318 90.84C254.02 91.0107 253.785 91.2453 253.614 91.544C253.444 91.8427 253.358 92.184 253.358 92.568L252.766 92.232C252.766 91.656 252.894 91.144 253.15 90.696C253.406 90.248 253.764 89.896 254.222 89.64C254.681 89.3733 255.198 89.24 255.774 89.24C256.35 89.24 256.857 89.384 257.294 89.672C257.742 89.96 258.094 90.3387 258.35 90.808C258.606 91.2667 258.734 91.7573 258.734 92.28V97H257.294ZM251.918 97V89.4H253.358V97H251.918ZM265.756 97.16C265.009 97.16 264.332 96.984 263.724 96.632C263.127 96.28 262.652 95.8053 262.3 95.208C261.959 94.6 261.788 93.928 261.788 93.192C261.788 92.4453 261.959 91.7733 262.3 91.176C262.652 90.5787 263.127 90.1093 263.724 89.768C264.332 89.416 265.009 89.24 265.756 89.24C266.343 89.24 266.887 89.352 267.388 89.576C267.889 89.7893 268.321 90.104 268.684 90.52L267.724 91.48C267.489 91.2027 267.201 90.9947 266.86 90.856C266.529 90.7067 266.161 90.632 265.756 90.632C265.276 90.632 264.849 90.744 264.476 90.968C264.103 91.1813 263.809 91.48 263.596 91.864C263.383 92.248 263.276 92.6907 263.276 93.192C263.276 93.6933 263.383 94.136 263.596 94.52C263.809 94.904 264.103 95.208 264.476 95.432C264.849 95.656 265.276 95.768 265.756 95.768C266.161 95.768 266.529 95.6987 266.86 95.56C267.201 95.4107 267.495 95.1973 267.74 94.92L268.684 95.88C268.332 96.2853 267.9 96.6 267.388 96.824C266.887 97.048 266.343 97.16 265.756 97.16ZM277.088 97V92.568C277.088 91.992 276.907 91.5173 276.544 91.144C276.182 90.7707 275.712 90.584 275.136 90.584C274.752 90.584 274.411 90.6693 274.112 90.84C273.814 91.0107 273.579 91.2453 273.408 91.544C273.238 91.8427 273.152 92.184 273.152 92.568L272.56 92.232C272.56 91.656 272.688 91.144 272.944 90.696C273.2 90.248 273.558 89.896 274.016 89.64C274.475 89.3733 274.992 89.24 275.568 89.24C276.144 89.24 276.651 89.368 277.088 89.624C277.536 89.88 277.888 90.2373 278.144 90.696C278.4 91.1547 278.528 91.6827 278.528 92.28V97H277.088ZM271.712 97V85.576H273.152V97H271.712Z" fill="white"/>
<path d="M2.32 186V184.688H5.68C6.32 184.688 6.82133 184.501 7.184 184.128C7.54667 183.744 7.728 183.285 7.728 182.752C7.728 182.389 7.648 182.064 7.488 181.776C7.328 181.477 7.09333 181.243 6.784 181.072C6.48533 180.901 6.13333 180.816 5.728 180.816H2.32V179.504H5.504C6.03733 179.504 6.45867 179.365 6.768 179.088C7.088 178.8 7.248 178.389 7.248 177.856C7.248 177.323 7.08267 176.917 6.752 176.64C6.42133 176.352 5.984 176.208 5.44 176.208H2.32V174.896H5.472C6.19733 174.896 6.8 175.029 7.28 175.296C7.77067 175.552 8.13867 175.893 8.384 176.32C8.64 176.747 8.768 177.216 8.768 177.728C8.768 178.325 8.60267 178.848 8.272 179.296C7.952 179.744 7.47733 180.096 6.848 180.352L6.976 179.872C7.69067 180.128 8.24533 180.517 8.64 181.04C9.04533 181.552 9.248 182.16 9.248 182.864C9.248 183.451 9.104 183.979 8.816 184.448C8.528 184.917 8.112 185.296 7.568 185.584C7.03467 185.861 6.37867 186 5.6 186H2.32ZM1.312 186V174.896H2.816V186H1.312ZM15.481 186V175.216H16.985V186H15.481ZM11.705 176.272V174.896H20.745V176.272H11.705ZM28.3645 186.16C27.5645 186.16 26.8232 186.016 26.1405 185.728C25.4578 185.429 24.8605 185.019 24.3485 184.496C23.8472 183.973 23.4578 183.365 23.1805 182.672C22.9032 181.979 22.7645 181.237 22.7645 180.448C22.7645 179.648 22.9032 178.901 23.1805 178.208C23.4578 177.515 23.8472 176.912 24.3485 176.4C24.8605 175.877 25.4525 175.472 26.1245 175.184C26.8072 174.885 27.5485 174.736 28.3485 174.736C29.2232 174.736 29.9912 174.885 30.6525 175.184C31.3138 175.483 31.9005 175.888 32.4125 176.4L31.3725 177.44C31.0205 177.045 30.5885 176.736 30.0765 176.512C29.5752 176.288 28.9992 176.176 28.3485 176.176C27.7618 176.176 27.2232 176.283 26.7325 176.496C26.2418 176.699 25.8152 176.992 25.4525 177.376C25.0898 177.76 24.8072 178.213 24.6045 178.736C24.4125 179.259 24.3165 179.829 24.3165 180.448C24.3165 181.067 24.4125 181.637 24.6045 182.16C24.8072 182.683 25.0898 183.136 25.4525 183.52C25.8152 183.904 26.2418 184.203 26.7325 184.416C27.2232 184.619 27.7618 184.72 28.3485 184.72C29.0418 184.72 29.6445 184.608 30.1565 184.384C30.6685 184.149 31.1005 183.835 31.4525 183.44L32.4925 184.464C31.9805 184.997 31.3778 185.413 30.6845 185.712C30.0018 186.011 29.2285 186.16 28.3645 186.16ZM43.2201 186L37.9081 180.304C37.4921 179.856 37.1828 179.429 36.9801 179.024C36.7775 178.619 36.6761 178.171 36.6761 177.68C36.6761 177.115 36.8095 176.613 37.0761 176.176C37.3428 175.728 37.7108 175.376 38.1801 175.12C38.6495 174.853 39.1881 174.72 39.7961 174.72C40.2441 174.72 40.6495 174.795 41.0121 174.944C41.3855 175.083 41.7108 175.269 41.9881 175.504C42.2761 175.739 42.5161 176.005 42.7081 176.304L41.6681 177.248C41.4228 176.907 41.1508 176.635 40.8521 176.432C40.5641 176.219 40.2121 176.112 39.7961 176.112C39.3161 176.112 38.9161 176.256 38.5961 176.544C38.2761 176.832 38.1161 177.205 38.1161 177.664C38.1161 178.048 38.1961 178.373 38.3561 178.64C38.5161 178.907 38.7561 179.216 39.0761 179.568L44.9801 186H43.2201ZM39.2361 186.16C38.5001 186.16 37.8548 186.016 37.3001 185.728C36.7455 185.44 36.3135 185.045 36.0041 184.544C35.7055 184.032 35.5561 183.451 35.5561 182.8C35.5561 182.128 35.7375 181.52 36.1001 180.976C36.4628 180.432 36.9908 180 37.6841 179.68L38.3721 180.576C37.9455 180.789 37.6095 181.083 37.3641 181.456C37.1188 181.819 36.9961 182.256 36.9961 182.768C36.9961 183.184 37.0921 183.541 37.2841 183.84C37.4761 184.139 37.7428 184.373 38.0841 184.544C38.4361 184.704 38.8361 184.784 39.2841 184.784C39.8495 184.784 40.3295 184.667 40.7241 184.432C41.1188 184.197 41.4175 183.899 41.6201 183.536L42.5641 184.64C42.3508 184.928 42.0681 185.189 41.7161 185.424C41.3748 185.648 40.9908 185.829 40.5641 185.968C40.1481 186.096 39.7055 186.16 39.2361 186.16ZM48.6419 186V184.688H52.0019C52.6419 184.688 53.1432 184.501 53.5059 184.128C53.8685 183.744 54.0499 183.285 54.0499 182.752C54.0499 182.389 53.9699 182.064 53.8099 181.776C53.6499 181.477 53.4152 181.243 53.1059 181.072C52.8072 180.901 52.4552 180.816 52.0499 180.816H48.6419V179.504H51.8259C52.3592 179.504 52.7805 179.365 53.0899 179.088C53.4099 178.8 53.5699 178.389 53.5699 177.856C53.5699 177.323 53.4045 176.917 53.0739 176.64C52.7432 176.352 52.3059 176.208 51.7619 176.208H48.6419V174.896H51.7939C52.5192 174.896 53.1219 175.029 53.6019 175.296C54.0925 175.552 54.4605 175.893 54.7059 176.32C54.9619 176.747 55.0899 177.216 55.0899 177.728C55.0899 178.325 54.9245 178.848 54.5939 179.296C54.2739 179.744 53.7992 180.096 53.1699 180.352L53.2979 179.872C54.0125 180.128 54.5672 180.517 54.9619 181.04C55.3672 181.552 55.5699 182.16 55.5699 182.864C55.5699 183.451 55.4259 183.979 55.1379 184.448C54.8499 184.917 54.4339 185.296 53.8899 185.584C53.3565 185.861 52.7005 186 51.9219 186H48.6419ZM47.6339 186V174.896H49.1379V186H47.6339ZM60.2106 181.168V179.904H63.2186C63.8693 179.904 64.3706 179.739 64.7226 179.408C65.0746 179.077 65.2506 178.629 65.2506 178.064C65.2506 177.531 65.0746 177.088 64.7226 176.736C64.3813 176.384 63.8853 176.208 63.2346 176.208H60.2106V174.896H63.2826C63.9866 174.896 64.6 175.035 65.1226 175.312C65.6453 175.579 66.0453 175.947 66.3226 176.416C66.6106 176.885 66.7546 177.424 66.7546 178.032C66.7546 178.661 66.6106 179.211 66.3226 179.68C66.0453 180.149 65.6453 180.517 65.1226 180.784C64.6 181.04 63.9866 181.168 63.2826 181.168H60.2106ZM59.2026 186V174.896H60.7066V186H59.2026ZM65.6026 186L61.5706 181.024L62.9946 180.528L67.5066 186H65.6026ZM75.5301 186.16C74.7301 186.16 73.9888 186.016 73.3061 185.728C72.6235 185.429 72.0261 185.019 71.5141 184.496C71.0128 183.973 70.6235 183.365 70.3461 182.672C70.0688 181.979 69.9301 181.237 69.9301 180.448C69.9301 179.648 70.0688 178.901 70.3461 178.208C70.6235 177.515 71.0128 176.912 71.5141 176.4C72.0261 175.877 72.6181 175.472 73.2901 175.184C73.9728 174.885 74.7141 174.736 75.5141 174.736C76.3888 174.736 77.1568 174.885 77.8181 175.184C78.4795 175.483 79.0661 175.888 79.5781 176.4L78.5381 177.44C78.1861 177.045 77.7541 176.736 77.2421 176.512C76.7408 176.288 76.1648 176.176 75.5141 176.176C74.9275 176.176 74.3888 176.283 73.8981 176.496C73.4075 176.699 72.9808 176.992 72.6181 177.376C72.2555 177.76 71.9728 178.213 71.7701 178.736C71.5781 179.259 71.4821 179.829 71.4821 180.448C71.4821 181.067 71.5781 181.637 71.7701 182.16C71.9728 182.683 72.2555 183.136 72.6181 183.52C72.9808 183.904 73.4075 184.203 73.8981 184.416C74.3888 184.619 74.9275 184.72 75.5141 184.72C76.2075 184.72 76.8101 184.608 77.3221 184.384C77.8341 184.149 78.2661 183.835 78.6181 183.44L79.6581 184.464C79.1461 184.997 78.5435 185.413 77.8501 185.712C77.1675 186.011 76.3941 186.16 75.5301 186.16ZM82.5216 182.608V181.248H87.7856V182.608H82.5216ZM90.5155 185.088L94.6115 180.768C95.0275 180.341 95.3528 179.973 95.5875 179.664C95.8222 179.344 95.9875 179.051 96.0835 178.784C96.1902 178.517 96.2435 178.24 96.2435 177.952C96.2435 177.387 96.0622 176.944 95.6995 176.624C95.3368 176.304 94.8675 176.144 94.2915 176.144C93.7262 176.144 93.2302 176.283 92.8035 176.56C92.3768 176.827 91.9982 177.243 91.6675 177.808L90.6115 176.928C91.0488 176.203 91.5768 175.659 92.1955 175.296C92.8142 174.923 93.5288 174.736 94.3395 174.736C95.0222 174.736 95.6142 174.869 96.1155 175.136C96.6275 175.403 97.0222 175.776 97.2995 176.256C97.5768 176.736 97.7155 177.296 97.7155 177.936C97.7155 178.395 97.6568 178.805 97.5395 179.168C97.4328 179.531 97.2355 179.904 96.9475 180.288C96.6702 180.661 96.2808 181.109 95.7795 181.632L92.4675 185.04L90.5155 185.088ZM90.5155 186V185.088L91.7955 184.656H97.9715V186H90.5155ZM105.524 186.16C104.692 186.16 103.929 185.925 103.236 185.456C102.553 184.987 102.009 184.325 101.604 183.472C101.198 182.608 100.996 181.595 100.996 180.432C100.996 179.269 101.193 178.261 101.588 177.408C101.993 176.555 102.537 175.899 103.22 175.44C103.902 174.971 104.654 174.736 105.476 174.736C106.318 174.736 107.081 174.971 107.764 175.44C108.446 175.899 108.985 176.555 109.38 177.408C109.785 178.261 109.988 179.275 109.988 180.448C109.988 181.611 109.785 182.624 109.38 183.488C108.985 184.341 108.446 185.003 107.764 185.472C107.092 185.931 106.345 186.16 105.524 186.16ZM105.492 184.736C106.078 184.736 106.59 184.576 107.028 184.256C107.476 183.925 107.828 183.44 108.084 182.8C108.34 182.16 108.468 181.371 108.468 180.432C108.468 179.493 108.34 178.709 108.084 178.08C107.828 177.44 107.476 176.96 107.028 176.64C106.58 176.309 106.062 176.144 105.476 176.144C104.9 176.144 104.388 176.309 103.94 176.64C103.492 176.96 103.14 177.44 102.884 178.08C102.638 178.709 102.516 179.493 102.516 180.432C102.516 181.371 102.638 182.16 102.884 182.8C103.14 183.44 103.492 183.925 103.94 184.256C104.388 184.576 104.905 184.736 105.492 184.736ZM0.496 206L5.04 194.896H6.128L10.656 206H9.024L5.296 196.608H5.856L2.096 206H0.496ZM2.656 203.488V202.176H8.496V203.488H2.656ZM16.2126 206.16C15.786 206.16 15.3806 206.107 14.9966 206C14.6233 205.883 14.2766 205.723 13.9566 205.52C13.6366 205.307 13.3593 205.056 13.1246 204.768L14.0526 203.84C14.33 204.181 14.65 204.437 15.0126 204.608C15.3753 204.768 15.7806 204.848 16.2286 204.848C16.6766 204.848 17.0233 204.773 17.2686 204.624C17.514 204.464 17.6366 204.245 17.6366 203.968C17.6366 203.691 17.5353 203.477 17.3326 203.328C17.1406 203.168 16.89 203.04 16.5806 202.944C16.2713 202.837 15.9406 202.736 15.5886 202.64C15.2473 202.533 14.922 202.4 14.6126 202.24C14.3033 202.08 14.0473 201.861 13.8446 201.584C13.6526 201.307 13.5566 200.939 13.5566 200.48C13.5566 200.021 13.6686 199.627 13.8926 199.296C14.1166 198.955 14.426 198.693 14.8206 198.512C15.226 198.331 15.7113 198.24 16.2766 198.24C16.874 198.24 17.402 198.347 17.8606 198.56C18.33 198.763 18.714 199.072 19.0126 199.488L18.0846 200.416C17.8713 200.139 17.6046 199.925 17.2846 199.776C16.9753 199.627 16.6233 199.552 16.2286 199.552C15.8126 199.552 15.4926 199.627 15.2686 199.776C15.0553 199.915 14.9486 200.112 14.9486 200.368C14.9486 200.624 15.0446 200.821 15.2366 200.96C15.4286 201.099 15.6793 201.216 15.9886 201.312C16.3086 201.408 16.6393 201.509 16.9806 201.616C17.322 201.712 17.6473 201.845 17.9566 202.016C18.266 202.187 18.5166 202.416 18.7086 202.704C18.9113 202.992 19.0126 203.371 19.0126 203.84C19.0126 204.555 18.7566 205.12 18.2446 205.536C17.7433 205.952 17.066 206.16 16.2126 206.16ZM24.6408 206.16C24.2141 206.16 23.8088 206.107 23.4248 206C23.0514 205.883 22.7048 205.723 22.3848 205.52C22.0648 205.307 21.7874 205.056 21.5528 204.768L22.4808 203.84C22.7581 204.181 23.0781 204.437 23.4408 204.608C23.8034 204.768 24.2088 204.848 24.6568 204.848C25.1048 204.848 25.4514 204.773 25.6968 204.624C25.9421 204.464 26.0648 204.245 26.0648 203.968C26.0648 203.691 25.9634 203.477 25.7608 203.328C25.5688 203.168 25.3181 203.04 25.0088 202.944C24.6994 202.837 24.3688 202.736 24.0168 202.64C23.6754 202.533 23.3501 202.4 23.0408 202.24C22.7314 202.08 22.4754 201.861 22.2728 201.584C22.0808 201.307 21.9848 200.939 21.9848 200.48C21.9848 200.021 22.0968 199.627 22.3208 199.296C22.5448 198.955 22.8541 198.693 23.2488 198.512C23.6541 198.331 24.1394 198.24 24.7048 198.24C25.3021 198.24 25.8301 198.347 26.2888 198.56C26.7581 198.763 27.1421 199.072 27.4408 199.488L26.5128 200.416C26.2994 200.139 26.0328 199.925 25.7128 199.776C25.4034 199.627 25.0514 199.552 24.6568 199.552C24.2408 199.552 23.9208 199.627 23.6968 199.776C23.4834 199.915 23.3768 200.112 23.3768 200.368C23.3768 200.624 23.4728 200.821 23.6648 200.96C23.8568 201.099 24.1074 201.216 24.4168 201.312C24.7368 201.408 25.0674 201.509 25.4088 201.616C25.7501 201.712 26.0754 201.845 26.3848 202.016C26.6941 202.187 26.9448 202.416 27.1368 202.704C27.3394 202.992 27.4408 203.371 27.4408 203.84C27.4408 204.555 27.1848 205.12 26.6728 205.536C26.1714 205.952 25.4941 206.16 24.6408 206.16ZM34.1729 206.16C33.4155 206.16 32.7329 205.989 32.1249 205.648C31.5169 205.296 31.0369 204.821 30.6849 204.224C30.3329 203.627 30.1569 202.949 30.1569 202.192C30.1569 201.445 30.3275 200.773 30.6689 200.176C31.0209 199.579 31.4902 199.109 32.0769 198.768C32.6742 198.416 33.3409 198.24 34.0769 198.24C34.7809 198.24 35.3995 198.4 35.9329 198.72C36.4769 199.04 36.8982 199.483 37.1969 200.048C37.5062 200.613 37.6609 201.253 37.6609 201.968C37.6609 202.075 37.6555 202.192 37.6449 202.32C37.6342 202.437 37.6129 202.576 37.5809 202.736H31.1649V201.536H36.8129L36.2849 202C36.2849 201.488 36.1942 201.056 36.0129 200.704C35.8315 200.341 35.5755 200.064 35.2449 199.872C34.9142 199.669 34.5142 199.568 34.0449 199.568C33.5542 199.568 33.1222 199.675 32.7489 199.888C32.3755 200.101 32.0875 200.4 31.8849 200.784C31.6822 201.168 31.5809 201.621 31.5809 202.144C31.5809 202.677 31.6875 203.147 31.9009 203.552C32.1142 203.947 32.4182 204.256 32.8129 204.48C33.2075 204.693 33.6609 204.8 34.1729 204.8C34.5995 204.8 34.9889 204.725 35.3409 204.576C35.7035 204.427 36.0129 204.203 36.2689 203.904L37.1969 204.848C36.8342 205.275 36.3862 205.6 35.8529 205.824C35.3302 206.048 34.7702 206.16 34.1729 206.16ZM41.7646 206V195.216H43.2046V206H41.7646ZM39.8926 199.712V198.4H45.0766V199.712H39.8926ZM50.347 206.16C49.9203 206.16 49.515 206.107 49.131 206C48.7577 205.883 48.411 205.723 48.091 205.52C47.771 205.307 47.4937 205.056 47.259 204.768L48.187 203.84C48.4643 204.181 48.7843 204.437 49.147 204.608C49.5097 204.768 49.915 204.848 50.363 204.848C50.811 204.848 51.1577 204.773 51.403 204.624C51.6483 204.464 51.771 204.245 51.771 203.968C51.771 203.691 51.6697 203.477 51.467 203.328C51.275 203.168 51.0243 203.04 50.715 202.944C50.4057 202.837 50.075 202.736 49.723 202.64C49.3817 202.533 49.0563 202.4 48.747 202.24C48.4377 202.08 48.1817 201.861 47.979 201.584C47.787 201.307 47.691 200.939 47.691 200.48C47.691 200.021 47.803 199.627 48.027 199.296C48.251 198.955 48.5603 198.693 48.955 198.512C49.3603 198.331 49.8457 198.24 50.411 198.24C51.0083 198.24 51.5363 198.347 51.995 198.56C52.4643 198.763 52.8483 199.072 53.147 199.488L52.219 200.416C52.0057 200.139 51.739 199.925 51.419 199.776C51.1097 199.627 50.7577 199.552 50.363 199.552C49.947 199.552 49.627 199.627 49.403 199.776C49.1897 199.915 49.083 200.112 49.083 200.368C49.083 200.624 49.179 200.821 49.371 200.96C49.563 201.099 49.8137 201.216 50.123 201.312C50.443 201.408 50.7737 201.509 51.115 201.616C51.4563 201.712 51.7817 201.845 52.091 202.016C52.4003 202.187 52.651 202.416 52.843 202.704C53.0457 202.992 53.147 203.371 53.147 203.84C53.147 204.555 52.891 205.12 52.379 205.536C51.8777 205.952 51.2003 206.16 50.347 206.16ZM62.5513 206V204.688H65.9113C66.5513 204.688 67.0526 204.501 67.4153 204.128C67.7779 203.744 67.9593 203.285 67.9593 202.752C67.9593 202.389 67.8793 202.064 67.7193 201.776C67.5593 201.477 67.3246 201.243 67.0153 201.072C66.7166 200.901 66.3646 200.816 65.9593 200.816H62.5513V199.504H65.7353C66.2686 199.504 66.6899 199.365 66.9993 199.088C67.3193 198.8 67.4793 198.389 67.4793 197.856C67.4793 197.323 67.3139 196.917 66.9833 196.64C66.6526 196.352 66.2153 196.208 65.6713 196.208H62.5513V194.896H65.7033C66.4286 194.896 67.0313 195.029 67.5113 195.296C68.0019 195.552 68.3699 195.893 68.6153 196.32C68.8713 196.747 68.9993 197.216 68.9993 197.728C68.9993 198.325 68.8339 198.848 68.5033 199.296C68.1833 199.744 67.7086 200.096 67.0793 200.352L67.2073 199.872C67.9219 200.128 68.4766 200.517 68.8713 201.04C69.2766 201.552 69.4793 202.16 69.4793 202.864C69.4793 203.451 69.3353 203.979 69.0473 204.448C68.7593 204.917 68.3433 205.296 67.7993 205.584C67.2659 205.861 66.6099 206 65.8313 206H62.5513ZM61.5433 206V194.896H63.0473V206H61.5433ZM72.856 206V198.4H74.296V206H72.856ZM74.296 201.664L73.752 201.424C73.752 200.453 73.976 199.68 74.424 199.104C74.872 198.528 75.5173 198.24 76.36 198.24C76.744 198.24 77.0907 198.309 77.4 198.448C77.7093 198.576 77.9973 198.795 78.264 199.104L77.32 200.08C77.16 199.909 76.984 199.787 76.792 199.712C76.6 199.637 76.376 199.6 76.12 199.6C75.5867 199.6 75.1493 199.771 74.808 200.112C74.4667 200.453 74.296 200.971 74.296 201.664ZM80.8939 206V198.4H82.3339V206H80.8939ZM81.6139 196.88C81.3472 196.88 81.1285 196.795 80.9579 196.624C80.7872 196.443 80.7019 196.219 80.7019 195.952C80.7019 195.696 80.7872 195.483 80.9579 195.312C81.1285 195.131 81.3472 195.04 81.6139 195.04C81.8805 195.04 82.0992 195.131 82.2699 195.312C82.4405 195.483 82.5259 195.696 82.5259 195.952C82.5259 196.219 82.4405 196.443 82.2699 196.624C82.0992 196.795 81.8805 196.88 81.6139 196.88ZM89.272 206.16C88.568 206.16 87.9387 205.989 87.384 205.648C86.8293 205.296 86.3867 204.821 86.056 204.224C85.736 203.627 85.576 202.955 85.576 202.208C85.576 201.461 85.736 200.789 86.056 200.192C86.3867 199.595 86.8293 199.12 87.384 198.768C87.9387 198.416 88.568 198.24 89.272 198.24C89.8373 198.24 90.3493 198.363 90.808 198.608C91.2667 198.843 91.6347 199.173 91.912 199.6C92.2 200.016 92.36 200.501 92.392 201.056V203.344C92.36 203.888 92.2053 204.373 91.928 204.8C91.6507 205.227 91.2827 205.563 90.824 205.808C90.3653 206.043 89.848 206.16 89.272 206.16ZM89.512 204.8C89.992 204.8 90.408 204.688 90.76 204.464C91.1227 204.24 91.4053 203.936 91.608 203.552C91.8107 203.157 91.912 202.709 91.912 202.208C91.912 201.685 91.8053 201.232 91.592 200.848C91.3893 200.464 91.1067 200.16 90.744 199.936C90.392 199.712 89.976 199.6 89.496 199.6C89.016 199.6 88.5947 199.712 88.232 199.936C87.8693 200.16 87.5813 200.469 87.368 200.864C87.1653 201.248 87.064 201.691 87.064 202.192C87.064 202.704 87.1653 203.157 87.368 203.552C87.5813 203.936 87.8693 204.24 88.232 204.464C88.6053 204.688 89.032 204.8 89.512 204.8ZM93.272 206H91.816V203.952L92.088 202.096L91.816 200.256V194.576H93.272V206ZM100.12 209.344C99.3418 209.344 98.6485 209.2 98.0405 208.912C97.4432 208.624 96.9632 208.219 96.6005 207.696L97.5285 206.752C97.8378 207.147 98.2058 207.445 98.6325 207.648C99.0592 207.861 99.5658 207.968 100.152 207.968C100.931 207.968 101.544 207.76 101.992 207.344C102.451 206.939 102.68 206.389 102.68 205.696V203.808L102.936 202.096L102.68 200.4V198.4H104.12V205.696C104.12 206.421 103.95 207.056 103.608 207.6C103.278 208.144 102.808 208.571 102.2 208.88C101.603 209.189 100.91 209.344 100.12 209.344ZM100.12 205.872C99.4272 205.872 98.8032 205.707 98.2485 205.376C97.7045 205.045 97.2725 204.592 96.9525 204.016C96.6325 203.429 96.4725 202.773 96.4725 202.048C96.4725 201.323 96.6325 200.677 96.9525 200.112C97.2725 199.536 97.7045 199.083 98.2485 198.752C98.8032 198.411 99.4272 198.24 100.12 198.24C100.718 198.24 101.246 198.357 101.704 198.592C102.163 198.827 102.526 199.157 102.792 199.584C103.07 200 103.219 200.491 103.24 201.056V203.072C103.208 203.627 103.054 204.117 102.776 204.544C102.51 204.96 102.147 205.285 101.688 205.52C101.23 205.755 100.707 205.872 100.12 205.872ZM100.408 204.512C100.878 204.512 101.288 204.411 101.64 204.208C102.003 204.005 102.28 203.723 102.472 203.36C102.664 202.987 102.76 202.555 102.76 202.064C102.76 201.573 102.659 201.147 102.456 200.784C102.264 200.411 101.992 200.123 101.64 199.92C101.288 199.707 100.872 199.6 100.392 199.6C99.9125 199.6 99.4912 199.707 99.1285 199.92C98.7658 200.123 98.4778 200.411 98.2645 200.784C98.0618 201.147 97.9605 201.568 97.9605 202.048C97.9605 202.528 98.0618 202.955 98.2645 203.328C98.4778 203.701 98.7658 203.995 99.1285 204.208C99.5018 204.411 99.9285 204.512 100.408 204.512ZM111.354 206.16C110.597 206.16 109.914 205.989 109.306 205.648C108.698 205.296 108.218 204.821 107.866 204.224C107.514 203.627 107.338 202.949 107.338 202.192C107.338 201.445 107.509 200.773 107.85 200.176C108.202 199.579 108.671 199.109 109.258 198.768C109.855 198.416 110.522 198.24 111.258 198.24C111.962 198.24 112.581 198.4 113.114 198.72C113.658 199.04 114.079 199.483 114.378 200.048C114.687 200.613 114.842 201.253 114.842 201.968C114.842 202.075 114.837 202.192 114.826 202.32C114.815 202.437 114.794 202.576 114.762 202.736H108.346V201.536H113.994L113.466 202C113.466 201.488 113.375 201.056 113.194 200.704C113.013 200.341 112.757 200.064 112.426 199.872C112.095 199.669 111.695 199.568 111.226 199.568C110.735 199.568 110.303 199.675 109.93 199.888C109.557 200.101 109.269 200.4 109.066 200.784C108.863 201.168 108.762 201.621 108.762 202.144C108.762 202.677 108.869 203.147 109.082 203.552C109.295 203.947 109.599 204.256 109.994 204.48C110.389 204.693 110.842 204.8 111.354 204.8C111.781 204.8 112.17 204.725 112.522 204.576C112.885 204.427 113.194 204.203 113.45 203.904L114.378 204.848C114.015 205.275 113.567 205.6 113.034 205.824C112.511 206.048 111.951 206.16 111.354 206.16Z" fill="white"/>
<path d="M221.312 295V283.896H222.816V295H221.312ZM222.336 295V293.624H228.704V295H222.336ZM222.336 289.976V288.664H228.176V289.976H222.336ZM222.336 285.272V283.896H228.624V285.272H222.336ZM235.425 295.16C234.678 295.16 234.001 294.984 233.393 294.632C232.796 294.28 232.321 293.805 231.969 293.208C231.628 292.6 231.457 291.928 231.457 291.192C231.457 290.445 231.628 289.773 231.969 289.176C232.321 288.579 232.796 288.109 233.393 287.768C234.001 287.416 234.678 287.24 235.425 287.24C236.012 287.24 236.556 287.352 237.057 287.576C237.558 287.789 237.99 288.104 238.353 288.52L237.393 289.48C237.158 289.203 236.87 288.995 236.529 288.856C236.198 288.707 235.83 288.632 235.425 288.632C234.945 288.632 234.518 288.744 234.145 288.968C233.772 289.181 233.478 289.48 233.265 289.864C233.052 290.248 232.945 290.691 232.945 291.192C232.945 291.693 233.052 292.136 233.265 292.52C233.478 292.904 233.772 293.208 234.145 293.432C234.518 293.656 234.945 293.768 235.425 293.768C235.83 293.768 236.198 293.699 236.529 293.56C236.87 293.411 237.164 293.197 237.409 292.92L238.353 293.88C238.001 294.285 237.569 294.6 237.057 294.824C236.556 295.048 236.012 295.16 235.425 295.16ZM244.697 295.16C243.95 295.16 243.278 294.984 242.681 294.632C242.083 294.28 241.609 293.805 241.257 293.208C240.905 292.6 240.729 291.923 240.729 291.176C240.729 290.44 240.905 289.779 241.257 289.192C241.609 288.595 242.083 288.12 242.681 287.768C243.278 287.416 243.95 287.24 244.697 287.24C245.433 287.24 246.099 287.416 246.697 287.768C247.305 288.109 247.785 288.579 248.137 289.176C248.489 289.773 248.665 290.44 248.665 291.176C248.665 291.923 248.489 292.6 248.137 293.208C247.785 293.805 247.305 294.28 246.697 294.632C246.099 294.984 245.433 295.16 244.697 295.16ZM244.697 293.768C245.177 293.768 245.603 293.656 245.977 293.432C246.35 293.208 246.643 292.904 246.857 292.52C247.07 292.125 247.177 291.677 247.177 291.176C247.177 290.685 247.065 290.248 246.841 289.864C246.627 289.48 246.334 289.181 245.961 288.968C245.598 288.744 245.177 288.632 244.697 288.632C244.217 288.632 243.79 288.744 243.417 288.968C243.043 289.181 242.75 289.48 242.537 289.864C242.323 290.248 242.217 290.685 242.217 291.176C242.217 291.677 242.323 292.125 242.537 292.52C242.75 292.904 243.043 293.208 243.417 293.432C243.79 293.656 244.217 293.768 244.697 293.768ZM254.303 295.16C253.877 295.16 253.471 295.107 253.087 295C252.714 294.883 252.367 294.723 252.047 294.52C251.727 294.307 251.45 294.056 251.215 293.768L252.143 292.84C252.421 293.181 252.741 293.437 253.103 293.608C253.466 293.768 253.871 293.848 254.319 293.848C254.767 293.848 255.114 293.773 255.359 293.624C255.605 293.464 255.727 293.245 255.727 292.968C255.727 292.691 255.626 292.477 255.423 292.328C255.231 292.168 254.981 292.04 254.671 291.944C254.362 291.837 254.031 291.736 253.679 291.64C253.338 291.533 253.013 291.4 252.703 291.24C252.394 291.08 252.138 290.861 251.935 290.584C251.743 290.307 251.647 289.939 251.647 289.48C251.647 289.021 251.759 288.627 251.983 288.296C252.207 287.955 252.517 287.693 252.911 287.512C253.317 287.331 253.802 287.24 254.367 287.24C254.965 287.24 255.493 287.347 255.951 287.56C256.421 287.763 256.805 288.072 257.103 288.488L256.175 289.416C255.962 289.139 255.695 288.925 255.375 288.776C255.066 288.627 254.714 288.552 254.319 288.552C253.903 288.552 253.583 288.627 253.359 288.776C253.146 288.915 253.039 289.112 253.039 289.368C253.039 289.624 253.135 289.821 253.327 289.96C253.519 290.099 253.77 290.216 254.079 290.312C254.399 290.408 254.73 290.509 255.071 290.616C255.413 290.712 255.738 290.845 256.047 291.016C256.357 291.187 256.607 291.416 256.799 291.704C257.002 291.992 257.103 292.371 257.103 292.84C257.103 293.555 256.847 294.12 256.335 294.536C255.834 294.952 255.157 295.16 254.303 295.16ZM262.811 295.064L259.515 287.4H261.115L263.563 293.4H263.051L265.627 287.4H267.227L263.675 295.064H262.811ZM260.635 298.184L262.875 293.592L263.675 295.064L262.235 298.184H260.635ZM272.269 295.16C271.842 295.16 271.437 295.107 271.053 295C270.68 294.883 270.333 294.723 270.013 294.52C269.693 294.307 269.416 294.056 269.181 293.768L270.109 292.84C270.386 293.181 270.706 293.437 271.069 293.608C271.432 293.768 271.837 293.848 272.285 293.848C272.733 293.848 273.08 293.773 273.325 293.624C273.57 293.464 273.693 293.245 273.693 292.968C273.693 292.691 273.592 292.477 273.389 292.328C273.197 292.168 272.946 292.04 272.637 291.944C272.328 291.837 271.997 291.736 271.645 291.64C271.304 291.533 270.978 291.4 270.669 291.24C270.36 291.08 270.104 290.861 269.901 290.584C269.709 290.307 269.613 289.939 269.613 289.48C269.613 289.021 269.725 288.627 269.949 288.296C270.173 287.955 270.482 287.693 270.877 287.512C271.282 287.331 271.768 287.24 272.333 287.24C272.93 287.24 273.458 287.347 273.917 287.56C274.386 287.763 274.77 288.072 275.069 288.488L274.141 289.416C273.928 289.139 273.661 288.925 273.341 288.776C273.032 288.627 272.68 288.552 272.285 288.552C271.869 288.552 271.549 288.627 271.325 288.776C271.112 288.915 271.005 289.112 271.005 289.368C271.005 289.624 271.101 289.821 271.293 289.96C271.485 290.099 271.736 290.216 272.045 290.312C272.365 290.408 272.696 290.509 273.037 290.616C273.378 290.712 273.704 290.845 274.013 291.016C274.322 291.187 274.573 291.416 274.765 291.704C274.968 291.992 275.069 292.371 275.069 292.84C275.069 293.555 274.813 294.12 274.301 294.536C273.8 294.952 273.122 295.16 272.269 295.16ZM279.449 295V284.216H280.889V295H279.449ZM277.577 288.712V287.4H282.761V288.712H277.577ZM289.057 295.16C288.3 295.16 287.617 294.989 287.009 294.648C286.401 294.296 285.921 293.821 285.569 293.224C285.217 292.627 285.041 291.949 285.041 291.192C285.041 290.445 285.212 289.773 285.553 289.176C285.905 288.579 286.375 288.109 286.961 287.768C287.559 287.416 288.225 287.24 288.961 287.24C289.665 287.24 290.284 287.4 290.817 287.72C291.361 288.04 291.783 288.483 292.081 289.048C292.391 289.613 292.545 290.253 292.545 290.968C292.545 291.075 292.54 291.192 292.529 291.32C292.519 291.437 292.497 291.576 292.465 291.736H286.049V290.536H291.697L291.169 291C291.169 290.488 291.079 290.056 290.897 289.704C290.716 289.341 290.46 289.064 290.129 288.872C289.799 288.669 289.399 288.568 288.929 288.568C288.439 288.568 288.007 288.675 287.633 288.888C287.26 289.101 286.972 289.4 286.769 289.784C286.567 290.168 286.465 290.621 286.465 291.144C286.465 291.677 286.572 292.147 286.785 292.552C286.999 292.947 287.303 293.256 287.697 293.48C288.092 293.693 288.545 293.8 289.057 293.8C289.484 293.8 289.873 293.725 290.225 293.576C290.588 293.427 290.897 293.203 291.153 292.904L292.081 293.848C291.719 294.275 291.271 294.6 290.737 294.824C290.215 295.048 289.655 295.16 289.057 295.16ZM295.715 295V287.4H297.155V295H295.715ZM300.851 295V290.408C300.851 289.843 300.675 289.4 300.323 289.08C299.982 288.749 299.55 288.584 299.027 288.584C298.675 288.584 298.361 288.659 298.083 288.808C297.806 288.957 297.582 289.165 297.411 289.432C297.241 289.699 297.155 290.019 297.155 290.392L296.563 290.104C296.563 289.528 296.686 289.027 296.931 288.6C297.187 288.173 297.534 287.843 297.971 287.608C298.409 287.363 298.899 287.24 299.443 287.24C299.977 287.24 300.457 287.357 300.883 287.592C301.321 287.827 301.662 288.157 301.907 288.584C302.163 289.011 302.291 289.517 302.291 290.104V295H300.851ZM305.987 295V290.408C305.987 289.843 305.811 289.4 305.459 289.08C305.118 288.749 304.691 288.584 304.179 288.584C303.827 288.584 303.507 288.659 303.219 288.808C302.942 288.957 302.718 289.165 302.547 289.432C302.377 289.699 302.291 290.019 302.291 290.392L301.475 290.104C301.507 289.517 301.662 289.016 301.939 288.6C302.227 288.173 302.595 287.843 303.043 287.608C303.491 287.363 303.982 287.24 304.515 287.24C305.07 287.24 305.566 287.357 306.003 287.592C306.441 287.827 306.787 288.157 307.043 288.584C307.31 289.011 307.443 289.523 307.443 290.12V295H305.987ZM222.32 310.68V309.368H225.344C225.76 309.368 226.128 309.283 226.448 309.112C226.779 308.941 227.035 308.701 227.216 308.392C227.408 308.083 227.504 307.715 227.504 307.288C227.504 306.861 227.408 306.493 227.216 306.184C227.035 305.875 226.779 305.635 226.448 305.464C226.128 305.293 225.76 305.208 225.344 305.208H222.32V303.896H225.44C226.123 303.896 226.731 304.035 227.264 304.312C227.808 304.589 228.235 304.984 228.544 305.496C228.864 305.997 229.024 306.595 229.024 307.288C229.024 307.971 228.864 308.568 228.544 309.08C228.235 309.581 227.808 309.976 227.264 310.264C226.731 310.541 226.123 310.68 225.44 310.68H222.32ZM221.312 315V303.896H222.816V315H221.312ZM232.359 315V307.4H233.799V315H232.359ZM233.799 310.664L233.255 310.424C233.255 309.453 233.479 308.68 233.927 308.104C234.375 307.528 235.02 307.24 235.863 307.24C236.247 307.24 236.594 307.309 236.903 307.448C237.212 307.576 237.5 307.795 237.767 308.104L236.823 309.08C236.663 308.909 236.487 308.787 236.295 308.712C236.103 308.637 235.879 308.6 235.623 308.6C235.09 308.6 234.652 308.771 234.311 309.112C233.97 309.453 233.799 309.971 233.799 310.664ZM243.603 315.16C242.856 315.16 242.184 314.984 241.587 314.632C240.99 314.28 240.515 313.805 240.163 313.208C239.811 312.6 239.635 311.923 239.635 311.176C239.635 310.44 239.811 309.779 240.163 309.192C240.515 308.595 240.99 308.12 241.587 307.768C242.184 307.416 242.856 307.24 243.603 307.24C244.339 307.24 245.006 307.416 245.603 307.768C246.211 308.109 246.691 308.579 247.043 309.176C247.395 309.773 247.571 310.44 247.571 311.176C247.571 311.923 247.395 312.6 247.043 313.208C246.691 313.805 246.211 314.28 245.603 314.632C245.006 314.984 244.339 315.16 243.603 315.16ZM243.603 313.768C244.083 313.768 244.51 313.656 244.883 313.432C245.256 313.208 245.55 312.904 245.763 312.52C245.976 312.125 246.083 311.677 246.083 311.176C246.083 310.685 245.971 310.248 245.747 309.864C245.534 309.48 245.24 309.181 244.867 308.968C244.504 308.744 244.083 308.632 243.603 308.632C243.123 308.632 242.696 308.744 242.323 308.968C241.95 309.181 241.656 309.48 241.443 309.864C241.23 310.248 241.123 310.685 241.123 311.176C241.123 311.677 241.23 312.125 241.443 312.52C241.656 312.904 241.95 313.208 242.323 313.432C242.696 313.656 243.123 313.768 243.603 313.768ZM253.945 318.344C253.167 318.344 252.473 318.2 251.865 317.912C251.268 317.624 250.788 317.219 250.425 316.696L251.353 315.752C251.663 316.147 252.031 316.445 252.457 316.648C252.884 316.861 253.391 316.968 253.977 316.968C254.756 316.968 255.369 316.76 255.817 316.344C256.276 315.939 256.505 315.389 256.505 314.696V312.808L256.761 311.096L256.505 309.4V307.4H257.945V314.696C257.945 315.421 257.775 316.056 257.433 316.6C257.103 317.144 256.633 317.571 256.025 317.88C255.428 318.189 254.735 318.344 253.945 318.344ZM253.945 314.872C253.252 314.872 252.628 314.707 252.073 314.376C251.529 314.045 251.097 313.592 250.777 313.016C250.457 312.429 250.297 311.773 250.297 311.048C250.297 310.323 250.457 309.677 250.777 309.112C251.097 308.536 251.529 308.083 252.073 307.752C252.628 307.411 253.252 307.24 253.945 307.24C254.543 307.24 255.071 307.357 255.529 307.592C255.988 307.827 256.351 308.157 256.617 308.584C256.895 309 257.044 309.491 257.065 310.056V312.072C257.033 312.627 256.879 313.117 256.601 313.544C256.335 313.96 255.972 314.285 255.513 314.52C255.055 314.755 254.532 314.872 253.945 314.872ZM254.233 313.512C254.703 313.512 255.113 313.411 255.465 313.208C255.828 313.005 256.105 312.723 256.297 312.36C256.489 311.987 256.585 311.555 256.585 311.064C256.585 310.573 256.484 310.147 256.281 309.784C256.089 309.411 255.817 309.123 255.465 308.92C255.113 308.707 254.697 308.6 254.217 308.6C253.737 308.6 253.316 308.707 252.953 308.92C252.591 309.123 252.303 309.411 252.089 309.784C251.887 310.147 251.785 310.568 251.785 311.048C251.785 311.528 251.887 311.955 252.089 312.328C252.303 312.701 252.591 312.995 252.953 313.208C253.327 313.411 253.753 313.512 254.233 313.512ZM261.659 315V307.4H263.099V315H261.659ZM263.099 310.664L262.555 310.424C262.555 309.453 262.779 308.68 263.227 308.104C263.675 307.528 264.32 307.24 265.163 307.24C265.547 307.24 265.894 307.309 266.203 307.448C266.512 307.576 266.8 307.795 267.067 308.104L266.123 309.08C265.963 308.909 265.787 308.787 265.595 308.712C265.403 308.637 265.179 308.6 264.923 308.6C264.39 308.6 263.952 308.771 263.611 309.112C263.27 309.453 263.099 309.971 263.099 310.664ZM272.663 315.16C271.97 315.16 271.34 314.989 270.775 314.648C270.21 314.296 269.762 313.821 269.431 313.224C269.111 312.627 268.951 311.955 268.951 311.208C268.951 310.461 269.111 309.789 269.431 309.192C269.762 308.595 270.204 308.12 270.759 307.768C271.324 307.416 271.959 307.24 272.663 307.24C273.239 307.24 273.751 307.363 274.199 307.608C274.658 307.843 275.026 308.173 275.303 308.6C275.58 309.016 275.735 309.501 275.767 310.056V312.344C275.735 312.888 275.58 313.373 275.303 313.8C275.036 314.227 274.674 314.563 274.215 314.808C273.767 315.043 273.25 315.16 272.663 315.16ZM272.903 313.8C273.618 313.8 274.194 313.56 274.631 313.08C275.068 312.589 275.287 311.965 275.287 311.208C275.287 310.685 275.186 310.232 274.983 309.848C274.791 309.453 274.514 309.149 274.151 308.936C273.788 308.712 273.367 308.6 272.887 308.6C272.407 308.6 271.98 308.712 271.607 308.936C271.244 309.16 270.956 309.469 270.743 309.864C270.54 310.248 270.439 310.691 270.439 311.192C270.439 311.704 270.54 312.157 270.743 312.552C270.956 312.936 271.25 313.24 271.623 313.464C271.996 313.688 272.423 313.8 272.903 313.8ZM275.191 315V312.952L275.463 311.096L275.191 309.256V307.4H276.647V315H275.191ZM280.343 315V307.4H281.783V315H280.343ZM285.479 315V310.408C285.479 309.843 285.303 309.4 284.951 309.08C284.61 308.749 284.178 308.584 283.655 308.584C283.303 308.584 282.989 308.659 282.711 308.808C282.434 308.957 282.21 309.165 282.039 309.432C281.869 309.699 281.783 310.019 281.783 310.392L281.191 310.104C281.191 309.528 281.314 309.027 281.559 308.6C281.815 308.173 282.162 307.843 282.599 307.608C283.037 307.363 283.527 307.24 284.071 307.24C284.605 307.24 285.085 307.357 285.511 307.592C285.949 307.827 286.29 308.157 286.535 308.584C286.791 309.011 286.919 309.517 286.919 310.104V315H285.479ZM290.615 315V310.408C290.615 309.843 290.439 309.4 290.087 309.08C289.746 308.749 289.319 308.584 288.807 308.584C288.455 308.584 288.135 308.659 287.847 308.808C287.57 308.957 287.346 309.165 287.175 309.432C287.005 309.699 286.919 310.019 286.919 310.392L286.103 310.104C286.135 309.517 286.29 309.016 286.567 308.6C286.855 308.173 287.223 307.843 287.671 307.608C288.119 307.363 288.61 307.24 289.143 307.24C289.698 307.24 290.194 307.357 290.631 307.592C291.069 307.827 291.415 308.157 291.671 308.584C291.938 309.011 292.071 309.523 292.071 310.12V315H290.615Z" fill="white"/>
<path d="M52.312 402V390.896H53.816V402H52.312ZM63.157 402V397.568C63.157 396.992 62.9757 396.517 62.613 396.144C62.2503 395.771 61.781 395.584 61.205 395.584C60.821 395.584 60.4797 395.669 60.181 395.84C59.8823 396.011 59.6477 396.245 59.477 396.544C59.3063 396.843 59.221 397.184 59.221 397.568L58.629 397.232C58.629 396.656 58.757 396.144 59.013 395.696C59.269 395.248 59.6263 394.896 60.085 394.64C60.5437 394.373 61.061 394.24 61.637 394.24C62.213 394.24 62.7197 394.384 63.157 394.672C63.605 394.96 63.957 395.339 64.213 395.808C64.469 396.267 64.597 396.757 64.597 397.28V402H63.157ZM57.781 402V394.4H59.221V402H57.781ZM68.1626 402V394.4H69.6026V402H68.1626ZM68.8826 392.88C68.616 392.88 68.3973 392.795 68.2266 392.624C68.056 392.443 67.9706 392.219 67.9706 391.952C67.9706 391.696 68.056 391.483 68.2266 391.312C68.3973 391.131 68.616 391.04 68.8826 391.04C69.1493 391.04 69.368 391.131 69.5386 391.312C69.7093 391.483 69.7946 391.696 69.7946 391.952C69.7946 392.219 69.7093 392.443 69.5386 392.624C69.368 392.795 69.1493 392.88 68.8826 392.88ZM74.4927 402V391.216H75.9327V402H74.4927ZM72.6207 395.712V394.4H77.8047V395.712H72.6207ZM80.8314 402V394.4H82.2714V402H80.8314ZM81.5514 392.88C81.2847 392.88 81.066 392.795 80.8954 392.624C80.7247 392.443 80.6394 392.219 80.6394 391.952C80.6394 391.696 80.7247 391.483 80.8954 391.312C81.066 391.131 81.2847 391.04 81.5514 391.04C81.818 391.04 82.0367 391.131 82.2074 391.312C82.378 391.483 82.4634 391.696 82.4634 391.952C82.4634 392.219 82.378 392.443 82.2074 392.624C82.0367 392.795 81.818 392.88 81.5514 392.88ZM89.2255 402.16C88.5322 402.16 87.9028 401.989 87.3375 401.648C86.7722 401.296 86.3242 400.821 85.9935 400.224C85.6735 399.627 85.5135 398.955 85.5135 398.208C85.5135 397.461 85.6735 396.789 85.9935 396.192C86.3242 395.595 86.7668 395.12 87.3215 394.768C87.8868 394.416 88.5215 394.24 89.2255 394.24C89.8015 394.24 90.3135 394.363 90.7615 394.608C91.2202 394.843 91.5882 395.173 91.8655 395.6C92.1428 396.016 92.2975 396.501 92.3295 397.056V399.344C92.2975 399.888 92.1428 400.373 91.8655 400.8C91.5988 401.227 91.2362 401.563 90.7775 401.808C90.3295 402.043 89.8122 402.16 89.2255 402.16ZM89.4655 400.8C90.1802 400.8 90.7562 400.56 91.1935 400.08C91.6308 399.589 91.8495 398.965 91.8495 398.208C91.8495 397.685 91.7482 397.232 91.5455 396.848C91.3535 396.453 91.0762 396.149 90.7135 395.936C90.3508 395.712 89.9295 395.6 89.4495 395.6C88.9695 395.6 88.5428 395.712 88.1695 395.936C87.8068 396.16 87.5188 396.469 87.3055 396.864C87.1028 397.248 87.0015 397.691 87.0015 398.192C87.0015 398.704 87.1028 399.157 87.3055 399.552C87.5188 399.936 87.8122 400.24 88.1855 400.464C88.5588 400.688 88.9855 400.8 89.4655 400.8ZM91.7535 402V399.952L92.0255 398.096L91.7535 396.256V394.4H93.2095V402H91.7535ZM96.906 402V390.576H98.346V402H96.906ZM51.496 422L56.04 410.896H57.128L61.656 422H60.024L56.296 412.608H56.856L53.096 422H51.496ZM53.656 419.488V418.176H59.496V419.488H53.656ZM64.8126 422V414.4H66.2526V422H64.8126ZM65.5326 412.88C65.266 412.88 65.0473 412.795 64.8766 412.624C64.706 412.443 64.6206 412.219 64.6206 411.952C64.6206 411.696 64.706 411.483 64.8766 411.312C65.0473 411.131 65.266 411.04 65.5326 411.04C65.7993 411.04 66.018 411.131 66.1886 411.312C66.3593 411.483 66.4446 411.696 66.4446 411.952C66.4446 412.219 66.3593 412.443 66.1886 412.624C66.018 412.795 65.7993 412.88 65.5326 412.88ZM69.9748 422V414.4H71.4148V422H69.9748ZM71.4148 417.664L70.8708 417.424C70.8708 416.453 71.0948 415.68 71.5428 415.104C71.9908 414.528 72.6361 414.24 73.4788 414.24C73.8628 414.24 74.2094 414.309 74.5188 414.448C74.8281 414.576 75.1161 414.795 75.3828 415.104L74.4388 416.08C74.2788 415.909 74.1028 415.787 73.9108 415.712C73.7188 415.637 73.4948 415.6 73.2388 415.6C72.7054 415.6 72.2681 415.771 71.9268 416.112C71.5854 416.453 71.4148 416.971 71.4148 417.664ZM80.9626 422.16C80.2586 422.16 79.6293 421.989 79.0746 421.648C78.52 421.296 78.0773 420.821 77.7466 420.224C77.4266 419.627 77.2666 418.955 77.2666 418.208C77.2666 417.461 77.4266 416.789 77.7466 416.192C78.0773 415.595 78.52 415.12 79.0746 414.768C79.6293 414.416 80.2586 414.24 80.9626 414.24C81.528 414.24 82.04 414.363 82.4986 414.608C82.9573 414.843 83.3253 415.173 83.6026 415.6C83.8906 416.016 84.0506 416.501 84.0826 417.056V419.344C84.0506 419.888 83.896 420.373 83.6186 420.8C83.3413 421.227 82.9733 421.563 82.5146 421.808C82.056 422.043 81.5386 422.16 80.9626 422.16ZM81.2026 420.8C81.6826 420.8 82.0986 420.688 82.4506 420.464C82.8133 420.24 83.096 419.936 83.2986 419.552C83.5013 419.157 83.6026 418.709 83.6026 418.208C83.6026 417.685 83.496 417.232 83.2826 416.848C83.08 416.464 82.7973 416.16 82.4346 415.936C82.0826 415.712 81.6666 415.6 81.1866 415.6C80.7066 415.6 80.2853 415.712 79.9226 415.936C79.56 416.16 79.272 416.469 79.0586 416.864C78.856 417.248 78.7546 417.691 78.7546 418.192C78.7546 418.704 78.856 419.157 79.0586 419.552C79.272 419.936 79.56 420.24 79.9226 420.464C80.296 420.688 80.7226 420.8 81.2026 420.8ZM84.9626 422H83.5066V419.952L83.7786 418.096L83.5066 416.256V410.576H84.9626V422ZM88.6591 422V414.4H90.0991V422H88.6591ZM90.0991 417.664L89.5551 417.424C89.5551 416.453 89.7791 415.68 90.2271 415.104C90.6751 414.528 91.3205 414.24 92.1631 414.24C92.5471 414.24 92.8938 414.309 93.2031 414.448C93.5125 414.576 93.8005 414.795 94.0671 415.104L93.1231 416.08C92.9631 415.909 92.7871 415.787 92.5951 415.712C92.4031 415.637 92.1791 415.6 91.9231 415.6C91.3898 415.6 90.9525 415.771 90.6111 416.112C90.2698 416.453 90.0991 416.971 90.0991 417.664ZM99.903 422.16C99.1563 422.16 98.4843 421.984 97.887 421.632C97.2897 421.28 96.815 420.805 96.463 420.208C96.111 419.6 95.935 418.923 95.935 418.176C95.935 417.44 96.111 416.779 96.463 416.192C96.815 415.595 97.2897 415.12 97.887 414.768C98.4843 414.416 99.1563 414.24 99.903 414.24C100.639 414.24 101.306 414.416 101.903 414.768C102.511 415.109 102.991 415.579 103.343 416.176C103.695 416.773 103.871 417.44 103.871 418.176C103.871 418.923 103.695 419.6 103.343 420.208C102.991 420.805 102.511 421.28 101.903 421.632C101.306 421.984 100.639 422.16 99.903 422.16ZM99.903 420.768C100.383 420.768 100.81 420.656 101.183 420.432C101.556 420.208 101.85 419.904 102.063 419.52C102.276 419.125 102.383 418.677 102.383 418.176C102.383 417.685 102.271 417.248 102.047 416.864C101.834 416.48 101.54 416.181 101.167 415.968C100.804 415.744 100.383 415.632 99.903 415.632C99.423 415.632 98.9963 415.744 98.623 415.968C98.2497 416.181 97.9563 416.48 97.743 416.864C97.5297 417.248 97.423 417.685 97.423 418.176C97.423 418.677 97.5297 419.125 97.743 419.52C97.9563 419.904 98.2497 420.208 98.623 420.432C98.9963 420.656 99.423 420.768 99.903 420.768ZM111.093 422.16C110.517 422.16 109.995 422.043 109.525 421.808C109.067 421.563 108.699 421.227 108.421 420.8C108.144 420.373 107.989 419.888 107.957 419.344V417.056C107.989 416.501 108.144 416.016 108.421 415.6C108.709 415.173 109.083 414.843 109.541 414.608C110.011 414.363 110.528 414.24 111.093 414.24C111.787 414.24 112.411 414.416 112.965 414.768C113.531 415.12 113.973 415.595 114.293 416.192C114.613 416.789 114.773 417.461 114.773 418.208C114.773 418.955 114.613 419.627 114.293 420.224C113.973 420.821 113.531 421.296 112.965 421.648C112.411 421.989 111.787 422.16 111.093 422.16ZM110.853 420.8C111.333 420.8 111.755 420.688 112.117 420.464C112.48 420.24 112.768 419.936 112.981 419.552C113.195 419.157 113.301 418.704 113.301 418.192C113.301 417.691 113.195 417.243 112.981 416.848C112.768 416.453 112.48 416.149 112.117 415.936C111.755 415.712 111.339 415.6 110.869 415.6C110.389 415.6 109.968 415.712 109.605 415.936C109.243 416.149 108.96 416.453 108.757 416.848C108.555 417.243 108.453 417.696 108.453 418.208C108.453 418.709 108.549 419.157 108.741 419.552C108.944 419.936 109.227 420.24 109.589 420.464C109.963 420.688 110.384 420.8 110.853 420.8ZM107.093 425.184V414.4H108.533V416.4L108.261 418.24L108.533 420.096V425.184H107.093Z" fill="white"/>
<path d="M221.312 508V496.896H222.368L227.072 504.624H226.352L231.056 496.896H232.112V508H230.608V499.536L230.96 499.632L227.248 505.728H226.192L222.48 499.632L222.816 499.536V508H221.312ZM239.31 508.16C238.617 508.16 237.987 507.989 237.422 507.648C236.857 507.296 236.409 506.821 236.078 506.224C235.758 505.627 235.598 504.955 235.598 504.208C235.598 503.461 235.758 502.789 236.078 502.192C236.409 501.595 236.851 501.12 237.406 500.768C237.971 500.416 238.606 500.24 239.31 500.24C239.886 500.24 240.398 500.363 240.846 500.608C241.305 500.843 241.673 501.173 241.95 501.6C242.227 502.016 242.382 502.501 242.414 503.056V505.344C242.382 505.888 242.227 506.373 241.95 506.8C241.683 507.227 241.321 507.563 240.862 507.808C240.414 508.043 239.897 508.16 239.31 508.16ZM239.55 506.8C240.265 506.8 240.841 506.56 241.278 506.08C241.715 505.589 241.934 504.965 241.934 504.208C241.934 503.685 241.833 503.232 241.63 502.848C241.438 502.453 241.161 502.149 240.798 501.936C240.435 501.712 240.014 501.6 239.534 501.6C239.054 501.6 238.627 501.712 238.254 501.936C237.891 502.16 237.603 502.469 237.39 502.864C237.187 503.248 237.086 503.691 237.086 504.192C237.086 504.704 237.187 505.157 237.39 505.552C237.603 505.936 237.897 506.24 238.27 506.464C238.643 506.688 239.07 506.8 239.55 506.8ZM241.838 508V505.952L242.11 504.096L241.838 502.256V500.4H243.294V508H241.838ZM247.006 508V500.4H248.446V508H247.006ZM247.726 498.88C247.46 498.88 247.241 498.795 247.07 498.624C246.9 498.443 246.814 498.219 246.814 497.952C246.814 497.696 246.9 497.483 247.07 497.312C247.241 497.131 247.46 497.04 247.726 497.04C247.993 497.04 248.212 497.131 248.382 497.312C248.553 497.483 248.638 497.696 248.638 497.952C248.638 498.219 248.553 498.443 248.382 498.624C248.212 498.795 247.993 498.88 247.726 498.88ZM257.544 508V503.568C257.544 502.992 257.363 502.517 257 502.144C256.638 501.771 256.168 501.584 255.592 501.584C255.208 501.584 254.867 501.669 254.568 501.84C254.27 502.011 254.035 502.245 253.864 502.544C253.694 502.843 253.608 503.184 253.608 503.568L253.016 503.232C253.016 502.656 253.144 502.144 253.4 501.696C253.656 501.248 254.014 500.896 254.472 500.64C254.931 500.373 255.448 500.24 256.024 500.24C256.6 500.24 257.107 500.384 257.544 500.672C257.992 500.96 258.344 501.339 258.6 501.808C258.856 502.267 258.984 502.757 258.984 503.28V508H257.544ZM252.168 508V500.4H253.608V508H252.168ZM267.91 508V503.568C267.91 502.992 267.729 502.517 267.366 502.144C267.003 501.771 266.534 501.584 265.958 501.584C265.574 501.584 265.233 501.669 264.934 501.84C264.635 502.011 264.401 502.245 264.23 502.544C264.059 502.843 263.974 503.184 263.974 503.568L263.382 503.232C263.382 502.656 263.51 502.144 263.766 501.696C264.022 501.248 264.379 500.896 264.838 500.64C265.297 500.373 265.814 500.24 266.39 500.24C266.966 500.24 267.473 500.384 267.91 500.672C268.358 500.96 268.71 501.339 268.966 501.808C269.222 502.267 269.35 502.757 269.35 503.28V508H267.91ZM262.534 508V500.4H263.974V508H262.534ZM276.42 508.16C275.662 508.16 274.98 507.989 274.372 507.648C273.764 507.296 273.284 506.821 272.932 506.224C272.58 505.627 272.404 504.949 272.404 504.192C272.404 503.445 272.574 502.773 272.916 502.176C273.268 501.579 273.737 501.109 274.324 500.768C274.921 500.416 275.588 500.24 276.324 500.24C277.028 500.24 277.646 500.4 278.18 500.72C278.724 501.04 279.145 501.483 279.444 502.048C279.753 502.613 279.908 503.253 279.908 503.968C279.908 504.075 279.902 504.192 279.892 504.32C279.881 504.437 279.86 504.576 279.828 504.736H273.412V503.536H279.06L278.532 504C278.532 503.488 278.441 503.056 278.26 502.704C278.078 502.341 277.822 502.064 277.492 501.872C277.161 501.669 276.761 501.568 276.292 501.568C275.801 501.568 275.369 501.675 274.996 501.888C274.622 502.101 274.334 502.4 274.132 502.784C273.929 503.168 273.828 503.621 273.828 504.144C273.828 504.677 273.934 505.147 274.148 505.552C274.361 505.947 274.665 506.256 275.06 506.48C275.454 506.693 275.908 506.8 276.42 506.8C276.846 506.8 277.236 506.725 277.588 506.576C277.95 506.427 278.26 506.203 278.516 505.904L279.444 506.848C279.081 507.275 278.633 507.6 278.1 507.824C277.577 508.048 277.017 508.16 276.42 508.16ZM284.011 508V497.216H285.451V508H284.011ZM282.139 501.712V500.4H287.323V501.712H282.139ZM221.312 528V516.896H222.816V528H221.312ZM222.336 528V526.624H228.288V528H222.336ZM234.388 528.16C233.695 528.16 233.065 527.989 232.5 527.648C231.935 527.296 231.487 526.821 231.156 526.224C230.836 525.627 230.676 524.955 230.676 524.208C230.676 523.461 230.836 522.789 231.156 522.192C231.487 521.595 231.929 521.12 232.484 520.768C233.049 520.416 233.684 520.24 234.388 520.24C234.964 520.24 235.476 520.363 235.924 520.608C236.383 520.843 236.751 521.173 237.028 521.6C237.305 522.016 237.46 522.501 237.492 523.056V525.344C237.46 525.888 237.305 526.373 237.028 526.8C236.761 527.227 236.399 527.563 235.94 527.808C235.492 528.043 234.975 528.16 234.388 528.16ZM234.628 526.8C235.343 526.8 235.919 526.56 236.356 526.08C236.793 525.589 237.012 524.965 237.012 524.208C237.012 523.685 236.911 523.232 236.708 522.848C236.516 522.453 236.239 522.149 235.876 521.936C235.513 521.712 235.092 521.6 234.612 521.6C234.132 521.6 233.705 521.712 233.332 521.936C232.969 522.16 232.681 522.469 232.468 522.864C232.265 523.248 232.164 523.691 232.164 524.192C232.164 524.704 232.265 525.157 232.468 525.552C232.681 525.936 232.975 526.24 233.348 526.464C233.721 526.688 234.148 526.8 234.628 526.8ZM236.916 528V525.952L237.188 524.096L236.916 522.256V520.4H238.372V528H236.916ZM245.125 528.16C244.506 528.16 243.946 528.021 243.445 527.744C242.954 527.456 242.57 527.061 242.293 526.56C242.015 526.059 241.877 525.477 241.877 524.816V520.4H243.317V524.752C243.317 525.168 243.386 525.531 243.525 525.84C243.674 526.139 243.887 526.368 244.165 526.528C244.442 526.688 244.767 526.768 245.141 526.768C245.706 526.768 246.149 526.592 246.469 526.24C246.789 525.877 246.949 525.381 246.949 524.752V520.4H248.389V524.816C248.389 525.477 248.25 526.059 247.973 526.56C247.695 527.061 247.311 527.456 246.821 527.744C246.341 528.021 245.775 528.16 245.125 528.16ZM257.294 528V523.568C257.294 522.992 257.113 522.517 256.75 522.144C256.388 521.771 255.918 521.584 255.342 521.584C254.958 521.584 254.617 521.669 254.318 521.84C254.02 522.011 253.785 522.245 253.614 522.544C253.444 522.843 253.358 523.184 253.358 523.568L252.766 523.232C252.766 522.656 252.894 522.144 253.15 521.696C253.406 521.248 253.764 520.896 254.222 520.64C254.681 520.373 255.198 520.24 255.774 520.24C256.35 520.24 256.857 520.384 257.294 520.672C257.742 520.96 258.094 521.339 258.35 521.808C258.606 522.267 258.734 522.757 258.734 523.28V528H257.294ZM251.918 528V520.4H253.358V528H251.918ZM265.756 528.16C265.009 528.16 264.332 527.984 263.724 527.632C263.127 527.28 262.652 526.805 262.3 526.208C261.959 525.6 261.788 524.928 261.788 524.192C261.788 523.445 261.959 522.773 262.3 522.176C262.652 521.579 263.127 521.109 263.724 520.768C264.332 520.416 265.009 520.24 265.756 520.24C266.343 520.24 266.887 520.352 267.388 520.576C267.889 520.789 268.321 521.104 268.684 521.52L267.724 522.48C267.489 522.203 267.201 521.995 266.86 521.856C266.529 521.707 266.161 521.632 265.756 521.632C265.276 521.632 264.849 521.744 264.476 521.968C264.103 522.181 263.809 522.48 263.596 522.864C263.383 523.248 263.276 523.691 263.276 524.192C263.276 524.693 263.383 525.136 263.596 525.52C263.809 525.904 264.103 526.208 264.476 526.432C264.849 526.656 265.276 526.768 265.756 526.768C266.161 526.768 266.529 526.699 266.86 526.56C267.201 526.411 267.495 526.197 267.74 525.92L268.684 526.88C268.332 527.285 267.9 527.6 267.388 527.824C266.887 528.048 266.343 528.16 265.756 528.16ZM277.088 528V523.568C277.088 522.992 276.907 522.517 276.544 522.144C276.182 521.771 275.712 521.584 275.136 521.584C274.752 521.584 274.411 521.669 274.112 521.84C273.814 522.011 273.579 522.245 273.408 522.544C273.238 522.843 273.152 523.184 273.152 523.568L272.56 523.232C272.56 522.656 272.688 522.144 272.944 521.696C273.2 521.248 273.558 520.896 274.016 520.64C274.475 520.373 274.992 520.24 275.568 520.24C276.144 520.24 276.651 520.368 277.088 520.624C277.536 520.88 277.888 521.237 278.144 521.696C278.4 522.155 278.528 522.683 278.528 523.28V528H277.088ZM271.712 528V516.576H273.152V528H271.712Z" fill="white"/>
<defs>
<radialGradient id="paint0_radial_118_984" cx="0" cy="0" r="1" gradientUnits="userSpaceOnUse" gradientTransform="translate(167.5 74.5) rotate(90) scale(29.5)">
<stop stop-color="#0057FF" stop-opacity="0.44"/>
<stop offset="1" stop-color="#0057FF" stop-opacity="0"/>
</radialGradient>
<radialGradient id="paint1_radial_118_984" cx="0" cy="0" r="1" gradientUnits="userSpaceOnUse" gradientTransform="translate(167.5 185.5) rotate(90) scale(29.5)">
<stop stop-color="#0057FF" stop-opacity="0.44"/>
<stop offset="1" stop-color="#0057FF" stop-opacity="0"/>
</radialGradient>
<radialGradient id="paint2_radial_118_984" cx="0" cy="0" r="1" gradientUnits="userSpaceOnUse" gradientTransform="translate(167.5 289) rotate(90) scale(29.5)">
<stop stop-color="#0057FF" stop-opacity="0.44"/>
<stop offset="1" stop-color="#0057FF" stop-opacity="0"/>
</radialGradient>
<radialGradient id="paint3_radial_118_984" cx="0" cy="0" r="1" gradientUnits="userSpaceOnUse" gradientTransform="translate(167.5 402) rotate(90) scale(29.5)">
<stop stop-color="#0057FF" stop-opacity="0.44"/>
<stop offset="1" stop-color="#0057FF" stop-opacity="0"/>
</radialGradient>
<radialGradient id="paint4_radial_118_984" cx="0" cy="0" r="1" gradientUnits="userSpaceOnUse" gradientTransform="translate(167.5 509.5) rotate(90) scale(29.5)">
<stop stop-color="#0057FF" stop-opacity="0.44"/>
<stop offset="1" stop-color="#0057FF" stop-opacity="0"/>
</radialGradient>
</defs>
</svg>
