<svg width="166" height="40" viewBox="0 0 166 40" fill="none" xmlns="http://www.w3.org/2000/svg">
<path d="M116.655 29.7475V16.4394H119.685L119.735 19.1667L119.155 19.4697C119.323 18.8636 119.651 18.3165 120.139 17.8283C120.628 17.3232 121.208 16.9192 121.882 16.6162C122.555 16.3131 123.245 16.1616 123.953 16.1616C124.963 16.1616 125.804 16.3636 126.478 16.7677C127.168 17.1717 127.681 17.7778 128.018 18.5859C128.372 19.3939 128.548 20.404 128.548 21.6162V29.7475H125.442V21.8434C125.442 21.17 125.35 20.6145 125.165 20.1768C124.979 19.7222 124.693 19.3939 124.306 19.1919C123.919 18.9731 123.447 18.8721 122.892 18.8889C122.437 18.8889 122.016 18.9647 121.629 19.1162C121.259 19.2508 120.931 19.4529 120.644 19.7222C120.375 19.9748 120.156 20.2694 119.988 20.6061C119.836 20.9428 119.761 21.3131 119.761 21.7172V29.7475H118.22C117.917 29.7475 117.631 29.7475 117.362 29.7475C117.109 29.7475 116.873 29.7475 116.655 29.7475Z" fill="black"/>
<path d="M110.368 29.7475V16.4394H113.474V29.7475H110.368ZM111.883 13.6111C111.26 13.6111 110.772 13.4596 110.418 13.1566C110.081 12.8367 109.913 12.3906 109.913 11.8182C109.913 11.2795 110.09 10.8418 110.443 10.5051C110.797 10.1684 111.277 10 111.883 10C112.523 10 113.011 10.1599 113.347 10.4798C113.701 10.7828 113.878 11.229 113.878 11.8182C113.878 12.3401 113.701 12.7694 113.347 13.1061C112.994 13.4428 112.506 13.6111 111.883 13.6111Z" fill="black"/>
<path d="M101.099 30C99.7695 30 98.5826 29.7054 97.5389 29.1162C96.4951 28.5101 95.6702 27.6852 95.0641 26.6414C94.4581 25.5976 94.155 24.4108 94.155 23.0808C94.155 21.7508 94.4581 20.564 95.0641 19.5202C95.6702 18.4764 96.4951 17.6599 97.5389 17.0707C98.5826 16.4647 99.7695 16.1616 101.099 16.1616C102.413 16.1616 103.591 16.4647 104.635 17.0707C105.679 17.6599 106.495 18.4764 107.084 19.5202C107.69 20.564 107.993 21.7508 107.993 23.0808C107.993 24.4108 107.69 25.5976 107.084 26.6414C106.495 27.6852 105.679 28.5101 104.635 29.1162C103.591 29.7054 102.413 30 101.099 30ZM101.099 27.2475C101.823 27.2475 102.463 27.0623 103.019 26.6919C103.591 26.3216 104.037 25.8249 104.357 25.202C104.694 24.5791 104.854 23.8721 104.837 23.0808C104.854 22.2727 104.694 21.5572 104.357 20.9343C104.037 20.3115 103.591 19.8232 103.019 19.4697C102.463 19.0993 101.823 18.9141 101.099 18.9141C100.376 18.9141 99.719 19.0993 99.1298 19.4697C98.5574 19.8232 98.1113 20.3199 97.7914 20.9596C97.4715 21.5825 97.3116 22.2896 97.3116 23.0808C97.3116 23.8721 97.4715 24.5791 97.7914 25.202C98.1113 25.8249 98.5574 26.3216 99.1298 26.6919C99.719 27.0623 100.376 27.2475 101.099 27.2475Z" fill="black"/>
<path d="M87.8655 30C86.6197 30 85.5001 29.697 84.5069 29.0909C83.5136 28.4848 82.7308 27.6599 82.1584 26.6162C81.586 25.5724 81.2998 24.3939 81.2998 23.0808C81.2998 21.7677 81.586 20.5892 82.1584 19.5455C82.7308 18.5017 83.5136 17.6768 84.5069 17.0707C85.5001 16.4647 86.6197 16.1616 87.8655 16.1616C89.0607 16.1616 90.1466 16.3889 91.123 16.8434C92.0995 17.298 92.857 17.9293 93.3958 18.7374L91.6786 20.8081C91.4261 20.4546 91.1062 20.1347 90.719 19.8485C90.3318 19.5623 89.9193 19.335 89.4816 19.1667C89.0439 18.9983 88.6062 18.9141 88.1685 18.9141C87.4277 18.9141 86.7628 19.0993 86.1735 19.4697C85.6011 19.8232 85.1466 20.3199 84.8099 20.9596C84.4732 21.5825 84.3049 22.2896 84.3049 23.0808C84.3049 23.8721 84.4732 24.5791 84.8099 25.202C85.1634 25.8249 85.6348 26.3216 86.224 26.6919C86.8133 27.0623 87.4698 27.2475 88.1937 27.2475C88.6315 27.2475 89.0523 27.1801 89.4564 27.0455C89.8772 26.8939 90.2729 26.6835 90.6432 26.4141C91.0136 26.1448 91.3587 25.8081 91.6786 25.404L93.3958 27.5C92.8234 28.2407 92.0321 28.8468 91.022 29.3182C90.0288 29.7727 88.9766 30 87.8655 30Z" fill="black"/>
<path d="M74.6636 29.7476V13.0557H77.7697V29.7476H74.6636ZM72.0374 19.3183V16.4395H80.6737V19.3183H72.0374Z" fill="black"/>
<path d="M66.9375 29.7475V16.4394H70.0435V29.7475H66.9375ZM68.4526 13.6111C67.8297 13.6111 67.3415 13.4596 66.988 13.1566C66.6513 12.8367 66.4829 12.3906 66.4829 11.8182C66.4829 11.2795 66.6597 10.8418 67.0132 10.5051C67.3667 10.1684 67.8465 10 68.4526 10C69.0923 10 69.5806 10.1599 69.9173 10.4798C70.2708 10.7828 70.4476 11.229 70.4476 11.8182C70.4476 12.3401 70.2708 12.7694 69.9173 13.1061C69.5637 13.4428 69.0755 13.6111 68.4526 13.6111Z" fill="black"/>
<path d="M50.5112 29.7476V12.0708H58.0365C59.1981 12.0708 60.1745 12.2392 60.9658 12.5759C61.7739 12.9126 62.3799 13.4176 62.784 14.091C63.2048 14.7476 63.4153 15.5472 63.4153 16.49C63.4153 17.4664 63.1543 18.2913 62.6324 18.9647C62.1106 19.6381 61.3782 20.1011 60.4355 20.3536L60.4102 19.8486C61.2015 20.0169 61.8917 20.32 62.4809 20.7577C63.0702 21.1785 63.5247 21.7088 63.8446 22.3486C64.1813 22.9715 64.3496 23.687 64.3496 24.495C64.3496 25.3536 64.2065 26.1112 63.9203 26.7678C63.651 27.4243 63.2469 27.9715 62.7082 28.4092C62.1695 28.8469 61.5297 29.1836 60.789 29.4193C60.0483 29.6381 59.2149 29.7476 58.289 29.7476H50.5112ZM53.7183 26.793H58.1375C58.7604 26.793 59.2823 26.7004 59.7031 26.5152C60.1409 26.3301 60.4691 26.0607 60.688 25.7072C60.9237 25.3368 61.0415 24.8991 61.0415 24.394C61.0415 23.9227 60.9153 23.5186 60.6627 23.1819C60.4271 22.8452 60.0819 22.5927 59.6274 22.4243C59.1728 22.2391 58.6341 22.1466 58.0112 22.1466H53.7183V26.793ZM53.7183 19.3183H57.7335C58.2217 19.3183 58.6425 19.2257 58.9961 19.0405C59.3664 18.8553 59.6526 18.6028 59.8547 18.2829C60.0567 17.9631 60.1577 17.5927 60.1577 17.1718C60.1577 16.4984 59.9304 15.9765 59.4759 15.6062C59.0213 15.2189 58.3563 15.0253 57.4809 15.0253H53.7183V19.3183Z" fill="black"/>
<path d="M152.643 23.8609L152.138 20.6033L161.229 11.4619H165.345L152.643 23.8609ZM150.042 29.1387V11.4619H153.325V29.1387H150.042ZM161.633 29.1387L154.941 20.2245L157.264 18.2296L165.623 29.1387H161.633Z" fill="black"/>
<path d="M133.073 29.1387V26.8407L142.947 13.6589L143.73 14.5427H133.73V11.4619H146.735V13.7346L136.911 26.9417L136.103 26.1084H147.012V29.1387H133.073Z" fill="black"/>
<circle cx="20" cy="20" r="19" stroke="black" stroke-width="2"/>
<path fill-rule="evenodd" clip-rule="evenodd" d="M12.2581 8.38721H23.6434H23.6981L23.6982 8.38749C26.696 8.41863 29.1172 11.0062 29.1172 14.1937C29.1172 16.4242 27.9315 18.361 26.1923 19.3335C29.1252 19.6414 31.416 22.266 31.416 25.4581C31.416 28.6626 29.1075 31.295 26.1585 31.5862L26.1613 31.613H12.2581V8.38721Z" fill="black"/>
<path d="M23.722 16.95C23.7953 16.95 23.8586 16.9767 23.912 17.03C23.9653 17.0833 23.992 17.1467 23.992 17.22V18.73C23.992 18.8033 23.9653 18.8667 23.912 18.92C23.8586 18.9733 23.7953 19 23.722 19H17.302C17.2286 19 17.1653 18.9733 17.112 18.92C17.0586 18.8667 17.032 18.8033 17.032 18.73V17.29C17.032 17.2033 17.0486 17.13 17.082 17.07C17.1153 17.01 17.1486 16.9667 17.182 16.94L20.342 14.05H17.512C17.4386 14.05 17.3753 14.0233 17.322 13.97C17.2686 13.9167 17.242 13.8533 17.242 13.78V12.27C17.242 12.1967 17.2686 12.1333 17.322 12.08C17.3753 12.0267 17.4386 12 17.512 12H23.512C23.5853 12 23.6486 12.0267 23.702 12.08C23.7553 12.1333 23.782 12.1967 23.782 12.27V13.7C23.782 13.84 23.7386 13.95 23.652 14.03L20.532 16.95H23.722ZM24.632 27.65C24.6586 27.69 24.672 27.7333 24.672 27.78C24.672 27.84 24.6486 27.8933 24.602 27.94C24.562 27.98 24.512 28 24.452 28H21.872C21.7186 28 21.5986 27.9467 21.512 27.84L19.772 25.69V27.73C19.772 27.8033 19.7453 27.8667 19.692 27.92C19.6386 27.9733 19.5753 28 19.502 28H17.442C17.3686 28 17.3053 27.9733 17.252 27.92C17.1986 27.8667 17.172 27.8033 17.172 27.73V21.27C17.172 21.1967 17.1986 21.1333 17.252 21.08C17.3053 21.0267 17.3686 21 17.442 21H19.502C19.5753 21 19.6386 21.0267 19.692 21.08C19.7453 21.1333 19.772 21.1967 19.772 21.27V23.15L21.352 21.17C21.452 21.0567 21.5753 21 21.722 21H24.132C24.192 21 24.242 21.0233 24.282 21.07C24.3286 21.11 24.352 21.16 24.352 21.22C24.352 21.2733 24.3353 21.32 24.302 21.36L21.932 24.25L24.632 27.65Z" fill="white"/>
</svg>
